<?xml version="1.0" encoding="utf-8" standalone="no"?>
<!DOCTYPE svg PUBLIC "-//W3C//DTD SVG 1.1//EN"
  "http://www.w3.org/Graphics/SVG/1.1/DTD/svg11.dtd">
<svg xmlns:xlink="http://www.w3.org/1999/xlink" width="822.903125pt" height="533.154688pt" viewBox="0 0 822.903125 533.154688" xmlns="http://www.w3.org/2000/svg" version="1.1">
 <metadata>
  <rdf:RDF xmlns:dc="http://purl.org/dc/elements/1.1/" xmlns:cc="http://creativecommons.org/ns#" xmlns:rdf="http://www.w3.org/1999/02/22-rdf-syntax-ns#">
   <cc:Work>
    <dc:type rdf:resource="http://purl.org/dc/dcmitype/StillImage"/>
    <dc:date>2025-02-01T16:20:26.598466</dc:date>
    <dc:format>image/svg+xml</dc:format>
    <dc:creator>
     <cc:Agent>
      <dc:title>Matplotlib v3.9.0, https://matplotlib.org/</dc:title>
     </cc:Agent>
    </dc:creator>
   </cc:Work>
  </rdf:RDF>
 </metadata>
 <defs>
  <style type="text/css">*{stroke-linejoin: round; stroke-linecap: butt}</style>
 </defs>
 <g id="figure_1">
  <g id="patch_1">
   <path d="M 0 533.154688 
L 822.903125 533.154688 
L 822.903125 0 
L 0 0 
z
" style="fill: #ffffff"/>
  </g>
  <g id="axes_1">
   <g id="patch_2">
    <path d="M 71.313125 467.935313 
L 815.703125 467.935313 
L 815.703125 35.995312 
L 71.313125 35.995312 
z
" style="fill: #ffffff"/>
   </g>
   <g id="matplotlib.axis_1">
    <g id="xtick_1">
     <g id="line2d_1">
      <path d="M 99.903157 467.935313 
L 99.903157 35.995312 
" clip-path="url(#p77cf499943)" style="fill: none; stroke-dasharray: 3.7,1.6; stroke-dashoffset: 0; stroke: #cccccc; stroke-opacity: 0.7"/>
     </g>
     <g id="text_1">
      <!-- 0 -->
      <g style="fill: #262626" transform="translate(93.540657 492.632187) scale(0.2 -0.2)">
       <defs>
        <path id="DejaVuSans-30" d="M 2034 4250 
Q 1547 4250 1301 3770 
Q 1056 3291 1056 2328 
Q 1056 1369 1301 889 
Q 1547 409 2034 409 
Q 2525 409 2770 889 
Q 3016 1369 3016 2328 
Q 3016 3291 2770 3770 
Q 2525 4250 2034 4250 
z
M 2034 4750 
Q 2819 4750 3233 4129 
Q 3647 3509 3647 2328 
Q 3647 1150 3233 529 
Q 2819 -91 2034 -91 
Q 1250 -91 836 529 
Q 422 1150 422 2328 
Q 422 3509 836 4129 
Q 1250 4750 2034 4750 
z
" transform="scale(0.015625)"/>
       </defs>
       <use xlink:href="#DejaVuSans-30"/>
      </g>
     </g>
    </g>
    <g id="xtick_2">
     <g id="line2d_2">
      <path d="M 204.820704 467.935313 
L 204.820704 35.995312 
" clip-path="url(#p77cf499943)" style="fill: none; stroke-dasharray: 3.7,1.6; stroke-dashoffset: 0; stroke: #cccccc; stroke-opacity: 0.7"/>
     </g>
     <g id="text_2">
      <!-- 20 -->
      <g style="fill: #262626" transform="translate(192.095704 492.632187) scale(0.2 -0.2)">
       <defs>
        <path id="DejaVuSans-32" d="M 1228 531 
L 3431 531 
L 3431 0 
L 469 0 
L 469 531 
Q 828 903 1448 1529 
Q 2069 2156 2228 2338 
Q 2531 2678 2651 2914 
Q 2772 3150 2772 3378 
Q 2772 3750 2511 3984 
Q 2250 4219 1831 4219 
Q 1534 4219 1204 4116 
Q 875 4013 500 3803 
L 500 4441 
Q 881 4594 1212 4672 
Q 1544 4750 1819 4750 
Q 2544 4750 2975 4387 
Q 3406 4025 3406 3419 
Q 3406 3131 3298 2873 
Q 3191 2616 2906 2266 
Q 2828 2175 2409 1742 
Q 1991 1309 1228 531 
z
" transform="scale(0.015625)"/>
       </defs>
       <use xlink:href="#DejaVuSans-32"/>
       <use xlink:href="#DejaVuSans-30" x="63.623047"/>
      </g>
     </g>
    </g>
    <g id="xtick_3">
     <g id="line2d_3">
      <path d="M 309.738252 467.935313 
L 309.738252 35.995312 
" clip-path="url(#p77cf499943)" style="fill: none; stroke-dasharray: 3.7,1.6; stroke-dashoffset: 0; stroke: #cccccc; stroke-opacity: 0.7"/>
     </g>
     <g id="text_3">
      <!-- 40 -->
      <g style="fill: #262626" transform="translate(297.013252 492.632187) scale(0.2 -0.2)">
       <defs>
        <path id="DejaVuSans-34" d="M 2419 4116 
L 825 1625 
L 2419 1625 
L 2419 4116 
z
M 2253 4666 
L 3047 4666 
L 3047 1625 
L 3713 1625 
L 3713 1100 
L 3047 1100 
L 3047 0 
L 2419 0 
L 2419 1100 
L 313 1100 
L 313 1709 
L 2253 4666 
z
" transform="scale(0.015625)"/>
       </defs>
       <use xlink:href="#DejaVuSans-34"/>
       <use xlink:href="#DejaVuSans-30" x="63.623047"/>
      </g>
     </g>
    </g>
    <g id="xtick_4">
     <g id="line2d_4">
      <path d="M 414.655799 467.935313 
L 414.655799 35.995312 
" clip-path="url(#p77cf499943)" style="fill: none; stroke-dasharray: 3.7,1.6; stroke-dashoffset: 0; stroke: #cccccc; stroke-opacity: 0.7"/>
     </g>
     <g id="text_4">
      <!-- 60 -->
      <g style="fill: #262626" transform="translate(401.930799 492.632187) scale(0.2 -0.2)">
       <defs>
        <path id="DejaVuSans-36" d="M 2113 2584 
Q 1688 2584 1439 2293 
Q 1191 2003 1191 1497 
Q 1191 994 1439 701 
Q 1688 409 2113 409 
Q 2538 409 2786 701 
Q 3034 994 3034 1497 
Q 3034 2003 2786 2293 
Q 2538 2584 2113 2584 
z
M 3366 4563 
L 3366 3988 
Q 3128 4100 2886 4159 
Q 2644 4219 2406 4219 
Q 1781 4219 1451 3797 
Q 1122 3375 1075 2522 
Q 1259 2794 1537 2939 
Q 1816 3084 2150 3084 
Q 2853 3084 3261 2657 
Q 3669 2231 3669 1497 
Q 3669 778 3244 343 
Q 2819 -91 2113 -91 
Q 1303 -91 875 529 
Q 447 1150 447 2328 
Q 447 3434 972 4092 
Q 1497 4750 2381 4750 
Q 2619 4750 2861 4703 
Q 3103 4656 3366 4563 
z
" transform="scale(0.015625)"/>
       </defs>
       <use xlink:href="#DejaVuSans-36"/>
       <use xlink:href="#DejaVuSans-30" x="63.623047"/>
      </g>
     </g>
    </g>
    <g id="xtick_5">
     <g id="line2d_5">
      <path d="M 519.573347 467.935313 
L 519.573347 35.995312 
" clip-path="url(#p77cf499943)" style="fill: none; stroke-dasharray: 3.7,1.6; stroke-dashoffset: 0; stroke: #cccccc; stroke-opacity: 0.7"/>
     </g>
     <g id="text_5">
      <!-- 80 -->
      <g style="fill: #262626" transform="translate(506.848347 492.632187) scale(0.2 -0.2)">
       <defs>
        <path id="DejaVuSans-38" d="M 2034 2216 
Q 1584 2216 1326 1975 
Q 1069 1734 1069 1313 
Q 1069 891 1326 650 
Q 1584 409 2034 409 
Q 2484 409 2743 651 
Q 3003 894 3003 1313 
Q 3003 1734 2745 1975 
Q 2488 2216 2034 2216 
z
M 1403 2484 
Q 997 2584 770 2862 
Q 544 3141 544 3541 
Q 544 4100 942 4425 
Q 1341 4750 2034 4750 
Q 2731 4750 3128 4425 
Q 3525 4100 3525 3541 
Q 3525 3141 3298 2862 
Q 3072 2584 2669 2484 
Q 3125 2378 3379 2068 
Q 3634 1759 3634 1313 
Q 3634 634 3220 271 
Q 2806 -91 2034 -91 
Q 1263 -91 848 271 
Q 434 634 434 1313 
Q 434 1759 690 2068 
Q 947 2378 1403 2484 
z
M 1172 3481 
Q 1172 3119 1398 2916 
Q 1625 2713 2034 2713 
Q 2441 2713 2670 2916 
Q 2900 3119 2900 3481 
Q 2900 3844 2670 4047 
Q 2441 4250 2034 4250 
Q 1625 4250 1398 4047 
Q 1172 3844 1172 3481 
z
" transform="scale(0.015625)"/>
       </defs>
       <use xlink:href="#DejaVuSans-38"/>
       <use xlink:href="#DejaVuSans-30" x="63.623047"/>
      </g>
     </g>
    </g>
    <g id="xtick_6">
     <g id="line2d_6">
      <path d="M 624.490895 467.935313 
L 624.490895 35.995312 
" clip-path="url(#p77cf499943)" style="fill: none; stroke-dasharray: 3.7,1.6; stroke-dashoffset: 0; stroke: #cccccc; stroke-opacity: 0.7"/>
     </g>
     <g id="text_6">
      <!-- 100 -->
      <g style="fill: #262626" transform="translate(605.403395 492.632187) scale(0.2 -0.2)">
       <defs>
        <path id="DejaVuSans-31" d="M 794 531 
L 1825 531 
L 1825 4091 
L 703 3866 
L 703 4441 
L 1819 4666 
L 2450 4666 
L 2450 531 
L 3481 531 
L 3481 0 
L 794 0 
L 794 531 
z
" transform="scale(0.015625)"/>
       </defs>
       <use xlink:href="#DejaVuSans-31"/>
       <use xlink:href="#DejaVuSans-30" x="63.623047"/>
       <use xlink:href="#DejaVuSans-30" x="127.246094"/>
      </g>
     </g>
    </g>
    <g id="xtick_7">
     <g id="line2d_7">
      <path d="M 729.408442 467.935313 
L 729.408442 35.995312 
" clip-path="url(#p77cf499943)" style="fill: none; stroke-dasharray: 3.7,1.6; stroke-dashoffset: 0; stroke: #cccccc; stroke-opacity: 0.7"/>
     </g>
     <g id="text_7">
      <!-- 120 -->
      <g style="fill: #262626" transform="translate(710.320942 492.632187) scale(0.2 -0.2)">
       <use xlink:href="#DejaVuSans-31"/>
       <use xlink:href="#DejaVuSans-32" x="63.623047"/>
       <use xlink:href="#DejaVuSans-30" x="127.246094"/>
      </g>
     </g>
    </g>
    <g id="text_8">
     <!-- Epoch -->
     <g style="fill: #262626" transform="translate(403.699688 520.5475) scale(0.26 -0.26)">
      <defs>
       <path id="DejaVuSans-45" d="M 628 4666 
L 3578 4666 
L 3578 4134 
L 1259 4134 
L 1259 2753 
L 3481 2753 
L 3481 2222 
L 1259 2222 
L 1259 531 
L 3634 531 
L 3634 0 
L 628 0 
L 628 4666 
z
" transform="scale(0.015625)"/>
       <path id="DejaVuSans-70" d="M 1159 525 
L 1159 -1331 
L 581 -1331 
L 581 3500 
L 1159 3500 
L 1159 2969 
Q 1341 3281 1617 3432 
Q 1894 3584 2278 3584 
Q 2916 3584 3314 3078 
Q 3713 2572 3713 1747 
Q 3713 922 3314 415 
Q 2916 -91 2278 -91 
Q 1894 -91 1617 61 
Q 1341 213 1159 525 
z
M 3116 1747 
Q 3116 2381 2855 2742 
Q 2594 3103 2138 3103 
Q 1681 3103 1420 2742 
Q 1159 2381 1159 1747 
Q 1159 1113 1420 752 
Q 1681 391 2138 391 
Q 2594 391 2855 752 
Q 3116 1113 3116 1747 
z
" transform="scale(0.015625)"/>
       <path id="DejaVuSans-6f" d="M 1959 3097 
Q 1497 3097 1228 2736 
Q 959 2375 959 1747 
Q 959 1119 1226 758 
Q 1494 397 1959 397 
Q 2419 397 2687 759 
Q 2956 1122 2956 1747 
Q 2956 2369 2687 2733 
Q 2419 3097 1959 3097 
z
M 1959 3584 
Q 2709 3584 3137 3096 
Q 3566 2609 3566 1747 
Q 3566 888 3137 398 
Q 2709 -91 1959 -91 
Q 1206 -91 779 398 
Q 353 888 353 1747 
Q 353 2609 779 3096 
Q 1206 3584 1959 3584 
z
" transform="scale(0.015625)"/>
       <path id="DejaVuSans-63" d="M 3122 3366 
L 3122 2828 
Q 2878 2963 2633 3030 
Q 2388 3097 2138 3097 
Q 1578 3097 1268 2742 
Q 959 2388 959 1747 
Q 959 1106 1268 751 
Q 1578 397 2138 397 
Q 2388 397 2633 464 
Q 2878 531 3122 666 
L 3122 134 
Q 2881 22 2623 -34 
Q 2366 -91 2075 -91 
Q 1284 -91 818 406 
Q 353 903 353 1747 
Q 353 2603 823 3093 
Q 1294 3584 2113 3584 
Q 2378 3584 2631 3529 
Q 2884 3475 3122 3366 
z
" transform="scale(0.015625)"/>
       <path id="DejaVuSans-68" d="M 3513 2113 
L 3513 0 
L 2938 0 
L 2938 2094 
Q 2938 2591 2744 2837 
Q 2550 3084 2163 3084 
Q 1697 3084 1428 2787 
Q 1159 2491 1159 1978 
L 1159 0 
L 581 0 
L 581 4863 
L 1159 4863 
L 1159 2956 
Q 1366 3272 1645 3428 
Q 1925 3584 2291 3584 
Q 2894 3584 3203 3211 
Q 3513 2838 3513 2113 
z
" transform="scale(0.015625)"/>
      </defs>
      <use xlink:href="#DejaVuSans-45"/>
      <use xlink:href="#DejaVuSans-70" x="63.183594"/>
      <use xlink:href="#DejaVuSans-6f" x="126.660156"/>
      <use xlink:href="#DejaVuSans-63" x="187.841797"/>
      <use xlink:href="#DejaVuSans-68" x="242.822266"/>
     </g>
    </g>
   </g>
   <g id="matplotlib.axis_2">
    <g id="ytick_1">
     <g id="line2d_8">
      <path d="M 71.313125 448.301676 
L 815.703125 448.301676 
" clip-path="url(#p77cf499943)" style="fill: none; stroke-dasharray: 3.7,1.6; stroke-dashoffset: 0; stroke: #cccccc; stroke-opacity: 0.7"/>
     </g>
     <g id="text_9">
      <!-- 0 -->
      <g style="fill: #262626" transform="translate(49.088125 455.900114) scale(0.2 -0.2)">
       <use xlink:href="#DejaVuSans-30"/>
      </g>
     </g>
    </g>
    <g id="ytick_2">
     <g id="line2d_9">
      <path d="M 71.313125 367.687081 
L 815.703125 367.687081 
" clip-path="url(#p77cf499943)" style="fill: none; stroke-dasharray: 3.7,1.6; stroke-dashoffset: 0; stroke: #cccccc; stroke-opacity: 0.7"/>
     </g>
     <g id="text_10">
      <!-- 5 -->
      <g style="fill: #262626" transform="translate(49.088125 375.285518) scale(0.2 -0.2)">
       <defs>
        <path id="DejaVuSans-35" d="M 691 4666 
L 3169 4666 
L 3169 4134 
L 1269 4134 
L 1269 2991 
Q 1406 3038 1543 3061 
Q 1681 3084 1819 3084 
Q 2600 3084 3056 2656 
Q 3513 2228 3513 1497 
Q 3513 744 3044 326 
Q 2575 -91 1722 -91 
Q 1428 -91 1123 -41 
Q 819 9 494 109 
L 494 744 
Q 775 591 1075 516 
Q 1375 441 1709 441 
Q 2250 441 2565 725 
Q 2881 1009 2881 1497 
Q 2881 1984 2565 2268 
Q 2250 2553 1709 2553 
Q 1456 2553 1204 2497 
Q 953 2441 691 2322 
L 691 4666 
z
" transform="scale(0.015625)"/>
       </defs>
       <use xlink:href="#DejaVuSans-35"/>
      </g>
     </g>
    </g>
    <g id="ytick_3">
     <g id="line2d_10">
      <path d="M 71.313125 287.072485 
L 815.703125 287.072485 
" clip-path="url(#p77cf499943)" style="fill: none; stroke-dasharray: 3.7,1.6; stroke-dashoffset: 0; stroke: #cccccc; stroke-opacity: 0.7"/>
     </g>
     <g id="text_11">
      <!-- 10 -->
      <g style="fill: #262626" transform="translate(36.363125 294.670923) scale(0.2 -0.2)">
       <use xlink:href="#DejaVuSans-31"/>
       <use xlink:href="#DejaVuSans-30" x="63.623047"/>
      </g>
     </g>
    </g>
    <g id="ytick_4">
     <g id="line2d_11">
      <path d="M 71.313125 206.45789 
L 815.703125 206.45789 
" clip-path="url(#p77cf499943)" style="fill: none; stroke-dasharray: 3.7,1.6; stroke-dashoffset: 0; stroke: #cccccc; stroke-opacity: 0.7"/>
     </g>
     <g id="text_12">
      <!-- 15 -->
      <g style="fill: #262626" transform="translate(36.363125 214.056327) scale(0.2 -0.2)">
       <use xlink:href="#DejaVuSans-31"/>
       <use xlink:href="#DejaVuSans-35" x="63.623047"/>
      </g>
     </g>
    </g>
    <g id="ytick_5">
     <g id="line2d_12">
      <path d="M 71.313125 125.843294 
L 815.703125 125.843294 
" clip-path="url(#p77cf499943)" style="fill: none; stroke-dasharray: 3.7,1.6; stroke-dashoffset: 0; stroke: #cccccc; stroke-opacity: 0.7"/>
     </g>
     <g id="text_13">
      <!-- 20 -->
      <g style="fill: #262626" transform="translate(36.363125 133.441732) scale(0.2 -0.2)">
       <use xlink:href="#DejaVuSans-32"/>
       <use xlink:href="#DejaVuSans-30" x="63.623047"/>
      </g>
     </g>
    </g>
    <g id="ytick_6">
     <g id="line2d_13">
      <path d="M 71.313125 45.228699 
L 815.703125 45.228699 
" clip-path="url(#p77cf499943)" style="fill: none; stroke-dasharray: 3.7,1.6; stroke-dashoffset: 0; stroke: #cccccc; stroke-opacity: 0.7"/>
     </g>
     <g id="text_14">
      <!-- 25 -->
      <g style="fill: #262626" transform="translate(36.363125 52.827136) scale(0.2 -0.2)">
       <use xlink:href="#DejaVuSans-32"/>
       <use xlink:href="#DejaVuSans-35" x="63.623047"/>
      </g>
     </g>
    </g>
    <g id="text_15">
     <!-- Huber Loss -->
     <g style="fill: #262626" transform="translate(26.955938 324.222969) rotate(-90) scale(0.26 -0.26)">
      <defs>
       <path id="DejaVuSans-48" d="M 628 4666 
L 1259 4666 
L 1259 2753 
L 3553 2753 
L 3553 4666 
L 4184 4666 
L 4184 0 
L 3553 0 
L 3553 2222 
L 1259 2222 
L 1259 0 
L 628 0 
L 628 4666 
z
" transform="scale(0.015625)"/>
       <path id="DejaVuSans-75" d="M 544 1381 
L 544 3500 
L 1119 3500 
L 1119 1403 
Q 1119 906 1312 657 
Q 1506 409 1894 409 
Q 2359 409 2629 706 
Q 2900 1003 2900 1516 
L 2900 3500 
L 3475 3500 
L 3475 0 
L 2900 0 
L 2900 538 
Q 2691 219 2414 64 
Q 2138 -91 1772 -91 
Q 1169 -91 856 284 
Q 544 659 544 1381 
z
M 1991 3584 
L 1991 3584 
z
" transform="scale(0.015625)"/>
       <path id="DejaVuSans-62" d="M 3116 1747 
Q 3116 2381 2855 2742 
Q 2594 3103 2138 3103 
Q 1681 3103 1420 2742 
Q 1159 2381 1159 1747 
Q 1159 1113 1420 752 
Q 1681 391 2138 391 
Q 2594 391 2855 752 
Q 3116 1113 3116 1747 
z
M 1159 2969 
Q 1341 3281 1617 3432 
Q 1894 3584 2278 3584 
Q 2916 3584 3314 3078 
Q 3713 2572 3713 1747 
Q 3713 922 3314 415 
Q 2916 -91 2278 -91 
Q 1894 -91 1617 61 
Q 1341 213 1159 525 
L 1159 0 
L 581 0 
L 581 4863 
L 1159 4863 
L 1159 2969 
z
" transform="scale(0.015625)"/>
       <path id="DejaVuSans-65" d="M 3597 1894 
L 3597 1613 
L 953 1613 
Q 991 1019 1311 708 
Q 1631 397 2203 397 
Q 2534 397 2845 478 
Q 3156 559 3463 722 
L 3463 178 
Q 3153 47 2828 -22 
Q 2503 -91 2169 -91 
Q 1331 -91 842 396 
Q 353 884 353 1716 
Q 353 2575 817 3079 
Q 1281 3584 2069 3584 
Q 2775 3584 3186 3129 
Q 3597 2675 3597 1894 
z
M 3022 2063 
Q 3016 2534 2758 2815 
Q 2500 3097 2075 3097 
Q 1594 3097 1305 2825 
Q 1016 2553 972 2059 
L 3022 2063 
z
" transform="scale(0.015625)"/>
       <path id="DejaVuSans-72" d="M 2631 2963 
Q 2534 3019 2420 3045 
Q 2306 3072 2169 3072 
Q 1681 3072 1420 2755 
Q 1159 2438 1159 1844 
L 1159 0 
L 581 0 
L 581 3500 
L 1159 3500 
L 1159 2956 
Q 1341 3275 1631 3429 
Q 1922 3584 2338 3584 
Q 2397 3584 2469 3576 
Q 2541 3569 2628 3553 
L 2631 2963 
z
" transform="scale(0.015625)"/>
       <path id="DejaVuSans-20" transform="scale(0.015625)"/>
       <path id="DejaVuSans-4c" d="M 628 4666 
L 1259 4666 
L 1259 531 
L 3531 531 
L 3531 0 
L 628 0 
L 628 4666 
z
" transform="scale(0.015625)"/>
       <path id="DejaVuSans-73" d="M 2834 3397 
L 2834 2853 
Q 2591 2978 2328 3040 
Q 2066 3103 1784 3103 
Q 1356 3103 1142 2972 
Q 928 2841 928 2578 
Q 928 2378 1081 2264 
Q 1234 2150 1697 2047 
L 1894 2003 
Q 2506 1872 2764 1633 
Q 3022 1394 3022 966 
Q 3022 478 2636 193 
Q 2250 -91 1575 -91 
Q 1294 -91 989 -36 
Q 684 19 347 128 
L 347 722 
Q 666 556 975 473 
Q 1284 391 1588 391 
Q 1994 391 2212 530 
Q 2431 669 2431 922 
Q 2431 1156 2273 1281 
Q 2116 1406 1581 1522 
L 1381 1569 
Q 847 1681 609 1914 
Q 372 2147 372 2553 
Q 372 3047 722 3315 
Q 1072 3584 1716 3584 
Q 2034 3584 2315 3537 
Q 2597 3491 2834 3397 
z
" transform="scale(0.015625)"/>
      </defs>
      <use xlink:href="#DejaVuSans-48"/>
      <use xlink:href="#DejaVuSans-75" x="75.195312"/>
      <use xlink:href="#DejaVuSans-62" x="138.574219"/>
      <use xlink:href="#DejaVuSans-65" x="202.050781"/>
      <use xlink:href="#DejaVuSans-72" x="263.574219"/>
      <use xlink:href="#DejaVuSans-20" x="304.6875"/>
      <use xlink:href="#DejaVuSans-4c" x="336.474609"/>
      <use xlink:href="#DejaVuSans-6f" x="390.4375"/>
      <use xlink:href="#DejaVuSans-73" x="451.619141"/>
      <use xlink:href="#DejaVuSans-73" x="503.71875"/>
     </g>
    </g>
   </g>
   <g id="line2d_14">
    <path d="M 105.149034 55.628949 
L 110.394911 148.175956 
L 115.640789 164.408349 
L 120.886666 176.576961 
L 126.132544 183.533356 
L 131.378421 191.646086 
L 136.624298 197.667513 
L 147.116053 205.79556 
L 152.36193 208.258497 
L 157.607808 211.652372 
L 162.853685 213.217423 
L 168.099563 216.378967 
L 173.34544 217.859857 
L 178.591317 221.185531 
L 183.837195 222.667066 
L 189.083072 224.851399 
L 194.32895 226.328581 
L 199.574827 227.137146 
L 204.820704 228.268007 
L 210.066582 229.003696 
L 215.312459 229.576543 
L 220.558336 230.950216 
L 225.804214 230.860411 
L 231.050091 232.474477 
L 236.295969 232.611844 
L 246.787723 233.760602 
L 252.033601 234.280405 
L 257.279478 234.611731 
L 262.525355 243.892406 
L 267.771233 245.326539 
L 278.262988 245.984516 
L 304.492374 246.98462 
L 314.984129 247.281121 
L 320.230007 248.025677 
L 325.475884 248.301218 
L 362.197026 249.193783 
L 367.442903 250.325773 
L 372.68878 250.501996 
L 414.655799 250.71627 
L 419.901677 251.093546 
L 451.376941 251.240587 
L 472.360451 251.45341 
L 477.606328 251.771515 
L 493.34396 251.826333 
L 561.540366 251.911623 
L 582.523876 251.916138 
L 613.99914 251.964023 
L 629.736772 251.990142 
L 661.212036 252.00046 
L 781.867216 252.069789 
L 781.867216 252.069789 
" clip-path="url(#p77cf499943)" style="fill: none; stroke-dasharray: 4,6.6; stroke-dashoffset: 0; stroke: #1f77b4; stroke-width: 4"/>
   </g>
   <g id="line2d_15">
    <path d="M 105.149034 142.198061 
L 110.394911 218.579261 
L 115.640789 227.669524 
L 120.886666 236.063277 
L 126.132544 241.170696 
L 131.378421 245.465196 
L 136.624298 247.251616 
L 141.870176 248.680429 
L 147.116053 250.644523 
L 152.36193 251.670263 
L 157.607808 253.477965 
L 162.853685 255.515418 
L 168.099563 256.434586 
L 173.34544 256.951325 
L 178.591317 257.799713 
L 183.837195 258.840609 
L 189.083072 259.373149 
L 194.32895 260.600748 
L 199.574827 260.983829 
L 204.820704 261.921538 
L 210.066582 261.858981 
L 215.312459 263.726821 
L 220.558336 263.962054 
L 225.804214 263.808241 
L 231.050091 265.211903 
L 236.295969 264.79577 
L 241.541846 265.426338 
L 252.033601 265.892612 
L 257.279478 266.84064 
L 262.525355 270.918771 
L 267.771233 271.483073 
L 273.01711 271.822783 
L 288.754742 272.391277 
L 294.00062 272.11348 
L 299.246497 272.412721 
L 309.738252 272.752108 
L 314.984129 272.702611 
L 320.230007 361.684357 
L 325.475884 361.500555 
L 362.197026 361.595358 
L 367.442903 361.891214 
L 372.68878 361.718215 
L 377.934658 361.8264 
L 383.180535 361.708702 
L 388.426413 361.781739 
L 393.67229 361.724019 
L 414.655799 361.936035 
L 419.901677 405.253321 
L 440.885186 405.375855 
L 467.114573 405.219785 
L 472.360451 405.350703 
L 477.606328 448.301676 
L 781.867216 448.301676 
L 781.867216 448.301676 
" clip-path="url(#p77cf499943)" style="fill: none; stroke-dasharray: 25.6,6.4,4,6.4; stroke-dashoffset: 0; stroke: #ff7f0e; stroke-width: 4"/>
   </g>
   <g id="line2d_16">
    <path d="M 105.149034 138.429973 
L 110.394911 136.775923 
L 115.640789 170.098611 
L 120.886666 186.346322 
L 126.132544 192.020299 
L 131.378421 190.094094 
L 136.624298 202.98195 
L 141.870176 202.072133 
L 147.116053 209.419992 
L 152.36193 205.844251 
L 157.607808 213.580028 
L 162.853685 210.664682 
L 168.099563 219.274643 
L 173.34544 217.959496 
L 178.591317 222.747197 
L 183.837195 225.390872 
L 189.083072 224.890256 
L 194.32895 228.352814 
L 199.574827 222.641431 
L 204.820704 224.311927 
L 210.066582 227.979568 
L 215.312459 228.119676 
L 220.558336 226.814042 
L 225.804214 228.947427 
L 231.050091 230.633562 
L 236.295969 231.614642 
L 241.541846 229.019819 
L 246.787723 230.750131 
L 252.033601 228.037288 
L 257.279478 232.908506 
L 262.525355 239.5526 
L 273.01711 240.232342 
L 278.262988 239.835879 
L 283.508865 239.973569 
L 288.754742 239.247231 
L 299.246497 239.4923 
L 304.492374 239.96454 
L 309.738252 239.797507 
L 314.984129 239.894889 
L 320.230007 239.861515 
L 325.475884 240.299574 
L 330.721761 240.034514 
L 335.967639 240.138023 
L 341.213516 240.735861 
L 346.459393 239.911173 
L 351.705271 240.585273 
L 356.951148 239.367992 
L 362.197026 239.264483 
L 367.442903 240.878226 
L 372.68878 241.123939 
L 388.426413 241.00076 
L 398.918167 241.00076 
L 414.655799 240.933205 
L 419.901677 241.197943 
L 425.147554 240.863232 
L 430.393432 241.205199 
L 451.376941 241.042196 
L 456.622818 241.203264 
L 461.868696 241.036714 
L 467.114573 240.727799 
L 472.360451 241.106043 
L 477.606328 241.242765 
L 482.852205 241.217936 
L 488.098083 241.340148 
L 598.261508 241.314512 
L 608.753262 241.321284 
L 613.99914 241.364332 
L 619.245017 241.295648 
L 624.490895 241.415603 
L 640.228527 241.23293 
L 661.212036 241.337245 
L 713.67081 241.322574 
L 724.162565 241.300485 
L 734.65432 241.320478 
L 750.391952 241.319833 
L 781.867216 241.321929 
L 781.867216 241.321929 
" clip-path="url(#p77cf499943)" style="fill: none; stroke: #e94e77; stroke-width: 4; stroke-linecap: round"/>
   </g>
   <g id="line2d_17">
    <path d="M 105.149034 155.594917 
L 110.394911 171.760078 
L 115.640789 185.608053 
L 120.886666 188.687692 
L 126.132544 188.057608 
L 131.378421 199.910372 
L 136.624298 199.48247 
L 141.870176 211.035509 
L 147.116053 206.758905 
L 152.36193 213.81252 
L 157.607808 218.346608 
L 162.853685 216.874746 
L 168.099563 216.040224 
L 173.34544 221.525886 
L 178.591317 223.506103 
L 183.837195 223.644599 
L 189.083072 221.183113 
L 194.32895 225.759603 
L 199.574827 227.106996 
L 204.820704 231.025671 
L 210.066582 228.461966 
L 215.312459 227.413009 
L 220.558336 231.327009 
L 225.804214 227.253392 
L 231.050091 227.762392 
L 236.295969 228.7891 
L 241.541846 230.157775 
L 246.787723 228.281228 
L 252.033601 227.839299 
L 257.279478 231.228659 
L 262.525355 238.400617 
L 267.771233 237.502248 
L 273.01711 237.93273 
L 278.262988 238.151679 
L 283.508865 237.638487 
L 288.754742 237.342309 
L 294.00062 237.203168 
L 299.246497 237.201233 
L 304.492374 236.339463 
L 309.738252 236.981155 
L 314.984129 236.746889 
L 320.230007 236.225152 
L 325.475884 237.48677 
L 330.721761 236.836371 
L 335.967639 236.373644 
L 341.213516 236.499725 
L 346.459393 236.536485 
L 351.705271 236.031193 
L 356.951148 236.704486 
L 362.197026 235.950578 
L 367.442903 236.575664 
L 372.68878 236.77317 
L 377.934658 236.784294 
L 383.180535 236.864909 
L 388.426413 236.637898 
L 393.67229 236.393636 
L 398.918167 236.43217 
L 404.164045 236.557122 
L 409.409922 236.483924 
L 414.655799 236.671273 
L 419.901677 236.574858 
" clip-path="url(#p77cf499943)" style="fill: none; stroke-dasharray: 14.8,6.4; stroke-dashoffset: 0; stroke: #2ca02c; stroke-width: 4"/>
   </g>
   <g id="patch_3">
    <path d="M 71.313125 467.935313 
L 71.313125 35.995312 
" style="fill: none; stroke: #4b4b4b; stroke-width: 2; stroke-linejoin: miter; stroke-linecap: square"/>
   </g>
   <g id="patch_4">
    <path d="M 815.703125 467.935313 
L 815.703125 35.995312 
" style="fill: none; stroke: #cccccc; stroke-width: 1.25; stroke-linejoin: miter; stroke-linecap: square"/>
   </g>
   <g id="patch_5">
    <path d="M 71.313125 467.935313 
L 815.703125 467.935313 
" style="fill: none; stroke: #4b4b4b; stroke-width: 2; stroke-linejoin: miter; stroke-linecap: square"/>
   </g>
   <g id="patch_6">
    <path d="M 71.313125 35.995312 
L 815.703125 35.995312 
" style="fill: none; stroke: #cccccc; stroke-width: 1.25; stroke-linejoin: miter; stroke-linecap: square"/>
   </g>
   <g id="text_16">
    <!-- PEMS08 -->
    <g style="fill: #262626" transform="translate(383.433125 29.995312) scale(0.3 -0.3)">
     <defs>
      <path id="DejaVuSans-50" d="M 1259 4147 
L 1259 2394 
L 2053 2394 
Q 2494 2394 2734 2622 
Q 2975 2850 2975 3272 
Q 2975 3691 2734 3919 
Q 2494 4147 2053 4147 
L 1259 4147 
z
M 628 4666 
L 2053 4666 
Q 2838 4666 3239 4311 
Q 3641 3956 3641 3272 
Q 3641 2581 3239 2228 
Q 2838 1875 2053 1875 
L 1259 1875 
L 1259 0 
L 628 0 
L 628 4666 
z
" transform="scale(0.015625)"/>
      <path id="DejaVuSans-4d" d="M 628 4666 
L 1569 4666 
L 2759 1491 
L 3956 4666 
L 4897 4666 
L 4897 0 
L 4281 0 
L 4281 4097 
L 3078 897 
L 2444 897 
L 1241 4097 
L 1241 0 
L 628 0 
L 628 4666 
z
" transform="scale(0.015625)"/>
      <path id="DejaVuSans-53" d="M 3425 4513 
L 3425 3897 
Q 3066 4069 2747 4153 
Q 2428 4238 2131 4238 
Q 1616 4238 1336 4038 
Q 1056 3838 1056 3469 
Q 1056 3159 1242 3001 
Q 1428 2844 1947 2747 
L 2328 2669 
Q 3034 2534 3370 2195 
Q 3706 1856 3706 1288 
Q 3706 609 3251 259 
Q 2797 -91 1919 -91 
Q 1588 -91 1214 -16 
Q 841 59 441 206 
L 441 856 
Q 825 641 1194 531 
Q 1563 422 1919 422 
Q 2459 422 2753 634 
Q 3047 847 3047 1241 
Q 3047 1584 2836 1778 
Q 2625 1972 2144 2069 
L 1759 2144 
Q 1053 2284 737 2584 
Q 422 2884 422 3419 
Q 422 4038 858 4394 
Q 1294 4750 2059 4750 
Q 2388 4750 2728 4690 
Q 3069 4631 3425 4513 
z
" transform="scale(0.015625)"/>
     </defs>
     <use xlink:href="#DejaVuSans-50"/>
     <use xlink:href="#DejaVuSans-45" x="60.302734"/>
     <use xlink:href="#DejaVuSans-4d" x="123.486328"/>
     <use xlink:href="#DejaVuSans-53" x="209.765625"/>
     <use xlink:href="#DejaVuSans-30" x="273.242188"/>
     <use xlink:href="#DejaVuSans-38" x="336.865234"/>
    </g>
   </g>
   <g id="legend_1">
    <g id="patch_7">
     <path d="M 86.713125 456.935313 
L 385.187813 456.935313 
Q 389.587813 456.935313 389.587813 452.535312 
L 389.587813 325.567812 
Q 389.587813 321.167812 385.187813 321.167812 
L 86.713125 321.167812 
Q 82.313125 321.167812 82.313125 325.567812 
L 82.313125 452.535312 
Q 82.313125 456.935313 86.713125 456.935313 
z
" style="fill: #ffffff; opacity: 0.8; stroke: #cccccc; stroke-linejoin: miter"/>
    </g>
    <g id="line2d_18">
     <path d="M 91.113125 338.984375 
L 113.113125 338.984375 
L 135.113125 338.984375 
" style="fill: none; stroke-dasharray: 4,6.6; stroke-dashoffset: 0; stroke: #1f77b4; stroke-width: 4"/>
    </g>
    <g id="text_17">
     <!-- Pred. Train Loss (M1) -->
     <g style="fill: #262626" transform="translate(152.713125 346.684375) scale(0.22 -0.22)">
      <defs>
       <path id="DejaVuSans-64" d="M 2906 2969 
L 2906 4863 
L 3481 4863 
L 3481 0 
L 2906 0 
L 2906 525 
Q 2725 213 2448 61 
Q 2172 -91 1784 -91 
Q 1150 -91 751 415 
Q 353 922 353 1747 
Q 353 2572 751 3078 
Q 1150 3584 1784 3584 
Q 2172 3584 2448 3432 
Q 2725 3281 2906 2969 
z
M 947 1747 
Q 947 1113 1208 752 
Q 1469 391 1925 391 
Q 2381 391 2643 752 
Q 2906 1113 2906 1747 
Q 2906 2381 2643 2742 
Q 2381 3103 1925 3103 
Q 1469 3103 1208 2742 
Q 947 2381 947 1747 
z
" transform="scale(0.015625)"/>
       <path id="DejaVuSans-2e" d="M 684 794 
L 1344 794 
L 1344 0 
L 684 0 
L 684 794 
z
" transform="scale(0.015625)"/>
       <path id="DejaVuSans-54" d="M -19 4666 
L 3928 4666 
L 3928 4134 
L 2272 4134 
L 2272 0 
L 1638 0 
L 1638 4134 
L -19 4134 
L -19 4666 
z
" transform="scale(0.015625)"/>
       <path id="DejaVuSans-61" d="M 2194 1759 
Q 1497 1759 1228 1600 
Q 959 1441 959 1056 
Q 959 750 1161 570 
Q 1363 391 1709 391 
Q 2188 391 2477 730 
Q 2766 1069 2766 1631 
L 2766 1759 
L 2194 1759 
z
M 3341 1997 
L 3341 0 
L 2766 0 
L 2766 531 
Q 2569 213 2275 61 
Q 1981 -91 1556 -91 
Q 1019 -91 701 211 
Q 384 513 384 1019 
Q 384 1609 779 1909 
Q 1175 2209 1959 2209 
L 2766 2209 
L 2766 2266 
Q 2766 2663 2505 2880 
Q 2244 3097 1772 3097 
Q 1472 3097 1187 3025 
Q 903 2953 641 2809 
L 641 3341 
Q 956 3463 1253 3523 
Q 1550 3584 1831 3584 
Q 2591 3584 2966 3190 
Q 3341 2797 3341 1997 
z
" transform="scale(0.015625)"/>
       <path id="DejaVuSans-69" d="M 603 3500 
L 1178 3500 
L 1178 0 
L 603 0 
L 603 3500 
z
M 603 4863 
L 1178 4863 
L 1178 4134 
L 603 4134 
L 603 4863 
z
" transform="scale(0.015625)"/>
       <path id="DejaVuSans-6e" d="M 3513 2113 
L 3513 0 
L 2938 0 
L 2938 2094 
Q 2938 2591 2744 2837 
Q 2550 3084 2163 3084 
Q 1697 3084 1428 2787 
Q 1159 2491 1159 1978 
L 1159 0 
L 581 0 
L 581 3500 
L 1159 3500 
L 1159 2956 
Q 1366 3272 1645 3428 
Q 1925 3584 2291 3584 
Q 2894 3584 3203 3211 
Q 3513 2838 3513 2113 
z
" transform="scale(0.015625)"/>
       <path id="DejaVuSans-28" d="M 1984 4856 
Q 1566 4138 1362 3434 
Q 1159 2731 1159 2009 
Q 1159 1288 1364 580 
Q 1569 -128 1984 -844 
L 1484 -844 
Q 1016 -109 783 600 
Q 550 1309 550 2009 
Q 550 2706 781 3412 
Q 1013 4119 1484 4856 
L 1984 4856 
z
" transform="scale(0.015625)"/>
       <path id="DejaVuSans-29" d="M 513 4856 
L 1013 4856 
Q 1481 4119 1714 3412 
Q 1947 2706 1947 2009 
Q 1947 1309 1714 600 
Q 1481 -109 1013 -844 
L 513 -844 
Q 928 -128 1133 580 
Q 1338 1288 1338 2009 
Q 1338 2731 1133 3434 
Q 928 4138 513 4856 
z
" transform="scale(0.015625)"/>
      </defs>
      <use xlink:href="#DejaVuSans-50"/>
      <use xlink:href="#DejaVuSans-72" x="58.552734"/>
      <use xlink:href="#DejaVuSans-65" x="97.416016"/>
      <use xlink:href="#DejaVuSans-64" x="158.939453"/>
      <use xlink:href="#DejaVuSans-2e" x="222.416016"/>
      <use xlink:href="#DejaVuSans-20" x="254.203125"/>
      <use xlink:href="#DejaVuSans-54" x="285.990234"/>
      <use xlink:href="#DejaVuSans-72" x="332.324219"/>
      <use xlink:href="#DejaVuSans-61" x="373.4375"/>
      <use xlink:href="#DejaVuSans-69" x="434.716797"/>
      <use xlink:href="#DejaVuSans-6e" x="462.5"/>
      <use xlink:href="#DejaVuSans-20" x="525.878906"/>
      <use xlink:href="#DejaVuSans-4c" x="557.666016"/>
      <use xlink:href="#DejaVuSans-6f" x="611.628906"/>
      <use xlink:href="#DejaVuSans-73" x="672.810547"/>
      <use xlink:href="#DejaVuSans-73" x="724.910156"/>
      <use xlink:href="#DejaVuSans-20" x="777.009766"/>
      <use xlink:href="#DejaVuSans-28" x="808.796875"/>
      <use xlink:href="#DejaVuSans-4d" x="847.810547"/>
      <use xlink:href="#DejaVuSans-31" x="934.089844"/>
      <use xlink:href="#DejaVuSans-29" x="997.712891"/>
     </g>
    </g>
    <g id="line2d_19">
     <path d="M 91.113125 371.27625 
L 113.113125 371.27625 
L 135.113125 371.27625 
" style="fill: none; stroke-dasharray: 25.6,6.4,4,6.4; stroke-dashoffset: 0; stroke: #ff7f0e; stroke-width: 4"/>
    </g>
    <g id="text_18">
     <!-- Rec. Train Loss (M1) -->
     <g style="fill: #262626" transform="translate(152.713125 378.97625) scale(0.22 -0.22)">
      <defs>
       <path id="DejaVuSans-52" d="M 2841 2188 
Q 3044 2119 3236 1894 
Q 3428 1669 3622 1275 
L 4263 0 
L 3584 0 
L 2988 1197 
Q 2756 1666 2539 1819 
Q 2322 1972 1947 1972 
L 1259 1972 
L 1259 0 
L 628 0 
L 628 4666 
L 2053 4666 
Q 2853 4666 3247 4331 
Q 3641 3997 3641 3322 
Q 3641 2881 3436 2590 
Q 3231 2300 2841 2188 
z
M 1259 4147 
L 1259 2491 
L 2053 2491 
Q 2509 2491 2742 2702 
Q 2975 2913 2975 3322 
Q 2975 3731 2742 3939 
Q 2509 4147 2053 4147 
L 1259 4147 
z
" transform="scale(0.015625)"/>
      </defs>
      <use xlink:href="#DejaVuSans-52"/>
      <use xlink:href="#DejaVuSans-65" x="64.982422"/>
      <use xlink:href="#DejaVuSans-63" x="126.505859"/>
      <use xlink:href="#DejaVuSans-2e" x="181.486328"/>
      <use xlink:href="#DejaVuSans-20" x="213.273438"/>
      <use xlink:href="#DejaVuSans-54" x="245.060547"/>
      <use xlink:href="#DejaVuSans-72" x="291.394531"/>
      <use xlink:href="#DejaVuSans-61" x="332.507812"/>
      <use xlink:href="#DejaVuSans-69" x="393.787109"/>
      <use xlink:href="#DejaVuSans-6e" x="421.570312"/>
      <use xlink:href="#DejaVuSans-20" x="484.949219"/>
      <use xlink:href="#DejaVuSans-4c" x="516.736328"/>
      <use xlink:href="#DejaVuSans-6f" x="570.699219"/>
      <use xlink:href="#DejaVuSans-73" x="631.880859"/>
      <use xlink:href="#DejaVuSans-73" x="683.980469"/>
      <use xlink:href="#DejaVuSans-20" x="736.080078"/>
      <use xlink:href="#DejaVuSans-28" x="767.867188"/>
      <use xlink:href="#DejaVuSans-4d" x="806.880859"/>
      <use xlink:href="#DejaVuSans-31" x="893.160156"/>
      <use xlink:href="#DejaVuSans-29" x="956.783203"/>
     </g>
    </g>
    <g id="line2d_20">
     <path d="M 91.113125 403.568125 
L 113.113125 403.568125 
L 135.113125 403.568125 
" style="fill: none; stroke: #e94e77; stroke-width: 4; stroke-linecap: round"/>
    </g>
    <g id="text_19">
     <!-- Pred. Val Loss (M1) -->
     <g style="fill: #262626" transform="translate(152.713125 411.268125) scale(0.22 -0.22)">
      <defs>
       <path id="DejaVuSans-56" d="M 1831 0 
L 50 4666 
L 709 4666 
L 2188 738 
L 3669 4666 
L 4325 4666 
L 2547 0 
L 1831 0 
z
" transform="scale(0.015625)"/>
       <path id="DejaVuSans-6c" d="M 603 4863 
L 1178 4863 
L 1178 0 
L 603 0 
L 603 4863 
z
" transform="scale(0.015625)"/>
      </defs>
      <use xlink:href="#DejaVuSans-50"/>
      <use xlink:href="#DejaVuSans-72" x="58.552734"/>
      <use xlink:href="#DejaVuSans-65" x="97.416016"/>
      <use xlink:href="#DejaVuSans-64" x="158.939453"/>
      <use xlink:href="#DejaVuSans-2e" x="222.416016"/>
      <use xlink:href="#DejaVuSans-20" x="254.203125"/>
      <use xlink:href="#DejaVuSans-56" x="285.990234"/>
      <use xlink:href="#DejaVuSans-61" x="346.648438"/>
      <use xlink:href="#DejaVuSans-6c" x="407.927734"/>
      <use xlink:href="#DejaVuSans-20" x="435.710938"/>
      <use xlink:href="#DejaVuSans-4c" x="467.498047"/>
      <use xlink:href="#DejaVuSans-6f" x="521.460938"/>
      <use xlink:href="#DejaVuSans-73" x="582.642578"/>
      <use xlink:href="#DejaVuSans-73" x="634.742188"/>
      <use xlink:href="#DejaVuSans-20" x="686.841797"/>
      <use xlink:href="#DejaVuSans-28" x="718.628906"/>
      <use xlink:href="#DejaVuSans-4d" x="757.642578"/>
      <use xlink:href="#DejaVuSans-31" x="843.921875"/>
      <use xlink:href="#DejaVuSans-29" x="907.544922"/>
     </g>
    </g>
    <g id="line2d_21">
     <path d="M 91.113125 435.86 
L 113.113125 435.86 
L 135.113125 435.86 
" style="fill: none; stroke-dasharray: 14.8,6.4; stroke-dashoffset: 0; stroke: #2ca02c; stroke-width: 4"/>
    </g>
    <g id="text_20">
     <!-- Pred. Val Loss (M4) -->
     <g style="fill: #262626" transform="translate(152.713125 443.56) scale(0.22 -0.22)">
      <use xlink:href="#DejaVuSans-50"/>
      <use xlink:href="#DejaVuSans-72" x="58.552734"/>
      <use xlink:href="#DejaVuSans-65" x="97.416016"/>
      <use xlink:href="#DejaVuSans-64" x="158.939453"/>
      <use xlink:href="#DejaVuSans-2e" x="222.416016"/>
      <use xlink:href="#DejaVuSans-20" x="254.203125"/>
      <use xlink:href="#DejaVuSans-56" x="285.990234"/>
      <use xlink:href="#DejaVuSans-61" x="346.648438"/>
      <use xlink:href="#DejaVuSans-6c" x="407.927734"/>
      <use xlink:href="#DejaVuSans-20" x="435.710938"/>
      <use xlink:href="#DejaVuSans-4c" x="467.498047"/>
      <use xlink:href="#DejaVuSans-6f" x="521.460938"/>
      <use xlink:href="#DejaVuSans-73" x="582.642578"/>
      <use xlink:href="#DejaVuSans-73" x="634.742188"/>
      <use xlink:href="#DejaVuSans-20" x="686.841797"/>
      <use xlink:href="#DejaVuSans-28" x="718.628906"/>
      <use xlink:href="#DejaVuSans-4d" x="757.642578"/>
      <use xlink:href="#DejaVuSans-34" x="843.921875"/>
      <use xlink:href="#DejaVuSans-29" x="907.544922"/>
     </g>
    </g>
   </g>
  </g>
  <g id="axes_2">
   <g id="patch_8">
    <path d="M 411.783125 173.995312 
L 757.383125 173.995312 
L 757.383125 47.275312 
L 411.783125 47.275312 
z
" style="fill: #ffffff"/>
   </g>
   <g id="matplotlib.axis_3">
    <g id="xtick_8">
     <g id="line2d_22">
      <path d="M 411.783125 173.995312 
L 411.783125 47.275312 
" clip-path="url(#pbfc8d95259)" style="fill: none; stroke: #cccccc; stroke-linecap: round"/>
     </g>
     <g id="text_21">
      <!-- 20 -->
      <g style="fill: #262626" transform="translate(404.784375 191.853594) scale(0.11 -0.11)">
       <use xlink:href="#DejaVuSans-32"/>
       <use xlink:href="#DejaVuSans-30" x="63.623047"/>
      </g>
     </g>
    </g>
    <g id="xtick_9">
     <g id="line2d_23">
      <path d="M 469.383125 173.995312 
L 469.383125 47.275312 
" clip-path="url(#pbfc8d95259)" style="fill: none; stroke: #cccccc; stroke-linecap: round"/>
     </g>
     <g id="text_22">
      <!-- 30 -->
      <g style="fill: #262626" transform="translate(462.384375 191.853594) scale(0.11 -0.11)">
       <defs>
        <path id="DejaVuSans-33" d="M 2597 2516 
Q 3050 2419 3304 2112 
Q 3559 1806 3559 1356 
Q 3559 666 3084 287 
Q 2609 -91 1734 -91 
Q 1441 -91 1130 -33 
Q 819 25 488 141 
L 488 750 
Q 750 597 1062 519 
Q 1375 441 1716 441 
Q 2309 441 2620 675 
Q 2931 909 2931 1356 
Q 2931 1769 2642 2001 
Q 2353 2234 1838 2234 
L 1294 2234 
L 1294 2753 
L 1863 2753 
Q 2328 2753 2575 2939 
Q 2822 3125 2822 3475 
Q 2822 3834 2567 4026 
Q 2313 4219 1838 4219 
Q 1578 4219 1281 4162 
Q 984 4106 628 3988 
L 628 4550 
Q 988 4650 1302 4700 
Q 1616 4750 1894 4750 
Q 2613 4750 3031 4423 
Q 3450 4097 3450 3541 
Q 3450 3153 3228 2886 
Q 3006 2619 2597 2516 
z
" transform="scale(0.015625)"/>
       </defs>
       <use xlink:href="#DejaVuSans-33"/>
       <use xlink:href="#DejaVuSans-30" x="63.623047"/>
      </g>
     </g>
    </g>
    <g id="xtick_10">
     <g id="line2d_24">
      <path d="M 526.983125 173.995312 
L 526.983125 47.275312 
" clip-path="url(#pbfc8d95259)" style="fill: none; stroke: #cccccc; stroke-linecap: round"/>
     </g>
     <g id="text_23">
      <!-- 40 -->
      <g style="fill: #262626" transform="translate(519.984375 191.853594) scale(0.11 -0.11)">
       <use xlink:href="#DejaVuSans-34"/>
       <use xlink:href="#DejaVuSans-30" x="63.623047"/>
      </g>
     </g>
    </g>
    <g id="xtick_11">
     <g id="line2d_25">
      <path d="M 584.583125 173.995312 
L 584.583125 47.275312 
" clip-path="url(#pbfc8d95259)" style="fill: none; stroke: #cccccc; stroke-linecap: round"/>
     </g>
     <g id="text_24">
      <!-- 50 -->
      <g style="fill: #262626" transform="translate(577.584375 191.853594) scale(0.11 -0.11)">
       <use xlink:href="#DejaVuSans-35"/>
       <use xlink:href="#DejaVuSans-30" x="63.623047"/>
      </g>
     </g>
    </g>
    <g id="xtick_12">
     <g id="line2d_26">
      <path d="M 642.183125 173.995312 
L 642.183125 47.275312 
" clip-path="url(#pbfc8d95259)" style="fill: none; stroke: #cccccc; stroke-linecap: round"/>
     </g>
     <g id="text_25">
      <!-- 60 -->
      <g style="fill: #262626" transform="translate(635.184375 191.853594) scale(0.11 -0.11)">
       <use xlink:href="#DejaVuSans-36"/>
       <use xlink:href="#DejaVuSans-30" x="63.623047"/>
      </g>
     </g>
    </g>
    <g id="xtick_13">
     <g id="line2d_27">
      <path d="M 699.783125 173.995312 
L 699.783125 47.275312 
" clip-path="url(#pbfc8d95259)" style="fill: none; stroke: #cccccc; stroke-linecap: round"/>
     </g>
     <g id="text_26">
      <!-- 70 -->
      <g style="fill: #262626" transform="translate(692.784375 191.853594) scale(0.11 -0.11)">
       <defs>
        <path id="DejaVuSans-37" d="M 525 4666 
L 3525 4666 
L 3525 4397 
L 1831 0 
L 1172 0 
L 2766 4134 
L 525 4134 
L 525 4666 
z
" transform="scale(0.015625)"/>
       </defs>
       <use xlink:href="#DejaVuSans-37"/>
       <use xlink:href="#DejaVuSans-30" x="63.623047"/>
      </g>
     </g>
    </g>
    <g id="xtick_14">
     <g id="line2d_28">
      <path d="M 757.383125 173.995312 
L 757.383125 47.275312 
" clip-path="url(#pbfc8d95259)" style="fill: none; stroke: #cccccc; stroke-linecap: round"/>
     </g>
     <g id="text_27">
      <!-- 80 -->
      <g style="fill: #262626" transform="translate(750.384375 191.853594) scale(0.11 -0.11)">
       <use xlink:href="#DejaVuSans-38"/>
       <use xlink:href="#DejaVuSans-30" x="63.623047"/>
      </g>
     </g>
    </g>
   </g>
   <g id="matplotlib.axis_4">
    <g id="ytick_7">
     <g id="line2d_29">
      <path d="M 411.783125 159.915312 
L 757.383125 159.915312 
" clip-path="url(#pbfc8d95259)" style="fill: none; stroke: #cccccc; stroke-linecap: round"/>
     </g>
     <g id="text_28">
      <!-- 12.6 -->
      <g style="fill: #262626" transform="translate(377.790937 164.094453) scale(0.11 -0.11)">
       <use xlink:href="#DejaVuSans-31"/>
       <use xlink:href="#DejaVuSans-32" x="63.623047"/>
       <use xlink:href="#DejaVuSans-2e" x="127.246094"/>
       <use xlink:href="#DejaVuSans-36" x="159.033203"/>
      </g>
     </g>
    </g>
    <g id="ytick_8">
     <g id="line2d_30">
      <path d="M 411.783125 131.755312 
L 757.383125 131.755312 
" clip-path="url(#pbfc8d95259)" style="fill: none; stroke: #cccccc; stroke-linecap: round"/>
     </g>
     <g id="text_29">
      <!-- 12.8 -->
      <g style="fill: #262626" transform="translate(377.790937 135.934453) scale(0.11 -0.11)">
       <use xlink:href="#DejaVuSans-31"/>
       <use xlink:href="#DejaVuSans-32" x="63.623047"/>
       <use xlink:href="#DejaVuSans-2e" x="127.246094"/>
       <use xlink:href="#DejaVuSans-38" x="159.033203"/>
      </g>
     </g>
    </g>
    <g id="ytick_9">
     <g id="line2d_31">
      <path d="M 411.783125 103.595312 
L 757.383125 103.595312 
" clip-path="url(#pbfc8d95259)" style="fill: none; stroke: #cccccc; stroke-linecap: round"/>
     </g>
     <g id="text_30">
      <!-- 13.0 -->
      <g style="fill: #262626" transform="translate(377.790937 107.774453) scale(0.11 -0.11)">
       <use xlink:href="#DejaVuSans-31"/>
       <use xlink:href="#DejaVuSans-33" x="63.623047"/>
       <use xlink:href="#DejaVuSans-2e" x="127.246094"/>
       <use xlink:href="#DejaVuSans-30" x="159.033203"/>
      </g>
     </g>
    </g>
    <g id="ytick_10">
     <g id="line2d_32">
      <path d="M 411.783125 75.435312 
L 757.383125 75.435312 
" clip-path="url(#pbfc8d95259)" style="fill: none; stroke: #cccccc; stroke-linecap: round"/>
     </g>
     <g id="text_31">
      <!-- 13.2 -->
      <g style="fill: #262626" transform="translate(377.790937 79.614453) scale(0.11 -0.11)">
       <use xlink:href="#DejaVuSans-31"/>
       <use xlink:href="#DejaVuSans-33" x="63.623047"/>
       <use xlink:href="#DejaVuSans-2e" x="127.246094"/>
       <use xlink:href="#DejaVuSans-32" x="159.033203"/>
      </g>
     </g>
    </g>
    <g id="ytick_11">
     <g id="line2d_33">
      <path d="M 411.783125 47.275312 
L 757.383125 47.275312 
" clip-path="url(#pbfc8d95259)" style="fill: none; stroke: #cccccc; stroke-linecap: round"/>
     </g>
     <g id="text_32">
      <!-- 13.4 -->
      <g style="fill: #262626" transform="translate(377.790937 51.454453) scale(0.11 -0.11)">
       <use xlink:href="#DejaVuSans-31"/>
       <use xlink:href="#DejaVuSans-33" x="63.623047"/>
       <use xlink:href="#DejaVuSans-2e" x="127.246094"/>
       <use xlink:href="#DejaVuSans-34" x="159.033203"/>
      </g>
     </g>
    </g>
   </g>
   <g id="line2d_34">
    <path d="M 415.575325 -1 
L 417.543125 9.942192 
L 423.303125 11.165744 
L 429.063125 -0.23624 
L 434.823125 18.394416 
L 440.583125 33.11928 
L 446.343125 41.68696 
L 452.103125 19.026608 
L 457.863125 34.137264 
L 463.623125 10.446256 
L 469.383125 52.98616 
L 475.143125 111.008432 
L 480.903125 114.401712 
L 486.663125 116.94456 
L 492.423125 113.482288 
L 498.183125 114.68472 
L 503.943125 108.34168 
L 509.703125 109.77784 
L 515.463125 110.48184 
L 521.223125 114.605872 
L 526.983125 113.147184 
L 532.743125 113.997616 
L 538.503125 113.70616 
L 544.263125 117.531696 
L 550.023125 115.216944 
L 555.783125 116.12088 
L 561.543125 121.341744 
L 567.303125 114.139824 
L 573.063125 120.026672 
L 578.823125 109.396272 
L 584.583125 108.492336 
L 590.343125 122.585008 
L 596.103125 124.7308 
L 601.863125 124.261936 
L 607.623125 123.488944 
L 613.383125 123.655088 
L 619.143125 124.016944 
L 624.903125 123.655088 
L 630.663125 123.255216 
L 636.423125 121.990832 
L 642.183125 123.065136 
L 647.943125 125.377072 
L 653.703125 122.454064 
L 659.463125 125.440432 
L 665.223125 124.994096 
L 670.983125 125.403824 
L 676.743125 124.185904 
L 682.503125 124.016944 
L 688.263125 125.423536 
L 694.023125 123.969072 
L 699.783125 121.271344 
L 705.543125 124.574512 
L 711.303125 125.768496 
L 717.063125 125.551664 
L 722.823125 126.618928 
L 728.583125 126.649904 
L 734.343125 126.95544 
L 740.103125 126.043056 
L 745.863125 126.42744 
L 751.623125 126.252848 
L 757.383125 126.355632 
" clip-path="url(#pbfc8d95259)" style="fill: none; stroke: #e94e77; stroke-width: 5; stroke-linecap: round"/>
   </g>
   <g id="line2d_35">
    <path d="M 411.783125 36.543536 
L 417.543125 14.154928 
L 423.303125 4.99448 
L 429.063125 39.175088 
L 434.823125 3.60056 
L 440.583125 8.045616 
L 446.343125 17.01176 
L 452.103125 28.964272 
L 457.863125 12.57656 
L 463.623125 8.717232 
L 469.383125 38.316208 
L 475.143125 100.948272 
L 480.903125 93.102896 
L 486.663125 96.862256 
L 492.423125 98.77432 
L 498.183125 94.292656 
L 503.943125 91.70616 
L 509.703125 90.491056 
L 515.463125 90.47416 
L 521.223125 82.9484 
L 526.983125 88.55224 
L 532.743125 86.506416 
L 538.503125 81.950128 
L 544.263125 92.967728 
L 550.023125 87.287856 
L 555.783125 83.246896 
L 561.543125 84.347952 
L 567.303125 84.668976 
L 573.063125 80.256304 
L 578.823125 86.136112 
L 584.583125 79.552304 
L 590.343125 85.01112 
L 596.103125 86.73592 
L 601.863125 86.833072 
L 607.623125 87.537072 
L 613.383125 85.554608 
L 619.143125 83.421488 
L 624.903125 83.758 
L 630.663125 84.8492 
L 636.423125 84.209968 
L 642.183125 85.846064 
L 647.943125 85.00408 
" clip-path="url(#pbfc8d95259)" style="fill: none; stroke-dasharray: 18.5,8; stroke-dashoffset: 0; stroke: #2ca02c; stroke-width: 5"/>
   </g>
   <g id="patch_9">
    <path d="M 411.783125 173.995312 
L 411.783125 47.275312 
" style="fill: none; stroke: #4b4b4b; stroke-width: 2; stroke-linejoin: miter; stroke-linecap: square"/>
   </g>
   <g id="patch_10">
    <path d="M 757.383125 173.995312 
L 757.383125 47.275312 
" style="fill: none; stroke: #4b4b4b; stroke-width: 2; stroke-linejoin: miter; stroke-linecap: square"/>
   </g>
   <g id="patch_11">
    <path d="M 411.783125 173.995312 
L 757.383125 173.995312 
" style="fill: none; stroke: #4b4b4b; stroke-width: 2; stroke-linejoin: miter; stroke-linecap: square"/>
   </g>
   <g id="patch_12">
    <path d="M 411.783125 47.275312 
L 757.383125 47.275312 
" style="fill: none; stroke: #4b4b4b; stroke-width: 2; stroke-linejoin: miter; stroke-linecap: square"/>
   </g>
  </g>
 </g>
 <defs>
  <clipPath id="p77cf499943">
   <rect x="71.313125" y="35.995312" width="744.39" height="431.94"/>
  </clipPath>
  <clipPath id="pbfc8d95259">
   <rect x="411.783125" y="47.275312" width="345.6" height="126.72"/>
  </clipPath>
 </defs>
</svg>
