<?xml version="1.0" encoding="utf-8" standalone="no"?>
<!DOCTYPE svg PUBLIC "-//W3C//DTD SVG 1.1//EN"
  "http://www.w3.org/Graphics/SVG/1.1/DTD/svg11.dtd">
<svg xmlns:xlink="http://www.w3.org/1999/xlink" width="822.813125pt" height="533.154688pt" viewBox="0 0 822.813125 533.154688" xmlns="http://www.w3.org/2000/svg" version="1.1">
 <metadata>
  <rdf:RDF xmlns:dc="http://purl.org/dc/elements/1.1/" xmlns:cc="http://creativecommons.org/ns#" xmlns:rdf="http://www.w3.org/1999/02/22-rdf-syntax-ns#">
   <cc:Work>
    <dc:type rdf:resource="http://purl.org/dc/dcmitype/StillImage"/>
    <dc:date>2025-02-01T16:20:14.142229</dc:date>
    <dc:format>image/svg+xml</dc:format>
    <dc:creator>
     <cc:Agent>
      <dc:title>Matplotlib v3.9.0, https://matplotlib.org/</dc:title>
     </cc:Agent>
    </dc:creator>
   </cc:Work>
  </rdf:RDF>
 </metadata>
 <defs>
  <style type="text/css">*{stroke-linejoin: round; stroke-linecap: butt}</style>
 </defs>
 <g id="figure_1">
  <g id="patch_1">
   <path d="M 0 533.154688 
L 822.813125 533.154688 
L 822.813125 0 
L 0 0 
z
" style="fill: #ffffff"/>
  </g>
  <g id="axes_1">
   <g id="patch_2">
    <path d="M 71.313125 467.935313 
L 815.613125 467.935313 
L 815.613125 35.995312 
L 71.313125 35.995312 
z
" style="fill: #ffffff"/>
   </g>
   <g id="matplotlib.axis_1">
    <g id="xtick_1">
     <g id="line2d_1">
      <path d="M 99.598743 467.935313 
L 99.598743 35.995312 
" clip-path="url(#p1e340783a9)" style="fill: none; stroke-dasharray: 3.7,1.6; stroke-dashoffset: 0; stroke: #cccccc; stroke-opacity: 0.7"/>
     </g>
     <g id="text_1">
      <!-- 0 -->
      <g style="fill: #262626" transform="translate(93.236243 492.632187) scale(0.2 -0.2)">
       <defs>
        <path id="DejaVuSans-30" d="M 2034 4250 
Q 1547 4250 1301 3770 
Q 1056 3291 1056 2328 
Q 1056 1369 1301 889 
Q 1547 409 2034 409 
Q 2525 409 2770 889 
Q 3016 1369 3016 2328 
Q 3016 3291 2770 3770 
Q 2525 4250 2034 4250 
z
M 2034 4750 
Q 2819 4750 3233 4129 
Q 3647 3509 3647 2328 
Q 3647 1150 3233 529 
Q 2819 -91 2034 -91 
Q 1250 -91 836 529 
Q 422 1150 422 2328 
Q 422 3509 836 4129 
Q 1250 4750 2034 4750 
z
" transform="scale(0.015625)"/>
       </defs>
       <use xlink:href="#DejaVuSans-30"/>
      </g>
     </g>
    </g>
    <g id="xtick_2">
     <g id="line2d_2">
      <path d="M 210.522738 467.935313 
L 210.522738 35.995312 
" clip-path="url(#p1e340783a9)" style="fill: none; stroke-dasharray: 3.7,1.6; stroke-dashoffset: 0; stroke: #cccccc; stroke-opacity: 0.7"/>
     </g>
     <g id="text_2">
      <!-- 20 -->
      <g style="fill: #262626" transform="translate(197.797738 492.632187) scale(0.2 -0.2)">
       <defs>
        <path id="DejaVuSans-32" d="M 1228 531 
L 3431 531 
L 3431 0 
L 469 0 
L 469 531 
Q 828 903 1448 1529 
Q 2069 2156 2228 2338 
Q 2531 2678 2651 2914 
Q 2772 3150 2772 3378 
Q 2772 3750 2511 3984 
Q 2250 4219 1831 4219 
Q 1534 4219 1204 4116 
Q 875 4013 500 3803 
L 500 4441 
Q 881 4594 1212 4672 
Q 1544 4750 1819 4750 
Q 2544 4750 2975 4387 
Q 3406 4025 3406 3419 
Q 3406 3131 3298 2873 
Q 3191 2616 2906 2266 
Q 2828 2175 2409 1742 
Q 1991 1309 1228 531 
z
" transform="scale(0.015625)"/>
       </defs>
       <use xlink:href="#DejaVuSans-32"/>
       <use xlink:href="#DejaVuSans-30" x="63.623047"/>
      </g>
     </g>
    </g>
    <g id="xtick_3">
     <g id="line2d_3">
      <path d="M 321.446732 467.935313 
L 321.446732 35.995312 
" clip-path="url(#p1e340783a9)" style="fill: none; stroke-dasharray: 3.7,1.6; stroke-dashoffset: 0; stroke: #cccccc; stroke-opacity: 0.7"/>
     </g>
     <g id="text_3">
      <!-- 40 -->
      <g style="fill: #262626" transform="translate(308.721732 492.632187) scale(0.2 -0.2)">
       <defs>
        <path id="DejaVuSans-34" d="M 2419 4116 
L 825 1625 
L 2419 1625 
L 2419 4116 
z
M 2253 4666 
L 3047 4666 
L 3047 1625 
L 3713 1625 
L 3713 1100 
L 3047 1100 
L 3047 0 
L 2419 0 
L 2419 1100 
L 313 1100 
L 313 1709 
L 2253 4666 
z
" transform="scale(0.015625)"/>
       </defs>
       <use xlink:href="#DejaVuSans-34"/>
       <use xlink:href="#DejaVuSans-30" x="63.623047"/>
      </g>
     </g>
    </g>
    <g id="xtick_4">
     <g id="line2d_4">
      <path d="M 432.370726 467.935313 
L 432.370726 35.995312 
" clip-path="url(#p1e340783a9)" style="fill: none; stroke-dasharray: 3.7,1.6; stroke-dashoffset: 0; stroke: #cccccc; stroke-opacity: 0.7"/>
     </g>
     <g id="text_4">
      <!-- 60 -->
      <g style="fill: #262626" transform="translate(419.645726 492.632187) scale(0.2 -0.2)">
       <defs>
        <path id="DejaVuSans-36" d="M 2113 2584 
Q 1688 2584 1439 2293 
Q 1191 2003 1191 1497 
Q 1191 994 1439 701 
Q 1688 409 2113 409 
Q 2538 409 2786 701 
Q 3034 994 3034 1497 
Q 3034 2003 2786 2293 
Q 2538 2584 2113 2584 
z
M 3366 4563 
L 3366 3988 
Q 3128 4100 2886 4159 
Q 2644 4219 2406 4219 
Q 1781 4219 1451 3797 
Q 1122 3375 1075 2522 
Q 1259 2794 1537 2939 
Q 1816 3084 2150 3084 
Q 2853 3084 3261 2657 
Q 3669 2231 3669 1497 
Q 3669 778 3244 343 
Q 2819 -91 2113 -91 
Q 1303 -91 875 529 
Q 447 1150 447 2328 
Q 447 3434 972 4092 
Q 1497 4750 2381 4750 
Q 2619 4750 2861 4703 
Q 3103 4656 3366 4563 
z
" transform="scale(0.015625)"/>
       </defs>
       <use xlink:href="#DejaVuSans-36"/>
       <use xlink:href="#DejaVuSans-30" x="63.623047"/>
      </g>
     </g>
    </g>
    <g id="xtick_5">
     <g id="line2d_5">
      <path d="M 543.29472 467.935313 
L 543.29472 35.995312 
" clip-path="url(#p1e340783a9)" style="fill: none; stroke-dasharray: 3.7,1.6; stroke-dashoffset: 0; stroke: #cccccc; stroke-opacity: 0.7"/>
     </g>
     <g id="text_5">
      <!-- 80 -->
      <g style="fill: #262626" transform="translate(530.56972 492.632187) scale(0.2 -0.2)">
       <defs>
        <path id="DejaVuSans-38" d="M 2034 2216 
Q 1584 2216 1326 1975 
Q 1069 1734 1069 1313 
Q 1069 891 1326 650 
Q 1584 409 2034 409 
Q 2484 409 2743 651 
Q 3003 894 3003 1313 
Q 3003 1734 2745 1975 
Q 2488 2216 2034 2216 
z
M 1403 2484 
Q 997 2584 770 2862 
Q 544 3141 544 3541 
Q 544 4100 942 4425 
Q 1341 4750 2034 4750 
Q 2731 4750 3128 4425 
Q 3525 4100 3525 3541 
Q 3525 3141 3298 2862 
Q 3072 2584 2669 2484 
Q 3125 2378 3379 2068 
Q 3634 1759 3634 1313 
Q 3634 634 3220 271 
Q 2806 -91 2034 -91 
Q 1263 -91 848 271 
Q 434 634 434 1313 
Q 434 1759 690 2068 
Q 947 2378 1403 2484 
z
M 1172 3481 
Q 1172 3119 1398 2916 
Q 1625 2713 2034 2713 
Q 2441 2713 2670 2916 
Q 2900 3119 2900 3481 
Q 2900 3844 2670 4047 
Q 2441 4250 2034 4250 
Q 1625 4250 1398 4047 
Q 1172 3844 1172 3481 
z
" transform="scale(0.015625)"/>
       </defs>
       <use xlink:href="#DejaVuSans-38"/>
       <use xlink:href="#DejaVuSans-30" x="63.623047"/>
      </g>
     </g>
    </g>
    <g id="xtick_6">
     <g id="line2d_6">
      <path d="M 654.218714 467.935313 
L 654.218714 35.995312 
" clip-path="url(#p1e340783a9)" style="fill: none; stroke-dasharray: 3.7,1.6; stroke-dashoffset: 0; stroke: #cccccc; stroke-opacity: 0.7"/>
     </g>
     <g id="text_6">
      <!-- 100 -->
      <g style="fill: #262626" transform="translate(635.131214 492.632187) scale(0.2 -0.2)">
       <defs>
        <path id="DejaVuSans-31" d="M 794 531 
L 1825 531 
L 1825 4091 
L 703 3866 
L 703 4441 
L 1819 4666 
L 2450 4666 
L 2450 531 
L 3481 531 
L 3481 0 
L 794 0 
L 794 531 
z
" transform="scale(0.015625)"/>
       </defs>
       <use xlink:href="#DejaVuSans-31"/>
       <use xlink:href="#DejaVuSans-30" x="63.623047"/>
       <use xlink:href="#DejaVuSans-30" x="127.246094"/>
      </g>
     </g>
    </g>
    <g id="xtick_7">
     <g id="line2d_7">
      <path d="M 765.142708 467.935313 
L 765.142708 35.995312 
" clip-path="url(#p1e340783a9)" style="fill: none; stroke-dasharray: 3.7,1.6; stroke-dashoffset: 0; stroke: #cccccc; stroke-opacity: 0.7"/>
     </g>
     <g id="text_7">
      <!-- 120 -->
      <g style="fill: #262626" transform="translate(746.055208 492.632187) scale(0.2 -0.2)">
       <use xlink:href="#DejaVuSans-31"/>
       <use xlink:href="#DejaVuSans-32" x="63.623047"/>
       <use xlink:href="#DejaVuSans-30" x="127.246094"/>
      </g>
     </g>
    </g>
    <g id="text_8">
     <!-- Epoch -->
     <g style="fill: #262626" transform="translate(403.654688 520.5475) scale(0.26 -0.26)">
      <defs>
       <path id="DejaVuSans-45" d="M 628 4666 
L 3578 4666 
L 3578 4134 
L 1259 4134 
L 1259 2753 
L 3481 2753 
L 3481 2222 
L 1259 2222 
L 1259 531 
L 3634 531 
L 3634 0 
L 628 0 
L 628 4666 
z
" transform="scale(0.015625)"/>
       <path id="DejaVuSans-70" d="M 1159 525 
L 1159 -1331 
L 581 -1331 
L 581 3500 
L 1159 3500 
L 1159 2969 
Q 1341 3281 1617 3432 
Q 1894 3584 2278 3584 
Q 2916 3584 3314 3078 
Q 3713 2572 3713 1747 
Q 3713 922 3314 415 
Q 2916 -91 2278 -91 
Q 1894 -91 1617 61 
Q 1341 213 1159 525 
z
M 3116 1747 
Q 3116 2381 2855 2742 
Q 2594 3103 2138 3103 
Q 1681 3103 1420 2742 
Q 1159 2381 1159 1747 
Q 1159 1113 1420 752 
Q 1681 391 2138 391 
Q 2594 391 2855 752 
Q 3116 1113 3116 1747 
z
" transform="scale(0.015625)"/>
       <path id="DejaVuSans-6f" d="M 1959 3097 
Q 1497 3097 1228 2736 
Q 959 2375 959 1747 
Q 959 1119 1226 758 
Q 1494 397 1959 397 
Q 2419 397 2687 759 
Q 2956 1122 2956 1747 
Q 2956 2369 2687 2733 
Q 2419 3097 1959 3097 
z
M 1959 3584 
Q 2709 3584 3137 3096 
Q 3566 2609 3566 1747 
Q 3566 888 3137 398 
Q 2709 -91 1959 -91 
Q 1206 -91 779 398 
Q 353 888 353 1747 
Q 353 2609 779 3096 
Q 1206 3584 1959 3584 
z
" transform="scale(0.015625)"/>
       <path id="DejaVuSans-63" d="M 3122 3366 
L 3122 2828 
Q 2878 2963 2633 3030 
Q 2388 3097 2138 3097 
Q 1578 3097 1268 2742 
Q 959 2388 959 1747 
Q 959 1106 1268 751 
Q 1578 397 2138 397 
Q 2388 397 2633 464 
Q 2878 531 3122 666 
L 3122 134 
Q 2881 22 2623 -34 
Q 2366 -91 2075 -91 
Q 1284 -91 818 406 
Q 353 903 353 1747 
Q 353 2603 823 3093 
Q 1294 3584 2113 3584 
Q 2378 3584 2631 3529 
Q 2884 3475 3122 3366 
z
" transform="scale(0.015625)"/>
       <path id="DejaVuSans-68" d="M 3513 2113 
L 3513 0 
L 2938 0 
L 2938 2094 
Q 2938 2591 2744 2837 
Q 2550 3084 2163 3084 
Q 1697 3084 1428 2787 
Q 1159 2491 1159 1978 
L 1159 0 
L 581 0 
L 581 4863 
L 1159 4863 
L 1159 2956 
Q 1366 3272 1645 3428 
Q 1925 3584 2291 3584 
Q 2894 3584 3203 3211 
Q 3513 2838 3513 2113 
z
" transform="scale(0.015625)"/>
      </defs>
      <use xlink:href="#DejaVuSans-45"/>
      <use xlink:href="#DejaVuSans-70" x="63.183594"/>
      <use xlink:href="#DejaVuSans-6f" x="126.660156"/>
      <use xlink:href="#DejaVuSans-63" x="187.841797"/>
      <use xlink:href="#DejaVuSans-68" x="242.822266"/>
     </g>
    </g>
   </g>
   <g id="matplotlib.axis_2">
    <g id="ytick_1">
     <g id="line2d_8">
      <path d="M 71.313125 448.301676 
L 815.613125 448.301676 
" clip-path="url(#p1e340783a9)" style="fill: none; stroke-dasharray: 3.7,1.6; stroke-dashoffset: 0; stroke: #cccccc; stroke-opacity: 0.7"/>
     </g>
     <g id="text_9">
      <!-- 0 -->
      <g style="fill: #262626" transform="translate(49.088125 455.900114) scale(0.2 -0.2)">
       <use xlink:href="#DejaVuSans-30"/>
      </g>
     </g>
    </g>
    <g id="ytick_2">
     <g id="line2d_9">
      <path d="M 71.313125 380.513906 
L 815.613125 380.513906 
" clip-path="url(#p1e340783a9)" style="fill: none; stroke-dasharray: 3.7,1.6; stroke-dashoffset: 0; stroke: #cccccc; stroke-opacity: 0.7"/>
     </g>
     <g id="text_10">
      <!-- 5 -->
      <g style="fill: #262626" transform="translate(49.088125 388.112343) scale(0.2 -0.2)">
       <defs>
        <path id="DejaVuSans-35" d="M 691 4666 
L 3169 4666 
L 3169 4134 
L 1269 4134 
L 1269 2991 
Q 1406 3038 1543 3061 
Q 1681 3084 1819 3084 
Q 2600 3084 3056 2656 
Q 3513 2228 3513 1497 
Q 3513 744 3044 326 
Q 2575 -91 1722 -91 
Q 1428 -91 1123 -41 
Q 819 9 494 109 
L 494 744 
Q 775 591 1075 516 
Q 1375 441 1709 441 
Q 2250 441 2565 725 
Q 2881 1009 2881 1497 
Q 2881 1984 2565 2268 
Q 2250 2553 1709 2553 
Q 1456 2553 1204 2497 
Q 953 2441 691 2322 
L 691 4666 
z
" transform="scale(0.015625)"/>
       </defs>
       <use xlink:href="#DejaVuSans-35"/>
      </g>
     </g>
    </g>
    <g id="ytick_3">
     <g id="line2d_10">
      <path d="M 71.313125 312.726135 
L 815.613125 312.726135 
" clip-path="url(#p1e340783a9)" style="fill: none; stroke-dasharray: 3.7,1.6; stroke-dashoffset: 0; stroke: #cccccc; stroke-opacity: 0.7"/>
     </g>
     <g id="text_11">
      <!-- 10 -->
      <g style="fill: #262626" transform="translate(36.363125 320.324572) scale(0.2 -0.2)">
       <use xlink:href="#DejaVuSans-31"/>
       <use xlink:href="#DejaVuSans-30" x="63.623047"/>
      </g>
     </g>
    </g>
    <g id="ytick_4">
     <g id="line2d_11">
      <path d="M 71.313125 244.938364 
L 815.613125 244.938364 
" clip-path="url(#p1e340783a9)" style="fill: none; stroke-dasharray: 3.7,1.6; stroke-dashoffset: 0; stroke: #cccccc; stroke-opacity: 0.7"/>
     </g>
     <g id="text_12">
      <!-- 15 -->
      <g style="fill: #262626" transform="translate(36.363125 252.536802) scale(0.2 -0.2)">
       <use xlink:href="#DejaVuSans-31"/>
       <use xlink:href="#DejaVuSans-35" x="63.623047"/>
      </g>
     </g>
    </g>
    <g id="ytick_5">
     <g id="line2d_12">
      <path d="M 71.313125 177.150594 
L 815.613125 177.150594 
" clip-path="url(#p1e340783a9)" style="fill: none; stroke-dasharray: 3.7,1.6; stroke-dashoffset: 0; stroke: #cccccc; stroke-opacity: 0.7"/>
     </g>
     <g id="text_13">
      <!-- 20 -->
      <g style="fill: #262626" transform="translate(36.363125 184.749031) scale(0.2 -0.2)">
       <use xlink:href="#DejaVuSans-32"/>
       <use xlink:href="#DejaVuSans-30" x="63.623047"/>
      </g>
     </g>
    </g>
    <g id="ytick_6">
     <g id="line2d_13">
      <path d="M 71.313125 109.362823 
L 815.613125 109.362823 
" clip-path="url(#p1e340783a9)" style="fill: none; stroke-dasharray: 3.7,1.6; stroke-dashoffset: 0; stroke: #cccccc; stroke-opacity: 0.7"/>
     </g>
     <g id="text_14">
      <!-- 25 -->
      <g style="fill: #262626" transform="translate(36.363125 116.961261) scale(0.2 -0.2)">
       <use xlink:href="#DejaVuSans-32"/>
       <use xlink:href="#DejaVuSans-35" x="63.623047"/>
      </g>
     </g>
    </g>
    <g id="ytick_7">
     <g id="line2d_14">
      <path d="M 71.313125 41.575053 
L 815.613125 41.575053 
" clip-path="url(#p1e340783a9)" style="fill: none; stroke-dasharray: 3.7,1.6; stroke-dashoffset: 0; stroke: #cccccc; stroke-opacity: 0.7"/>
     </g>
     <g id="text_15">
      <!-- 30 -->
      <g style="fill: #262626" transform="translate(36.363125 49.17349) scale(0.2 -0.2)">
       <defs>
        <path id="DejaVuSans-33" d="M 2597 2516 
Q 3050 2419 3304 2112 
Q 3559 1806 3559 1356 
Q 3559 666 3084 287 
Q 2609 -91 1734 -91 
Q 1441 -91 1130 -33 
Q 819 25 488 141 
L 488 750 
Q 750 597 1062 519 
Q 1375 441 1716 441 
Q 2309 441 2620 675 
Q 2931 909 2931 1356 
Q 2931 1769 2642 2001 
Q 2353 2234 1838 2234 
L 1294 2234 
L 1294 2753 
L 1863 2753 
Q 2328 2753 2575 2939 
Q 2822 3125 2822 3475 
Q 2822 3834 2567 4026 
Q 2313 4219 1838 4219 
Q 1578 4219 1281 4162 
Q 984 4106 628 3988 
L 628 4550 
Q 988 4650 1302 4700 
Q 1616 4750 1894 4750 
Q 2613 4750 3031 4423 
Q 3450 4097 3450 3541 
Q 3450 3153 3228 2886 
Q 3006 2619 2597 2516 
z
" transform="scale(0.015625)"/>
       </defs>
       <use xlink:href="#DejaVuSans-33"/>
       <use xlink:href="#DejaVuSans-30" x="63.623047"/>
      </g>
     </g>
    </g>
    <g id="text_16">
     <!-- Huber Loss -->
     <g style="fill: #262626" transform="translate(26.955938 324.222969) rotate(-90) scale(0.26 -0.26)">
      <defs>
       <path id="DejaVuSans-48" d="M 628 4666 
L 1259 4666 
L 1259 2753 
L 3553 2753 
L 3553 4666 
L 4184 4666 
L 4184 0 
L 3553 0 
L 3553 2222 
L 1259 2222 
L 1259 0 
L 628 0 
L 628 4666 
z
" transform="scale(0.015625)"/>
       <path id="DejaVuSans-75" d="M 544 1381 
L 544 3500 
L 1119 3500 
L 1119 1403 
Q 1119 906 1312 657 
Q 1506 409 1894 409 
Q 2359 409 2629 706 
Q 2900 1003 2900 1516 
L 2900 3500 
L 3475 3500 
L 3475 0 
L 2900 0 
L 2900 538 
Q 2691 219 2414 64 
Q 2138 -91 1772 -91 
Q 1169 -91 856 284 
Q 544 659 544 1381 
z
M 1991 3584 
L 1991 3584 
z
" transform="scale(0.015625)"/>
       <path id="DejaVuSans-62" d="M 3116 1747 
Q 3116 2381 2855 2742 
Q 2594 3103 2138 3103 
Q 1681 3103 1420 2742 
Q 1159 2381 1159 1747 
Q 1159 1113 1420 752 
Q 1681 391 2138 391 
Q 2594 391 2855 752 
Q 3116 1113 3116 1747 
z
M 1159 2969 
Q 1341 3281 1617 3432 
Q 1894 3584 2278 3584 
Q 2916 3584 3314 3078 
Q 3713 2572 3713 1747 
Q 3713 922 3314 415 
Q 2916 -91 2278 -91 
Q 1894 -91 1617 61 
Q 1341 213 1159 525 
L 1159 0 
L 581 0 
L 581 4863 
L 1159 4863 
L 1159 2969 
z
" transform="scale(0.015625)"/>
       <path id="DejaVuSans-65" d="M 3597 1894 
L 3597 1613 
L 953 1613 
Q 991 1019 1311 708 
Q 1631 397 2203 397 
Q 2534 397 2845 478 
Q 3156 559 3463 722 
L 3463 178 
Q 3153 47 2828 -22 
Q 2503 -91 2169 -91 
Q 1331 -91 842 396 
Q 353 884 353 1716 
Q 353 2575 817 3079 
Q 1281 3584 2069 3584 
Q 2775 3584 3186 3129 
Q 3597 2675 3597 1894 
z
M 3022 2063 
Q 3016 2534 2758 2815 
Q 2500 3097 2075 3097 
Q 1594 3097 1305 2825 
Q 1016 2553 972 2059 
L 3022 2063 
z
" transform="scale(0.015625)"/>
       <path id="DejaVuSans-72" d="M 2631 2963 
Q 2534 3019 2420 3045 
Q 2306 3072 2169 3072 
Q 1681 3072 1420 2755 
Q 1159 2438 1159 1844 
L 1159 0 
L 581 0 
L 581 3500 
L 1159 3500 
L 1159 2956 
Q 1341 3275 1631 3429 
Q 1922 3584 2338 3584 
Q 2397 3584 2469 3576 
Q 2541 3569 2628 3553 
L 2631 2963 
z
" transform="scale(0.015625)"/>
       <path id="DejaVuSans-20" transform="scale(0.015625)"/>
       <path id="DejaVuSans-4c" d="M 628 4666 
L 1259 4666 
L 1259 531 
L 3531 531 
L 3531 0 
L 628 0 
L 628 4666 
z
" transform="scale(0.015625)"/>
       <path id="DejaVuSans-73" d="M 2834 3397 
L 2834 2853 
Q 2591 2978 2328 3040 
Q 2066 3103 1784 3103 
Q 1356 3103 1142 2972 
Q 928 2841 928 2578 
Q 928 2378 1081 2264 
Q 1234 2150 1697 2047 
L 1894 2003 
Q 2506 1872 2764 1633 
Q 3022 1394 3022 966 
Q 3022 478 2636 193 
Q 2250 -91 1575 -91 
Q 1294 -91 989 -36 
Q 684 19 347 128 
L 347 722 
Q 666 556 975 473 
Q 1284 391 1588 391 
Q 1994 391 2212 530 
Q 2431 669 2431 922 
Q 2431 1156 2273 1281 
Q 2116 1406 1581 1522 
L 1381 1569 
Q 847 1681 609 1914 
Q 372 2147 372 2553 
Q 372 3047 722 3315 
Q 1072 3584 1716 3584 
Q 2034 3584 2315 3537 
Q 2597 3491 2834 3397 
z
" transform="scale(0.015625)"/>
      </defs>
      <use xlink:href="#DejaVuSans-48"/>
      <use xlink:href="#DejaVuSans-75" x="75.195312"/>
      <use xlink:href="#DejaVuSans-62" x="138.574219"/>
      <use xlink:href="#DejaVuSans-65" x="202.050781"/>
      <use xlink:href="#DejaVuSans-72" x="263.574219"/>
      <use xlink:href="#DejaVuSans-20" x="304.6875"/>
      <use xlink:href="#DejaVuSans-4c" x="336.474609"/>
      <use xlink:href="#DejaVuSans-6f" x="390.4375"/>
      <use xlink:href="#DejaVuSans-73" x="451.619141"/>
      <use xlink:href="#DejaVuSans-73" x="503.71875"/>
     </g>
    </g>
   </g>
   <g id="line2d_15">
    <path d="M 105.144943 55.628949 
L 110.691143 141.077603 
L 116.237343 160.39427 
L 121.783542 170.891613 
L 127.329742 180.146949 
L 132.875942 187.103465 
L 138.422141 191.449068 
L 143.968341 195.268909 
L 149.514541 198.743981 
L 155.06074 199.813401 
L 160.60694 202.146928 
L 166.15314 204.311255 
L 171.69934 206.503919 
L 177.245539 207.847201 
L 182.791739 209.291759 
L 188.337939 211.157956 
L 193.884138 211.497979 
L 199.430338 212.964636 
L 204.976538 214.010872 
L 210.522738 214.482946 
L 216.068937 223.145816 
L 221.615137 224.432022 
L 227.161337 225.007269 
L 232.707536 225.31272 
L 238.253736 225.680266 
L 243.799936 225.944638 
L 249.346135 226.301337 
L 254.892335 226.775716 
L 260.438535 226.944779 
L 265.984735 227.166038 
L 271.530934 227.546734 
L 277.077134 228.897744 
L 282.623334 229.193435 
L 288.169533 229.488989 
L 293.715733 229.766106 
L 299.261933 230.895992 
L 304.808132 230.965136 
L 310.354332 231.045261 
L 315.900532 231.085256 
L 321.446732 231.146942 
L 326.992931 231.189242 
L 332.539131 231.235202 
L 338.085331 231.287534 
L 343.63153 231.275604 
L 349.17773 231.377828 
L 354.72393 231.41145 
L 360.270129 231.478967 
L 365.816329 231.376743 
L 371.362529 231.474222 
L 376.908729 231.52208 
L 382.454928 231.595833 
L 388.001128 231.621457 
L 393.547328 231.63393 
L 399.093527 231.607764 
L 404.639727 231.721376 
L 410.185927 231.710394 
L 415.732126 231.784283 
L 421.278326 231.839327 
L 426.824526 232.385832 
L 432.370726 232.396 
L 437.916925 232.325636 
L 443.463125 232.402236 
L 449.009325 232.446976 
L 454.555524 232.392475 
L 460.101724 232.442367 
L 465.647924 232.37485 
L 471.194124 232.414574 
L 476.740323 232.424064 
L 482.286523 232.466364 
L 487.832723 232.501613 
L 493.378922 232.480192 
L 498.925122 232.510968 
L 504.471322 232.547302 
L 510.017521 232.943454 
L 515.563721 233.003107 
L 521.109921 232.961214 
L 526.656121 232.962977 
L 532.20232 233.003243 
L 537.74852 233.033205 
L 543.29472 233.030493 
L 548.840919 233.018698 
L 554.387119 233.023172 
L 559.933319 232.976806 
L 565.479518 233.110754 
L 571.025718 233.049474 
L 576.571918 233.080656 
L 582.118118 233.067641 
L 587.664317 233.13448 
L 593.210517 233.172712 
L 598.756717 233.212707 
L 604.302916 233.150749 
L 609.849116 233.031036 
L 615.395316 233.205386 
L 620.941515 233.119702 
L 626.487715 233.122549 
L 632.033915 233.149936 
L 637.580115 233.203217 
L 643.126314 233.152783 
L 648.672514 233.199963 
L 654.218714 233.181253 
L 659.764913 233.216096 
L 665.311113 233.183829 
L 670.857313 233.292697 
L 676.403512 233.192506 
L 681.949712 233.207148 
L 687.495912 233.228027 
L 693.042112 233.198743 
L 698.588311 233.265446 
L 704.134511 233.208775 
L 709.680711 233.150478 
L 715.22691 233.224638 
L 720.77311 233.310999 
L 726.31931 233.237246 
L 731.86551 233.245516 
L 737.411709 233.289578 
L 742.957909 233.278732 
L 748.504109 233.293239 
L 754.050308 233.344622 
L 759.596508 233.3453 
L 765.142708 233.326319 
L 770.688907 233.319676 
L 776.235107 233.31466 
L 781.781307 233.334183 
" clip-path="url(#p1e340783a9)" style="fill: none; stroke-dasharray: 4,6.6; stroke-dashoffset: 0; stroke: #1f77b4; stroke-width: 4"/>
   </g>
   <g id="line2d_16">
    <path d="M 105.144943 143.19109 
L 110.691143 212.11539 
L 116.237343 218.172228 
L 121.783542 221.585477 
L 127.329742 224.164802 
L 132.875942 226.375904 
L 138.422141 228.110864 
L 143.968341 229.098396 
L 149.514541 231.749847 
L 155.06074 232.162539 
L 160.60694 234.752438 
L 166.15314 235.703908 
L 171.69934 237.078644 
L 177.245539 238.36512 
L 182.791739 239.959082 
L 188.337939 240.689698 
L 193.884138 241.108627 
L 199.430338 241.919639 
L 204.976538 242.411507 
L 210.522738 242.67249 
L 216.068937 247.241251 
L 221.615137 248.073278 
L 227.161337 248.232579 
L 232.707536 248.632256 
L 238.253736 248.378865 
L 243.799936 248.708991 
L 249.346135 248.81352 
L 254.892335 249.043456 
L 260.438535 249.10216 
L 265.984735 249.264038 
L 271.530934 249.272443 
L 277.077134 349.726598 
L 282.623334 349.694602 
L 288.169533 349.681045 
L 293.715733 349.641728 
L 299.261933 349.848616 
L 304.808132 349.939045 
L 310.354332 349.911388 
L 315.900532 350.030016 
L 321.446732 350.04032 
L 326.992931 349.985954 
L 332.539131 349.993546 
L 338.085331 350.045743 
L 343.63153 349.966703 
L 349.17773 349.962229 
L 354.72393 349.975244 
L 360.270129 350.119225 
L 365.816329 350.086822 
L 371.362529 349.955314 
L 376.908729 349.976735 
L 382.454928 349.980124 
L 388.001128 350.096042 
L 393.547328 350.056047 
L 399.093527 349.923318 
L 404.639727 350.105125 
L 410.185927 350.006562 
L 415.732126 350.119225 
L 421.278326 349.998427 
L 426.824526 399.353483 
L 432.370726 399.231329 
L 437.916925 399.374768 
L 443.463125 399.422084 
L 449.009325 399.406357 
L 454.555524 399.450555 
L 460.101724 399.396053 
L 465.647924 399.332333 
L 471.194124 399.404188 
L 476.740323 399.350636 
L 482.286523 399.370565 
L 487.832723 399.433743 
L 493.378922 399.218178 
L 498.925122 399.277832 
L 504.471322 399.418423 
L 510.017521 448.301676 
L 515.563721 448.301676 
L 521.109921 448.301676 
L 526.656121 448.301676 
L 532.20232 448.301676 
L 537.74852 448.301676 
L 543.29472 448.301676 
L 548.840919 448.301676 
L 554.387119 448.301676 
L 559.933319 448.301676 
L 565.479518 448.301676 
L 571.025718 448.301676 
L 576.571918 448.301676 
L 582.118118 448.301676 
L 587.664317 448.301676 
L 593.210517 448.301676 
L 598.756717 448.301676 
L 604.302916 448.301676 
L 609.849116 448.301676 
L 615.395316 448.301676 
L 620.941515 448.301676 
L 626.487715 448.301676 
L 632.033915 448.301676 
L 637.580115 448.301676 
L 643.126314 448.301676 
L 648.672514 448.301676 
L 654.218714 448.301676 
L 659.764913 448.301676 
L 665.311113 448.301676 
L 670.857313 448.301676 
L 676.403512 448.301676 
L 681.949712 448.301676 
L 687.495912 448.301676 
L 693.042112 448.301676 
L 698.588311 448.301676 
L 704.134511 448.301676 
L 709.680711 448.301676 
L 715.22691 448.301676 
L 720.77311 448.301676 
L 726.31931 448.301676 
L 731.86551 448.301676 
L 737.411709 448.301676 
L 742.957909 448.301676 
L 748.504109 448.301676 
L 754.050308 448.301676 
L 759.596508 448.301676 
L 765.142708 448.301676 
L 770.688907 448.301676 
L 776.235107 448.301676 
L 781.781307 448.301676 
" clip-path="url(#p1e340783a9)" style="fill: none; stroke-dasharray: 25.6,6.4,4,6.4; stroke-dashoffset: 0; stroke: #ff7f0e; stroke-width: 4"/>
   </g>
   <g id="line2d_17">
    <path d="M 105.144943 117.649065 
L 110.691143 149.20156 
L 116.237343 158.240517 
L 121.783542 163.125711 
L 127.329742 168.974304 
L 132.875942 184.563322 
L 138.422141 185.034989 
L 143.968341 193.932541 
L 149.514541 193.03354 
L 155.06074 188.369063 
L 160.60694 191.531227 
L 166.15314 195.914113 
L 171.69934 193.65068 
L 177.245539 196.123171 
L 182.791739 199.135117 
L 188.337939 201.174309 
L 193.884138 203.04742 
L 199.430338 198.993847 
L 204.976538 204.978694 
L 210.522738 205.019367 
L 216.068937 209.689673 
L 221.615137 210.079452 
L 227.161337 211.005162 
L 232.707536 210.910666 
L 238.253736 210.062912 
L 243.799936 210.978861 
L 249.346135 210.466385 
L 254.892335 210.521022 
L 260.438535 210.904294 
L 265.984735 209.844771 
L 271.530934 210.871349 
L 277.077134 212.570246 
L 282.623334 212.111323 
L 288.169533 212.482529 
L 293.715733 212.948095 
L 299.261933 213.10699 
L 304.808132 213.119734 
L 310.354332 213.281069 
L 315.900532 213.238227 
L 321.446732 213.247988 
L 326.992931 213.316047 
L 332.539131 213.364312 
L 338.085331 213.188471 
L 343.63153 213.229686 
L 349.17773 213.18237 
L 354.72393 213.213823 
L 360.270129 213.212061 
L 365.816329 213.351297 
L 371.362529 212.955281 
L 376.908729 213.402273 
L 382.454928 213.396579 
L 388.001128 213.27063 
L 393.547328 213.066995 
L 399.093527 213.161084 
L 404.639727 213.064555 
L 410.185927 213.21057 
L 415.732126 213.202164 
L 421.278326 213.299507 
L 426.824526 213.579606 
L 432.370726 213.594113 
L 437.916925 213.658376 
L 443.463125 213.629362 
L 449.009325 213.655935 
L 454.555524 213.590317 
L 460.101724 213.668815 
L 465.647924 213.648614 
L 471.194124 213.637226 
L 476.740323 213.637768 
L 482.286523 213.620821 
L 487.832723 213.640073 
L 493.378922 213.60889 
L 498.925122 213.631803 
L 504.471322 213.610653 
L 510.017521 213.875161 
L 515.563721 213.947829 
L 521.109921 213.950948 
L 526.656121 213.919901 
L 532.20232 213.919494 
L 537.74852 213.898209 
L 543.29472 213.931289 
L 548.840919 213.934407 
L 554.387119 213.917325 
L 559.933319 213.908784 
L 565.479518 213.924781 
L 571.025718 213.926273 
L 576.571918 213.873805 
L 582.118118 213.943762 
L 587.664317 213.907157 
L 593.210517 213.947423 
L 598.756717 213.940237 
L 604.302916 213.964912 
L 609.849116 213.886549 
L 615.395316 213.977656 
L 620.941515 213.932645 
L 626.487715 213.96803 
L 632.033915 213.942949 
L 637.580115 213.922206 
L 643.126314 213.945389 
L 648.672514 213.936712 
L 654.218714 213.954066 
L 659.764913 213.8997 
L 665.311113 213.926002 
L 670.857313 213.901191 
L 676.403512 213.917867 
L 681.949712 213.943762 
L 687.495912 213.918816 
L 693.042112 213.918274 
L 698.588311 213.931289 
L 704.134511 213.908784 
L 709.680711 213.866348 
L 715.22691 213.906072 
L 720.77311 213.870958 
L 726.31931 213.918681 
L 731.86551 213.863773 
L 737.411709 213.951219 
L 742.957909 213.942 
L 748.504109 213.911495 
L 754.050308 213.852655 
L 759.596508 213.915834 
L 765.142708 213.89387 
L 770.688907 213.865399 
L 776.235107 213.865942 
L 781.781307 213.87272 
" clip-path="url(#p1e340783a9)" style="fill: none; stroke: #e94e77; stroke-width: 4; stroke-linecap: round"/>
   </g>
   <g id="line2d_18">
    <path d="M 105.144943 111.84372 
L 110.691143 148.788326 
L 116.237343 168.290732 
L 121.783542 174.222976 
L 127.329742 179.252964 
L 132.875942 184.756924 
L 138.422141 190.038812 
L 143.968341 191.237706 
L 149.514541 187.00314 
L 155.06074 197.010648 
L 160.60694 199.730022 
L 166.15314 196.218751 
L 171.69934 199.272319 
L 177.245539 201.052697 
L 182.791739 191.818647 
L 188.337939 201.433393 
L 193.884138 199.743444 
L 199.430338 200.933391 
L 204.976538 203.245632 
L 210.522738 202.333751 
L 216.068937 210.373245 
L 221.615137 210.532275 
L 227.161337 210.027663 
L 232.707536 209.547861 
L 238.253736 210.328776 
L 243.799936 209.822266 
L 249.346135 210.439134 
L 254.892335 209.992413 
L 260.438535 209.984821 
L 265.984735 209.785525 
L 271.530934 210.117956 
L 277.077134 210.229128 
L 282.623334 209.38273 
L 288.169533 209.564943 
L 293.715733 210.518039 
L 299.261933 210.488077 
L 304.808132 210.416764 
L 310.354332 210.326335 
L 315.900532 210.394801 
L 321.446732 210.586776 
L 326.992931 210.65714 
L 332.539131 210.314405 
L 338.085331 210.594504 
L 343.63153 210.349112 
L 349.17773 210.281867 
L 354.72393 210.49106 
L 360.270129 210.344503 
L 365.816329 210.349926 
L 371.362529 210.388836 
L 376.908729 210.321861 
L 382.454928 210.327691 
L 388.001128 210.610231 
L 393.547328 210.187235 
L 399.093527 210.536884 
L 404.639727 210.479536 
L 410.185927 210.387887 
L 415.732126 210.377312 
L 421.278326 210.35101 
L 426.824526 210.397784 
L 432.370726 210.352637 
L 437.916925 210.364025 
L 443.463125 210.320506 
L 449.009325 210.326878 
L 454.555524 210.294204 
L 460.101724 210.332979 
L 465.647924 210.334877 
L 471.194124 210.352366 
L 476.740323 210.356976 
L 482.286523 210.332843 
L 487.832723 210.400902 
L 493.378922 210.352637 
" clip-path="url(#p1e340783a9)" style="fill: none; stroke-dasharray: 14.8,6.4; stroke-dashoffset: 0; stroke: #2ca02c; stroke-width: 4"/>
   </g>
   <g id="patch_3">
    <path d="M 71.313125 467.935313 
L 71.313125 35.995312 
" style="fill: none; stroke: #4b4b4b; stroke-width: 2; stroke-linejoin: miter; stroke-linecap: square"/>
   </g>
   <g id="patch_4">
    <path d="M 815.613125 467.935313 
L 815.613125 35.995312 
" style="fill: none; stroke: #cccccc; stroke-width: 1.25; stroke-linejoin: miter; stroke-linecap: square"/>
   </g>
   <g id="patch_5">
    <path d="M 71.313125 467.935313 
L 815.613125 467.935313 
" style="fill: none; stroke: #4b4b4b; stroke-width: 2; stroke-linejoin: miter; stroke-linecap: square"/>
   </g>
   <g id="patch_6">
    <path d="M 71.313125 35.995312 
L 815.613125 35.995312 
" style="fill: none; stroke: #cccccc; stroke-width: 1.25; stroke-linejoin: miter; stroke-linecap: square"/>
   </g>
   <g id="text_17">
    <!-- PEMS04 -->
    <g style="fill: #262626" transform="translate(383.388125 29.995312) scale(0.3 -0.3)">
     <defs>
      <path id="DejaVuSans-50" d="M 1259 4147 
L 1259 2394 
L 2053 2394 
Q 2494 2394 2734 2622 
Q 2975 2850 2975 3272 
Q 2975 3691 2734 3919 
Q 2494 4147 2053 4147 
L 1259 4147 
z
M 628 4666 
L 2053 4666 
Q 2838 4666 3239 4311 
Q 3641 3956 3641 3272 
Q 3641 2581 3239 2228 
Q 2838 1875 2053 1875 
L 1259 1875 
L 1259 0 
L 628 0 
L 628 4666 
z
" transform="scale(0.015625)"/>
      <path id="DejaVuSans-4d" d="M 628 4666 
L 1569 4666 
L 2759 1491 
L 3956 4666 
L 4897 4666 
L 4897 0 
L 4281 0 
L 4281 4097 
L 3078 897 
L 2444 897 
L 1241 4097 
L 1241 0 
L 628 0 
L 628 4666 
z
" transform="scale(0.015625)"/>
      <path id="DejaVuSans-53" d="M 3425 4513 
L 3425 3897 
Q 3066 4069 2747 4153 
Q 2428 4238 2131 4238 
Q 1616 4238 1336 4038 
Q 1056 3838 1056 3469 
Q 1056 3159 1242 3001 
Q 1428 2844 1947 2747 
L 2328 2669 
Q 3034 2534 3370 2195 
Q 3706 1856 3706 1288 
Q 3706 609 3251 259 
Q 2797 -91 1919 -91 
Q 1588 -91 1214 -16 
Q 841 59 441 206 
L 441 856 
Q 825 641 1194 531 
Q 1563 422 1919 422 
Q 2459 422 2753 634 
Q 3047 847 3047 1241 
Q 3047 1584 2836 1778 
Q 2625 1972 2144 2069 
L 1759 2144 
Q 1053 2284 737 2584 
Q 422 2884 422 3419 
Q 422 4038 858 4394 
Q 1294 4750 2059 4750 
Q 2388 4750 2728 4690 
Q 3069 4631 3425 4513 
z
" transform="scale(0.015625)"/>
     </defs>
     <use xlink:href="#DejaVuSans-50"/>
     <use xlink:href="#DejaVuSans-45" x="60.302734"/>
     <use xlink:href="#DejaVuSans-4d" x="123.486328"/>
     <use xlink:href="#DejaVuSans-53" x="209.765625"/>
     <use xlink:href="#DejaVuSans-30" x="273.242188"/>
     <use xlink:href="#DejaVuSans-34" x="336.865234"/>
    </g>
   </g>
   <g id="legend_1">
    <g id="patch_7">
     <path d="M 86.713125 456.935313 
L 385.187813 456.935313 
Q 389.587813 456.935313 389.587813 452.535312 
L 389.587813 325.567812 
Q 389.587813 321.167812 385.187813 321.167812 
L 86.713125 321.167812 
Q 82.313125 321.167812 82.313125 325.567812 
L 82.313125 452.535312 
Q 82.313125 456.935313 86.713125 456.935313 
z
" style="fill: #ffffff; opacity: 0.8; stroke: #cccccc; stroke-linejoin: miter"/>
    </g>
    <g id="line2d_19">
     <path d="M 91.113125 338.984375 
L 113.113125 338.984375 
L 135.113125 338.984375 
" style="fill: none; stroke-dasharray: 4,6.6; stroke-dashoffset: 0; stroke: #1f77b4; stroke-width: 4"/>
    </g>
    <g id="text_18">
     <!-- Pred. Train Loss (M1) -->
     <g style="fill: #262626" transform="translate(152.713125 346.684375) scale(0.22 -0.22)">
      <defs>
       <path id="DejaVuSans-64" d="M 2906 2969 
L 2906 4863 
L 3481 4863 
L 3481 0 
L 2906 0 
L 2906 525 
Q 2725 213 2448 61 
Q 2172 -91 1784 -91 
Q 1150 -91 751 415 
Q 353 922 353 1747 
Q 353 2572 751 3078 
Q 1150 3584 1784 3584 
Q 2172 3584 2448 3432 
Q 2725 3281 2906 2969 
z
M 947 1747 
Q 947 1113 1208 752 
Q 1469 391 1925 391 
Q 2381 391 2643 752 
Q 2906 1113 2906 1747 
Q 2906 2381 2643 2742 
Q 2381 3103 1925 3103 
Q 1469 3103 1208 2742 
Q 947 2381 947 1747 
z
" transform="scale(0.015625)"/>
       <path id="DejaVuSans-2e" d="M 684 794 
L 1344 794 
L 1344 0 
L 684 0 
L 684 794 
z
" transform="scale(0.015625)"/>
       <path id="DejaVuSans-54" d="M -19 4666 
L 3928 4666 
L 3928 4134 
L 2272 4134 
L 2272 0 
L 1638 0 
L 1638 4134 
L -19 4134 
L -19 4666 
z
" transform="scale(0.015625)"/>
       <path id="DejaVuSans-61" d="M 2194 1759 
Q 1497 1759 1228 1600 
Q 959 1441 959 1056 
Q 959 750 1161 570 
Q 1363 391 1709 391 
Q 2188 391 2477 730 
Q 2766 1069 2766 1631 
L 2766 1759 
L 2194 1759 
z
M 3341 1997 
L 3341 0 
L 2766 0 
L 2766 531 
Q 2569 213 2275 61 
Q 1981 -91 1556 -91 
Q 1019 -91 701 211 
Q 384 513 384 1019 
Q 384 1609 779 1909 
Q 1175 2209 1959 2209 
L 2766 2209 
L 2766 2266 
Q 2766 2663 2505 2880 
Q 2244 3097 1772 3097 
Q 1472 3097 1187 3025 
Q 903 2953 641 2809 
L 641 3341 
Q 956 3463 1253 3523 
Q 1550 3584 1831 3584 
Q 2591 3584 2966 3190 
Q 3341 2797 3341 1997 
z
" transform="scale(0.015625)"/>
       <path id="DejaVuSans-69" d="M 603 3500 
L 1178 3500 
L 1178 0 
L 603 0 
L 603 3500 
z
M 603 4863 
L 1178 4863 
L 1178 4134 
L 603 4134 
L 603 4863 
z
" transform="scale(0.015625)"/>
       <path id="DejaVuSans-6e" d="M 3513 2113 
L 3513 0 
L 2938 0 
L 2938 2094 
Q 2938 2591 2744 2837 
Q 2550 3084 2163 3084 
Q 1697 3084 1428 2787 
Q 1159 2491 1159 1978 
L 1159 0 
L 581 0 
L 581 3500 
L 1159 3500 
L 1159 2956 
Q 1366 3272 1645 3428 
Q 1925 3584 2291 3584 
Q 2894 3584 3203 3211 
Q 3513 2838 3513 2113 
z
" transform="scale(0.015625)"/>
       <path id="DejaVuSans-28" d="M 1984 4856 
Q 1566 4138 1362 3434 
Q 1159 2731 1159 2009 
Q 1159 1288 1364 580 
Q 1569 -128 1984 -844 
L 1484 -844 
Q 1016 -109 783 600 
Q 550 1309 550 2009 
Q 550 2706 781 3412 
Q 1013 4119 1484 4856 
L 1984 4856 
z
" transform="scale(0.015625)"/>
       <path id="DejaVuSans-29" d="M 513 4856 
L 1013 4856 
Q 1481 4119 1714 3412 
Q 1947 2706 1947 2009 
Q 1947 1309 1714 600 
Q 1481 -109 1013 -844 
L 513 -844 
Q 928 -128 1133 580 
Q 1338 1288 1338 2009 
Q 1338 2731 1133 3434 
Q 928 4138 513 4856 
z
" transform="scale(0.015625)"/>
      </defs>
      <use xlink:href="#DejaVuSans-50"/>
      <use xlink:href="#DejaVuSans-72" x="58.552734"/>
      <use xlink:href="#DejaVuSans-65" x="97.416016"/>
      <use xlink:href="#DejaVuSans-64" x="158.939453"/>
      <use xlink:href="#DejaVuSans-2e" x="222.416016"/>
      <use xlink:href="#DejaVuSans-20" x="254.203125"/>
      <use xlink:href="#DejaVuSans-54" x="285.990234"/>
      <use xlink:href="#DejaVuSans-72" x="332.324219"/>
      <use xlink:href="#DejaVuSans-61" x="373.4375"/>
      <use xlink:href="#DejaVuSans-69" x="434.716797"/>
      <use xlink:href="#DejaVuSans-6e" x="462.5"/>
      <use xlink:href="#DejaVuSans-20" x="525.878906"/>
      <use xlink:href="#DejaVuSans-4c" x="557.666016"/>
      <use xlink:href="#DejaVuSans-6f" x="611.628906"/>
      <use xlink:href="#DejaVuSans-73" x="672.810547"/>
      <use xlink:href="#DejaVuSans-73" x="724.910156"/>
      <use xlink:href="#DejaVuSans-20" x="777.009766"/>
      <use xlink:href="#DejaVuSans-28" x="808.796875"/>
      <use xlink:href="#DejaVuSans-4d" x="847.810547"/>
      <use xlink:href="#DejaVuSans-31" x="934.089844"/>
      <use xlink:href="#DejaVuSans-29" x="997.712891"/>
     </g>
    </g>
    <g id="line2d_20">
     <path d="M 91.113125 371.27625 
L 113.113125 371.27625 
L 135.113125 371.27625 
" style="fill: none; stroke-dasharray: 25.6,6.4,4,6.4; stroke-dashoffset: 0; stroke: #ff7f0e; stroke-width: 4"/>
    </g>
    <g id="text_19">
     <!-- Rec. Train Loss (M1) -->
     <g style="fill: #262626" transform="translate(152.713125 378.97625) scale(0.22 -0.22)">
      <defs>
       <path id="DejaVuSans-52" d="M 2841 2188 
Q 3044 2119 3236 1894 
Q 3428 1669 3622 1275 
L 4263 0 
L 3584 0 
L 2988 1197 
Q 2756 1666 2539 1819 
Q 2322 1972 1947 1972 
L 1259 1972 
L 1259 0 
L 628 0 
L 628 4666 
L 2053 4666 
Q 2853 4666 3247 4331 
Q 3641 3997 3641 3322 
Q 3641 2881 3436 2590 
Q 3231 2300 2841 2188 
z
M 1259 4147 
L 1259 2491 
L 2053 2491 
Q 2509 2491 2742 2702 
Q 2975 2913 2975 3322 
Q 2975 3731 2742 3939 
Q 2509 4147 2053 4147 
L 1259 4147 
z
" transform="scale(0.015625)"/>
      </defs>
      <use xlink:href="#DejaVuSans-52"/>
      <use xlink:href="#DejaVuSans-65" x="64.982422"/>
      <use xlink:href="#DejaVuSans-63" x="126.505859"/>
      <use xlink:href="#DejaVuSans-2e" x="181.486328"/>
      <use xlink:href="#DejaVuSans-20" x="213.273438"/>
      <use xlink:href="#DejaVuSans-54" x="245.060547"/>
      <use xlink:href="#DejaVuSans-72" x="291.394531"/>
      <use xlink:href="#DejaVuSans-61" x="332.507812"/>
      <use xlink:href="#DejaVuSans-69" x="393.787109"/>
      <use xlink:href="#DejaVuSans-6e" x="421.570312"/>
      <use xlink:href="#DejaVuSans-20" x="484.949219"/>
      <use xlink:href="#DejaVuSans-4c" x="516.736328"/>
      <use xlink:href="#DejaVuSans-6f" x="570.699219"/>
      <use xlink:href="#DejaVuSans-73" x="631.880859"/>
      <use xlink:href="#DejaVuSans-73" x="683.980469"/>
      <use xlink:href="#DejaVuSans-20" x="736.080078"/>
      <use xlink:href="#DejaVuSans-28" x="767.867188"/>
      <use xlink:href="#DejaVuSans-4d" x="806.880859"/>
      <use xlink:href="#DejaVuSans-31" x="893.160156"/>
      <use xlink:href="#DejaVuSans-29" x="956.783203"/>
     </g>
    </g>
    <g id="line2d_21">
     <path d="M 91.113125 403.568125 
L 113.113125 403.568125 
L 135.113125 403.568125 
" style="fill: none; stroke: #e94e77; stroke-width: 4; stroke-linecap: round"/>
    </g>
    <g id="text_20">
     <!-- Pred. Val Loss (M1) -->
     <g style="fill: #262626" transform="translate(152.713125 411.268125) scale(0.22 -0.22)">
      <defs>
       <path id="DejaVuSans-56" d="M 1831 0 
L 50 4666 
L 709 4666 
L 2188 738 
L 3669 4666 
L 4325 4666 
L 2547 0 
L 1831 0 
z
" transform="scale(0.015625)"/>
       <path id="DejaVuSans-6c" d="M 603 4863 
L 1178 4863 
L 1178 0 
L 603 0 
L 603 4863 
z
" transform="scale(0.015625)"/>
      </defs>
      <use xlink:href="#DejaVuSans-50"/>
      <use xlink:href="#DejaVuSans-72" x="58.552734"/>
      <use xlink:href="#DejaVuSans-65" x="97.416016"/>
      <use xlink:href="#DejaVuSans-64" x="158.939453"/>
      <use xlink:href="#DejaVuSans-2e" x="222.416016"/>
      <use xlink:href="#DejaVuSans-20" x="254.203125"/>
      <use xlink:href="#DejaVuSans-56" x="285.990234"/>
      <use xlink:href="#DejaVuSans-61" x="346.648438"/>
      <use xlink:href="#DejaVuSans-6c" x="407.927734"/>
      <use xlink:href="#DejaVuSans-20" x="435.710938"/>
      <use xlink:href="#DejaVuSans-4c" x="467.498047"/>
      <use xlink:href="#DejaVuSans-6f" x="521.460938"/>
      <use xlink:href="#DejaVuSans-73" x="582.642578"/>
      <use xlink:href="#DejaVuSans-73" x="634.742188"/>
      <use xlink:href="#DejaVuSans-20" x="686.841797"/>
      <use xlink:href="#DejaVuSans-28" x="718.628906"/>
      <use xlink:href="#DejaVuSans-4d" x="757.642578"/>
      <use xlink:href="#DejaVuSans-31" x="843.921875"/>
      <use xlink:href="#DejaVuSans-29" x="907.544922"/>
     </g>
    </g>
    <g id="line2d_22">
     <path d="M 91.113125 435.86 
L 113.113125 435.86 
L 135.113125 435.86 
" style="fill: none; stroke-dasharray: 14.8,6.4; stroke-dashoffset: 0; stroke: #2ca02c; stroke-width: 4"/>
    </g>
    <g id="text_21">
     <!-- Pred. Val Loss (M4) -->
     <g style="fill: #262626" transform="translate(152.713125 443.56) scale(0.22 -0.22)">
      <use xlink:href="#DejaVuSans-50"/>
      <use xlink:href="#DejaVuSans-72" x="58.552734"/>
      <use xlink:href="#DejaVuSans-65" x="97.416016"/>
      <use xlink:href="#DejaVuSans-64" x="158.939453"/>
      <use xlink:href="#DejaVuSans-2e" x="222.416016"/>
      <use xlink:href="#DejaVuSans-20" x="254.203125"/>
      <use xlink:href="#DejaVuSans-56" x="285.990234"/>
      <use xlink:href="#DejaVuSans-61" x="346.648438"/>
      <use xlink:href="#DejaVuSans-6c" x="407.927734"/>
      <use xlink:href="#DejaVuSans-20" x="435.710938"/>
      <use xlink:href="#DejaVuSans-4c" x="467.498047"/>
      <use xlink:href="#DejaVuSans-6f" x="521.460938"/>
      <use xlink:href="#DejaVuSans-73" x="582.642578"/>
      <use xlink:href="#DejaVuSans-73" x="634.742188"/>
      <use xlink:href="#DejaVuSans-20" x="686.841797"/>
      <use xlink:href="#DejaVuSans-28" x="718.628906"/>
      <use xlink:href="#DejaVuSans-4d" x="757.642578"/>
      <use xlink:href="#DejaVuSans-34" x="843.921875"/>
      <use xlink:href="#DejaVuSans-29" x="907.544922"/>
     </g>
    </g>
   </g>
  </g>
  <g id="axes_2">
   <g id="patch_8">
    <path d="M 411.693125 173.995312 
L 757.293125 173.995312 
L 757.293125 47.275312 
L 411.693125 47.275312 
z
" style="fill: #ffffff"/>
   </g>
   <g id="matplotlib.axis_3">
    <g id="xtick_8">
     <g id="line2d_23">
      <path d="M 411.693125 173.995312 
L 411.693125 47.275312 
" clip-path="url(#p7dcfa224bd)" style="fill: none; stroke: #cccccc; stroke-linecap: round"/>
     </g>
     <g id="text_22">
      <!-- 20 -->
      <g style="fill: #262626" transform="translate(404.694375 191.853594) scale(0.11 -0.11)">
       <use xlink:href="#DejaVuSans-32"/>
       <use xlink:href="#DejaVuSans-30" x="63.623047"/>
      </g>
     </g>
    </g>
    <g id="xtick_9">
     <g id="line2d_24">
      <path d="M 454.893125 173.995312 
L 454.893125 47.275312 
" clip-path="url(#p7dcfa224bd)" style="fill: none; stroke: #cccccc; stroke-linecap: round"/>
     </g>
     <g id="text_23">
      <!-- 25 -->
      <g style="fill: #262626" transform="translate(447.894375 191.853594) scale(0.11 -0.11)">
       <use xlink:href="#DejaVuSans-32"/>
       <use xlink:href="#DejaVuSans-35" x="63.623047"/>
      </g>
     </g>
    </g>
    <g id="xtick_10">
     <g id="line2d_25">
      <path d="M 498.093125 173.995312 
L 498.093125 47.275312 
" clip-path="url(#p7dcfa224bd)" style="fill: none; stroke: #cccccc; stroke-linecap: round"/>
     </g>
     <g id="text_24">
      <!-- 30 -->
      <g style="fill: #262626" transform="translate(491.094375 191.853594) scale(0.11 -0.11)">
       <use xlink:href="#DejaVuSans-33"/>
       <use xlink:href="#DejaVuSans-30" x="63.623047"/>
      </g>
     </g>
    </g>
    <g id="xtick_11">
     <g id="line2d_26">
      <path d="M 541.293125 173.995312 
L 541.293125 47.275312 
" clip-path="url(#p7dcfa224bd)" style="fill: none; stroke: #cccccc; stroke-linecap: round"/>
     </g>
     <g id="text_25">
      <!-- 35 -->
      <g style="fill: #262626" transform="translate(534.294375 191.853594) scale(0.11 -0.11)">
       <use xlink:href="#DejaVuSans-33"/>
       <use xlink:href="#DejaVuSans-35" x="63.623047"/>
      </g>
     </g>
    </g>
    <g id="xtick_12">
     <g id="line2d_27">
      <path d="M 584.493125 173.995312 
L 584.493125 47.275312 
" clip-path="url(#p7dcfa224bd)" style="fill: none; stroke: #cccccc; stroke-linecap: round"/>
     </g>
     <g id="text_26">
      <!-- 40 -->
      <g style="fill: #262626" transform="translate(577.494375 191.853594) scale(0.11 -0.11)">
       <use xlink:href="#DejaVuSans-34"/>
       <use xlink:href="#DejaVuSans-30" x="63.623047"/>
      </g>
     </g>
    </g>
    <g id="xtick_13">
     <g id="line2d_28">
      <path d="M 627.693125 173.995312 
L 627.693125 47.275312 
" clip-path="url(#p7dcfa224bd)" style="fill: none; stroke: #cccccc; stroke-linecap: round"/>
     </g>
     <g id="text_27">
      <!-- 45 -->
      <g style="fill: #262626" transform="translate(620.694375 191.853594) scale(0.11 -0.11)">
       <use xlink:href="#DejaVuSans-34"/>
       <use xlink:href="#DejaVuSans-35" x="63.623047"/>
      </g>
     </g>
    </g>
    <g id="xtick_14">
     <g id="line2d_29">
      <path d="M 670.893125 173.995312 
L 670.893125 47.275312 
" clip-path="url(#p7dcfa224bd)" style="fill: none; stroke: #cccccc; stroke-linecap: round"/>
     </g>
     <g id="text_28">
      <!-- 50 -->
      <g style="fill: #262626" transform="translate(663.894375 191.853594) scale(0.11 -0.11)">
       <use xlink:href="#DejaVuSans-35"/>
       <use xlink:href="#DejaVuSans-30" x="63.623047"/>
      </g>
     </g>
    </g>
    <g id="xtick_15">
     <g id="line2d_30">
      <path d="M 714.093125 173.995312 
L 714.093125 47.275312 
" clip-path="url(#p7dcfa224bd)" style="fill: none; stroke: #cccccc; stroke-linecap: round"/>
     </g>
     <g id="text_29">
      <!-- 55 -->
      <g style="fill: #262626" transform="translate(707.094375 191.853594) scale(0.11 -0.11)">
       <use xlink:href="#DejaVuSans-35"/>
       <use xlink:href="#DejaVuSans-35" x="63.623047"/>
      </g>
     </g>
    </g>
    <g id="xtick_16">
     <g id="line2d_31">
      <path d="M 757.293125 173.995312 
L 757.293125 47.275312 
" clip-path="url(#p7dcfa224bd)" style="fill: none; stroke: #cccccc; stroke-linecap: round"/>
     </g>
     <g id="text_30">
      <!-- 60 -->
      <g style="fill: #262626" transform="translate(750.294375 191.853594) scale(0.11 -0.11)">
       <use xlink:href="#DejaVuSans-36"/>
       <use xlink:href="#DejaVuSans-30" x="63.623047"/>
      </g>
     </g>
    </g>
   </g>
   <g id="matplotlib.axis_4">
    <g id="ytick_8">
     <g id="line2d_32">
      <path d="M 411.693125 173.995312 
L 757.293125 173.995312 
" clip-path="url(#p7dcfa224bd)" style="fill: none; stroke: #cccccc; stroke-linecap: round"/>
     </g>
     <g id="text_31">
      <!-- 17.0 -->
      <g style="fill: #262626" transform="translate(377.700938 178.174453) scale(0.11 -0.11)">
       <defs>
        <path id="DejaVuSans-37" d="M 525 4666 
L 3525 4666 
L 3525 4397 
L 1831 0 
L 1172 0 
L 2766 4134 
L 525 4134 
L 525 4666 
z
" transform="scale(0.015625)"/>
       </defs>
       <use xlink:href="#DejaVuSans-31"/>
       <use xlink:href="#DejaVuSans-37" x="63.623047"/>
       <use xlink:href="#DejaVuSans-2e" x="127.246094"/>
       <use xlink:href="#DejaVuSans-30" x="159.033203"/>
      </g>
     </g>
    </g>
    <g id="ytick_9">
     <g id="line2d_33">
      <path d="M 411.693125 148.651312 
L 757.293125 148.651312 
" clip-path="url(#p7dcfa224bd)" style="fill: none; stroke: #cccccc; stroke-linecap: round"/>
     </g>
     <g id="text_32">
      <!-- 17.2 -->
      <g style="fill: #262626" transform="translate(377.700938 152.830453) scale(0.11 -0.11)">
       <use xlink:href="#DejaVuSans-31"/>
       <use xlink:href="#DejaVuSans-37" x="63.623047"/>
       <use xlink:href="#DejaVuSans-2e" x="127.246094"/>
       <use xlink:href="#DejaVuSans-32" x="159.033203"/>
      </g>
     </g>
    </g>
    <g id="ytick_10">
     <g id="line2d_34">
      <path d="M 411.693125 123.307312 
L 757.293125 123.307312 
" clip-path="url(#p7dcfa224bd)" style="fill: none; stroke: #cccccc; stroke-linecap: round"/>
     </g>
     <g id="text_33">
      <!-- 17.4 -->
      <g style="fill: #262626" transform="translate(377.700938 127.486453) scale(0.11 -0.11)">
       <use xlink:href="#DejaVuSans-31"/>
       <use xlink:href="#DejaVuSans-37" x="63.623047"/>
       <use xlink:href="#DejaVuSans-2e" x="127.246094"/>
       <use xlink:href="#DejaVuSans-34" x="159.033203"/>
      </g>
     </g>
    </g>
    <g id="ytick_11">
     <g id="line2d_35">
      <path d="M 411.693125 97.963312 
L 757.293125 97.963312 
" clip-path="url(#p7dcfa224bd)" style="fill: none; stroke: #cccccc; stroke-linecap: round"/>
     </g>
     <g id="text_34">
      <!-- 17.6 -->
      <g style="fill: #262626" transform="translate(377.700938 102.142453) scale(0.11 -0.11)">
       <use xlink:href="#DejaVuSans-31"/>
       <use xlink:href="#DejaVuSans-37" x="63.623047"/>
       <use xlink:href="#DejaVuSans-2e" x="127.246094"/>
       <use xlink:href="#DejaVuSans-36" x="159.033203"/>
      </g>
     </g>
    </g>
    <g id="ytick_12">
     <g id="line2d_36">
      <path d="M 411.693125 72.619312 
L 757.293125 72.619312 
" clip-path="url(#p7dcfa224bd)" style="fill: none; stroke: #cccccc; stroke-linecap: round"/>
     </g>
     <g id="text_35">
      <!-- 17.8 -->
      <g style="fill: #262626" transform="translate(377.700938 76.798453) scale(0.11 -0.11)">
       <use xlink:href="#DejaVuSans-31"/>
       <use xlink:href="#DejaVuSans-37" x="63.623047"/>
       <use xlink:href="#DejaVuSans-2e" x="127.246094"/>
       <use xlink:href="#DejaVuSans-38" x="159.033203"/>
      </g>
     </g>
    </g>
    <g id="ytick_13">
     <g id="line2d_37">
      <path d="M 411.693125 47.275312 
L 757.293125 47.275312 
" clip-path="url(#p7dcfa224bd)" style="fill: none; stroke: #cccccc; stroke-linecap: round"/>
     </g>
     <g id="text_36">
      <!-- 18.0 -->
      <g style="fill: #262626" transform="translate(377.700938 51.454453) scale(0.11 -0.11)">
       <use xlink:href="#DejaVuSans-31"/>
       <use xlink:href="#DejaVuSans-38" x="63.623047"/>
       <use xlink:href="#DejaVuSans-2e" x="127.246094"/>
       <use xlink:href="#DejaVuSans-30" x="159.033203"/>
      </g>
     </g>
    </g>
   </g>
   <g id="line2d_38">
    <path d="M 411.693125 54.319677 
L 420.333125 97.972183 
L 428.973125 101.615383 
L 437.613125 110.267824 
L 446.253125 109.384586 
L 454.893125 101.460784 
L 463.533125 110.021988 
L 472.173125 105.231972 
L 480.813125 105.742653 
L 489.453125 109.325028 
L 498.093125 99.42186 
L 506.733125 109.017098 
L 515.373125 124.896381 
L 524.013125 120.606909 
L 532.653125 124.076503 
L 541.293125 128.428068 
L 549.933125 129.913226 
L 558.573125 130.032343 
L 567.213125 131.540311 
L 575.853125 131.139876 
L 584.493125 131.231114 
L 593.133125 131.867248 
L 601.773125 132.318372 
L 610.413125 130.674813 
L 619.053125 131.060042 
L 627.693125 130.617789 
L 636.333125 130.91178 
L 644.973125 130.895306 
L 653.613125 132.19672 
L 662.253125 128.495229 
L 670.893125 132.673188 
L 679.533125 132.619965 
L 688.173125 131.442736 
L 696.813125 129.539402 
L 705.453125 130.418839 
L 714.093125 129.516592 
L 722.733125 130.881367 
L 731.373125 130.8028 
L 740.013125 131.71265 
L 748.653125 134.330685 
L 757.293125 134.466276 
" clip-path="url(#p7dcfa224bd)" style="fill: none; stroke: #e94e77; stroke-width: 5; stroke-linecap: round"/>
   </g>
   <g id="line2d_39">
    <path d="M 411.693125 29.217712 
L 420.333125 104.361405 
L 428.973125 105.847831 
L 437.613125 101.131312 
L 446.253125 96.646692 
L 454.893125 103.945764 
L 463.533125 99.211504 
L 472.173125 104.977264 
L 480.813125 100.80184 
L 489.453125 100.730877 
L 498.093125 98.868093 
L 506.733125 101.975268 
L 515.373125 103.014372 
L 524.013125 95.103242 
L 532.653125 96.806359 
L 541.293125 105.714775 
L 549.933125 105.434724 
L 558.573125 104.768176 
L 567.213125 103.922954 
L 575.853125 104.56289 
L 584.493125 106.357245 
L 593.133125 107.014922 
L 601.773125 103.81144 
L 610.413125 106.429476 
L 619.053125 104.135844 
L 627.693125 103.507312 
L 636.333125 105.462602 
L 644.973125 104.092759 
L 653.613125 104.143447 
L 662.253125 104.507133 
L 670.893125 103.881136 
L 679.533125 103.935626 
L 688.173125 106.576471 
L 696.813125 102.622807 
L 705.453125 105.890916 
L 714.093125 105.35489 
L 722.733125 104.498263 
L 731.373125 104.399421 
L 740.013125 104.153584 
L 748.653125 104.590768 
L 757.293125 104.168791 
" clip-path="url(#p7dcfa224bd)" style="fill: none; stroke-dasharray: 18.5,8; stroke-dashoffset: 0; stroke: #2ca02c; stroke-width: 5"/>
   </g>
   <g id="patch_9">
    <path d="M 411.693125 173.995312 
L 411.693125 47.275312 
" style="fill: none; stroke: #4b4b4b; stroke-width: 2; stroke-linejoin: miter; stroke-linecap: square"/>
   </g>
   <g id="patch_10">
    <path d="M 757.293125 173.995312 
L 757.293125 47.275312 
" style="fill: none; stroke: #4b4b4b; stroke-width: 2; stroke-linejoin: miter; stroke-linecap: square"/>
   </g>
   <g id="patch_11">
    <path d="M 411.693125 173.995312 
L 757.293125 173.995312 
" style="fill: none; stroke: #4b4b4b; stroke-width: 2; stroke-linejoin: miter; stroke-linecap: square"/>
   </g>
   <g id="patch_12">
    <path d="M 411.693125 47.275312 
L 757.293125 47.275312 
" style="fill: none; stroke: #4b4b4b; stroke-width: 2; stroke-linejoin: miter; stroke-linecap: square"/>
   </g>
  </g>
 </g>
 <defs>
  <clipPath id="p1e340783a9">
   <rect x="71.313125" y="35.995312" width="744.3" height="431.94"/>
  </clipPath>
  <clipPath id="p7dcfa224bd">
   <rect x="411.693125" y="47.275312" width="345.6" height="126.72"/>
  </clipPath>
 </defs>
</svg>
