<?xml version="1.0" encoding="utf-8" standalone="no"?>
<!DOCTYPE svg PUBLIC "-//W3C//DTD SVG 1.1//EN"
  "http://www.w3.org/Graphics/SVG/1.1/DTD/svg11.dtd">
<svg xmlns:xlink="http://www.w3.org/1999/xlink" width="822.903125pt" height="533.154688pt" viewBox="0 0 822.903125 533.154688" xmlns="http://www.w3.org/2000/svg" version="1.1">
 <metadata>
  <rdf:RDF xmlns:dc="http://purl.org/dc/elements/1.1/" xmlns:cc="http://creativecommons.org/ns#" xmlns:rdf="http://www.w3.org/1999/02/22-rdf-syntax-ns#">
   <cc:Work>
    <dc:type rdf:resource="http://purl.org/dc/dcmitype/StillImage"/>
    <dc:date>2025-02-01T16:19:59.000971</dc:date>
    <dc:format>image/svg+xml</dc:format>
    <dc:creator>
     <cc:Agent>
      <dc:title>Matplotlib v3.9.0, https://matplotlib.org/</dc:title>
     </cc:Agent>
    </dc:creator>
   </cc:Work>
  </rdf:RDF>
 </metadata>
 <defs>
  <style type="text/css">*{stroke-linejoin: round; stroke-linecap: butt}</style>
 </defs>
 <g id="figure_1">
  <g id="patch_1">
   <path d="M 0 533.154688 
L 822.903125 533.154688 
L 822.903125 0 
L 0 0 
z
" style="fill: #ffffff"/>
  </g>
  <g id="axes_1">
   <g id="patch_2">
    <path d="M 71.313125 467.935313 
L 815.703125 467.935313 
L 815.703125 35.995312 
L 71.313125 35.995312 
z
" style="fill: #ffffff"/>
   </g>
   <g id="matplotlib.axis_1">
    <g id="xtick_1">
     <g id="line2d_1">
      <path d="M 98.883125 467.935313 
L 98.883125 35.995312 
" clip-path="url(#pc7f449620f)" style="fill: none; stroke-dasharray: 3.7,1.6; stroke-dashoffset: 0; stroke: #cccccc; stroke-opacity: 0.7"/>
     </g>
     <g id="text_1">
      <!-- 0 -->
      <g style="fill: #262626" transform="translate(92.520625 492.632187) scale(0.2 -0.2)">
       <defs>
        <path id="DejaVuSans-30" d="M 2034 4250 
Q 1547 4250 1301 3770 
Q 1056 3291 1056 2328 
Q 1056 1369 1301 889 
Q 1547 409 2034 409 
Q 2525 409 2770 889 
Q 3016 1369 3016 2328 
Q 3016 3291 2770 3770 
Q 2525 4250 2034 4250 
z
M 2034 4750 
Q 2819 4750 3233 4129 
Q 3647 3509 3647 2328 
Q 3647 1150 3233 529 
Q 2819 -91 2034 -91 
Q 1250 -91 836 529 
Q 422 1150 422 2328 
Q 422 3509 836 4129 
Q 1250 4750 2034 4750 
z
" transform="scale(0.015625)"/>
       </defs>
       <use xlink:href="#DejaVuSans-30"/>
      </g>
     </g>
    </g>
    <g id="xtick_2">
     <g id="line2d_2">
      <path d="M 224.201307 467.935313 
L 224.201307 35.995312 
" clip-path="url(#pc7f449620f)" style="fill: none; stroke-dasharray: 3.7,1.6; stroke-dashoffset: 0; stroke: #cccccc; stroke-opacity: 0.7"/>
     </g>
     <g id="text_2">
      <!-- 20 -->
      <g style="fill: #262626" transform="translate(211.476307 492.632187) scale(0.2 -0.2)">
       <defs>
        <path id="DejaVuSans-32" d="M 1228 531 
L 3431 531 
L 3431 0 
L 469 0 
L 469 531 
Q 828 903 1448 1529 
Q 2069 2156 2228 2338 
Q 2531 2678 2651 2914 
Q 2772 3150 2772 3378 
Q 2772 3750 2511 3984 
Q 2250 4219 1831 4219 
Q 1534 4219 1204 4116 
Q 875 4013 500 3803 
L 500 4441 
Q 881 4594 1212 4672 
Q 1544 4750 1819 4750 
Q 2544 4750 2975 4387 
Q 3406 4025 3406 3419 
Q 3406 3131 3298 2873 
Q 3191 2616 2906 2266 
Q 2828 2175 2409 1742 
Q 1991 1309 1228 531 
z
" transform="scale(0.015625)"/>
       </defs>
       <use xlink:href="#DejaVuSans-32"/>
       <use xlink:href="#DejaVuSans-30" x="63.623047"/>
      </g>
     </g>
    </g>
    <g id="xtick_3">
     <g id="line2d_3">
      <path d="M 349.519489 467.935313 
L 349.519489 35.995312 
" clip-path="url(#pc7f449620f)" style="fill: none; stroke-dasharray: 3.7,1.6; stroke-dashoffset: 0; stroke: #cccccc; stroke-opacity: 0.7"/>
     </g>
     <g id="text_3">
      <!-- 40 -->
      <g style="fill: #262626" transform="translate(336.794489 492.632187) scale(0.2 -0.2)">
       <defs>
        <path id="DejaVuSans-34" d="M 2419 4116 
L 825 1625 
L 2419 1625 
L 2419 4116 
z
M 2253 4666 
L 3047 4666 
L 3047 1625 
L 3713 1625 
L 3713 1100 
L 3047 1100 
L 3047 0 
L 2419 0 
L 2419 1100 
L 313 1100 
L 313 1709 
L 2253 4666 
z
" transform="scale(0.015625)"/>
       </defs>
       <use xlink:href="#DejaVuSans-34"/>
       <use xlink:href="#DejaVuSans-30" x="63.623047"/>
      </g>
     </g>
    </g>
    <g id="xtick_4">
     <g id="line2d_4">
      <path d="M 474.83767 467.935313 
L 474.83767 35.995312 
" clip-path="url(#pc7f449620f)" style="fill: none; stroke-dasharray: 3.7,1.6; stroke-dashoffset: 0; stroke: #cccccc; stroke-opacity: 0.7"/>
     </g>
     <g id="text_4">
      <!-- 60 -->
      <g style="fill: #262626" transform="translate(462.11267 492.632187) scale(0.2 -0.2)">
       <defs>
        <path id="DejaVuSans-36" d="M 2113 2584 
Q 1688 2584 1439 2293 
Q 1191 2003 1191 1497 
Q 1191 994 1439 701 
Q 1688 409 2113 409 
Q 2538 409 2786 701 
Q 3034 994 3034 1497 
Q 3034 2003 2786 2293 
Q 2538 2584 2113 2584 
z
M 3366 4563 
L 3366 3988 
Q 3128 4100 2886 4159 
Q 2644 4219 2406 4219 
Q 1781 4219 1451 3797 
Q 1122 3375 1075 2522 
Q 1259 2794 1537 2939 
Q 1816 3084 2150 3084 
Q 2853 3084 3261 2657 
Q 3669 2231 3669 1497 
Q 3669 778 3244 343 
Q 2819 -91 2113 -91 
Q 1303 -91 875 529 
Q 447 1150 447 2328 
Q 447 3434 972 4092 
Q 1497 4750 2381 4750 
Q 2619 4750 2861 4703 
Q 3103 4656 3366 4563 
z
" transform="scale(0.015625)"/>
       </defs>
       <use xlink:href="#DejaVuSans-36"/>
       <use xlink:href="#DejaVuSans-30" x="63.623047"/>
      </g>
     </g>
    </g>
    <g id="xtick_5">
     <g id="line2d_5">
      <path d="M 600.155852 467.935313 
L 600.155852 35.995312 
" clip-path="url(#pc7f449620f)" style="fill: none; stroke-dasharray: 3.7,1.6; stroke-dashoffset: 0; stroke: #cccccc; stroke-opacity: 0.7"/>
     </g>
     <g id="text_5">
      <!-- 80 -->
      <g style="fill: #262626" transform="translate(587.430852 492.632187) scale(0.2 -0.2)">
       <defs>
        <path id="DejaVuSans-38" d="M 2034 2216 
Q 1584 2216 1326 1975 
Q 1069 1734 1069 1313 
Q 1069 891 1326 650 
Q 1584 409 2034 409 
Q 2484 409 2743 651 
Q 3003 894 3003 1313 
Q 3003 1734 2745 1975 
Q 2488 2216 2034 2216 
z
M 1403 2484 
Q 997 2584 770 2862 
Q 544 3141 544 3541 
Q 544 4100 942 4425 
Q 1341 4750 2034 4750 
Q 2731 4750 3128 4425 
Q 3525 4100 3525 3541 
Q 3525 3141 3298 2862 
Q 3072 2584 2669 2484 
Q 3125 2378 3379 2068 
Q 3634 1759 3634 1313 
Q 3634 634 3220 271 
Q 2806 -91 2034 -91 
Q 1263 -91 848 271 
Q 434 634 434 1313 
Q 434 1759 690 2068 
Q 947 2378 1403 2484 
z
M 1172 3481 
Q 1172 3119 1398 2916 
Q 1625 2713 2034 2713 
Q 2441 2713 2670 2916 
Q 2900 3119 2900 3481 
Q 2900 3844 2670 4047 
Q 2441 4250 2034 4250 
Q 1625 4250 1398 4047 
Q 1172 3844 1172 3481 
z
" transform="scale(0.015625)"/>
       </defs>
       <use xlink:href="#DejaVuSans-38"/>
       <use xlink:href="#DejaVuSans-30" x="63.623047"/>
      </g>
     </g>
    </g>
    <g id="xtick_6">
     <g id="line2d_6">
      <path d="M 725.474034 467.935313 
L 725.474034 35.995312 
" clip-path="url(#pc7f449620f)" style="fill: none; stroke-dasharray: 3.7,1.6; stroke-dashoffset: 0; stroke: #cccccc; stroke-opacity: 0.7"/>
     </g>
     <g id="text_6">
      <!-- 100 -->
      <g style="fill: #262626" transform="translate(706.386534 492.632187) scale(0.2 -0.2)">
       <defs>
        <path id="DejaVuSans-31" d="M 794 531 
L 1825 531 
L 1825 4091 
L 703 3866 
L 703 4441 
L 1819 4666 
L 2450 4666 
L 2450 531 
L 3481 531 
L 3481 0 
L 794 0 
L 794 531 
z
" transform="scale(0.015625)"/>
       </defs>
       <use xlink:href="#DejaVuSans-31"/>
       <use xlink:href="#DejaVuSans-30" x="63.623047"/>
       <use xlink:href="#DejaVuSans-30" x="127.246094"/>
      </g>
     </g>
    </g>
    <g id="text_7">
     <!-- Epoch -->
     <g style="fill: #262626" transform="translate(403.699688 520.5475) scale(0.26 -0.26)">
      <defs>
       <path id="DejaVuSans-45" d="M 628 4666 
L 3578 4666 
L 3578 4134 
L 1259 4134 
L 1259 2753 
L 3481 2753 
L 3481 2222 
L 1259 2222 
L 1259 531 
L 3634 531 
L 3634 0 
L 628 0 
L 628 4666 
z
" transform="scale(0.015625)"/>
       <path id="DejaVuSans-70" d="M 1159 525 
L 1159 -1331 
L 581 -1331 
L 581 3500 
L 1159 3500 
L 1159 2969 
Q 1341 3281 1617 3432 
Q 1894 3584 2278 3584 
Q 2916 3584 3314 3078 
Q 3713 2572 3713 1747 
Q 3713 922 3314 415 
Q 2916 -91 2278 -91 
Q 1894 -91 1617 61 
Q 1341 213 1159 525 
z
M 3116 1747 
Q 3116 2381 2855 2742 
Q 2594 3103 2138 3103 
Q 1681 3103 1420 2742 
Q 1159 2381 1159 1747 
Q 1159 1113 1420 752 
Q 1681 391 2138 391 
Q 2594 391 2855 752 
Q 3116 1113 3116 1747 
z
" transform="scale(0.015625)"/>
       <path id="DejaVuSans-6f" d="M 1959 3097 
Q 1497 3097 1228 2736 
Q 959 2375 959 1747 
Q 959 1119 1226 758 
Q 1494 397 1959 397 
Q 2419 397 2687 759 
Q 2956 1122 2956 1747 
Q 2956 2369 2687 2733 
Q 2419 3097 1959 3097 
z
M 1959 3584 
Q 2709 3584 3137 3096 
Q 3566 2609 3566 1747 
Q 3566 888 3137 398 
Q 2709 -91 1959 -91 
Q 1206 -91 779 398 
Q 353 888 353 1747 
Q 353 2609 779 3096 
Q 1206 3584 1959 3584 
z
" transform="scale(0.015625)"/>
       <path id="DejaVuSans-63" d="M 3122 3366 
L 3122 2828 
Q 2878 2963 2633 3030 
Q 2388 3097 2138 3097 
Q 1578 3097 1268 2742 
Q 959 2388 959 1747 
Q 959 1106 1268 751 
Q 1578 397 2138 397 
Q 2388 397 2633 464 
Q 2878 531 3122 666 
L 3122 134 
Q 2881 22 2623 -34 
Q 2366 -91 2075 -91 
Q 1284 -91 818 406 
Q 353 903 353 1747 
Q 353 2603 823 3093 
Q 1294 3584 2113 3584 
Q 2378 3584 2631 3529 
Q 2884 3475 3122 3366 
z
" transform="scale(0.015625)"/>
       <path id="DejaVuSans-68" d="M 3513 2113 
L 3513 0 
L 2938 0 
L 2938 2094 
Q 2938 2591 2744 2837 
Q 2550 3084 2163 3084 
Q 1697 3084 1428 2787 
Q 1159 2491 1159 1978 
L 1159 0 
L 581 0 
L 581 4863 
L 1159 4863 
L 1159 2956 
Q 1366 3272 1645 3428 
Q 1925 3584 2291 3584 
Q 2894 3584 3203 3211 
Q 3513 2838 3513 2113 
z
" transform="scale(0.015625)"/>
      </defs>
      <use xlink:href="#DejaVuSans-45"/>
      <use xlink:href="#DejaVuSans-70" x="63.183594"/>
      <use xlink:href="#DejaVuSans-6f" x="126.660156"/>
      <use xlink:href="#DejaVuSans-63" x="187.841797"/>
      <use xlink:href="#DejaVuSans-68" x="242.822266"/>
     </g>
    </g>
   </g>
   <g id="matplotlib.axis_2">
    <g id="ytick_1">
     <g id="line2d_7">
      <path d="M 71.313125 448.301676 
L 815.703125 448.301676 
" clip-path="url(#pc7f449620f)" style="fill: none; stroke-dasharray: 3.7,1.6; stroke-dashoffset: 0; stroke: #cccccc; stroke-opacity: 0.7"/>
     </g>
     <g id="text_8">
      <!-- 0 -->
      <g style="fill: #262626" transform="translate(49.088125 455.900114) scale(0.2 -0.2)">
       <use xlink:href="#DejaVuSans-30"/>
      </g>
     </g>
    </g>
    <g id="ytick_2">
     <g id="line2d_8">
      <path d="M 71.313125 357.131532 
L 815.703125 357.131532 
" clip-path="url(#pc7f449620f)" style="fill: none; stroke-dasharray: 3.7,1.6; stroke-dashoffset: 0; stroke: #cccccc; stroke-opacity: 0.7"/>
     </g>
     <g id="text_9">
      <!-- 5 -->
      <g style="fill: #262626" transform="translate(49.088125 364.72997) scale(0.2 -0.2)">
       <defs>
        <path id="DejaVuSans-35" d="M 691 4666 
L 3169 4666 
L 3169 4134 
L 1269 4134 
L 1269 2991 
Q 1406 3038 1543 3061 
Q 1681 3084 1819 3084 
Q 2600 3084 3056 2656 
Q 3513 2228 3513 1497 
Q 3513 744 3044 326 
Q 2575 -91 1722 -91 
Q 1428 -91 1123 -41 
Q 819 9 494 109 
L 494 744 
Q 775 591 1075 516 
Q 1375 441 1709 441 
Q 2250 441 2565 725 
Q 2881 1009 2881 1497 
Q 2881 1984 2565 2268 
Q 2250 2553 1709 2553 
Q 1456 2553 1204 2497 
Q 953 2441 691 2322 
L 691 4666 
z
" transform="scale(0.015625)"/>
       </defs>
       <use xlink:href="#DejaVuSans-35"/>
      </g>
     </g>
    </g>
    <g id="ytick_3">
     <g id="line2d_9">
      <path d="M 71.313125 265.961388 
L 815.703125 265.961388 
" clip-path="url(#pc7f449620f)" style="fill: none; stroke-dasharray: 3.7,1.6; stroke-dashoffset: 0; stroke: #cccccc; stroke-opacity: 0.7"/>
     </g>
     <g id="text_10">
      <!-- 10 -->
      <g style="fill: #262626" transform="translate(36.363125 273.559826) scale(0.2 -0.2)">
       <use xlink:href="#DejaVuSans-31"/>
       <use xlink:href="#DejaVuSans-30" x="63.623047"/>
      </g>
     </g>
    </g>
    <g id="ytick_4">
     <g id="line2d_10">
      <path d="M 71.313125 174.791244 
L 815.703125 174.791244 
" clip-path="url(#pc7f449620f)" style="fill: none; stroke-dasharray: 3.7,1.6; stroke-dashoffset: 0; stroke: #cccccc; stroke-opacity: 0.7"/>
     </g>
     <g id="text_11">
      <!-- 15 -->
      <g style="fill: #262626" transform="translate(36.363125 182.389682) scale(0.2 -0.2)">
       <use xlink:href="#DejaVuSans-31"/>
       <use xlink:href="#DejaVuSans-35" x="63.623047"/>
      </g>
     </g>
    </g>
    <g id="ytick_5">
     <g id="line2d_11">
      <path d="M 71.313125 83.6211 
L 815.703125 83.6211 
" clip-path="url(#pc7f449620f)" style="fill: none; stroke-dasharray: 3.7,1.6; stroke-dashoffset: 0; stroke: #cccccc; stroke-opacity: 0.7"/>
     </g>
     <g id="text_12">
      <!-- 20 -->
      <g style="fill: #262626" transform="translate(36.363125 91.219538) scale(0.2 -0.2)">
       <use xlink:href="#DejaVuSans-32"/>
       <use xlink:href="#DejaVuSans-30" x="63.623047"/>
      </g>
     </g>
    </g>
    <g id="text_13">
     <!-- Huber Loss -->
     <g style="fill: #262626" transform="translate(26.955938 324.222969) rotate(-90) scale(0.26 -0.26)">
      <defs>
       <path id="DejaVuSans-48" d="M 628 4666 
L 1259 4666 
L 1259 2753 
L 3553 2753 
L 3553 4666 
L 4184 4666 
L 4184 0 
L 3553 0 
L 3553 2222 
L 1259 2222 
L 1259 0 
L 628 0 
L 628 4666 
z
" transform="scale(0.015625)"/>
       <path id="DejaVuSans-75" d="M 544 1381 
L 544 3500 
L 1119 3500 
L 1119 1403 
Q 1119 906 1312 657 
Q 1506 409 1894 409 
Q 2359 409 2629 706 
Q 2900 1003 2900 1516 
L 2900 3500 
L 3475 3500 
L 3475 0 
L 2900 0 
L 2900 538 
Q 2691 219 2414 64 
Q 2138 -91 1772 -91 
Q 1169 -91 856 284 
Q 544 659 544 1381 
z
M 1991 3584 
L 1991 3584 
z
" transform="scale(0.015625)"/>
       <path id="DejaVuSans-62" d="M 3116 1747 
Q 3116 2381 2855 2742 
Q 2594 3103 2138 3103 
Q 1681 3103 1420 2742 
Q 1159 2381 1159 1747 
Q 1159 1113 1420 752 
Q 1681 391 2138 391 
Q 2594 391 2855 752 
Q 3116 1113 3116 1747 
z
M 1159 2969 
Q 1341 3281 1617 3432 
Q 1894 3584 2278 3584 
Q 2916 3584 3314 3078 
Q 3713 2572 3713 1747 
Q 3713 922 3314 415 
Q 2916 -91 2278 -91 
Q 1894 -91 1617 61 
Q 1341 213 1159 525 
L 1159 0 
L 581 0 
L 581 4863 
L 1159 4863 
L 1159 2969 
z
" transform="scale(0.015625)"/>
       <path id="DejaVuSans-65" d="M 3597 1894 
L 3597 1613 
L 953 1613 
Q 991 1019 1311 708 
Q 1631 397 2203 397 
Q 2534 397 2845 478 
Q 3156 559 3463 722 
L 3463 178 
Q 3153 47 2828 -22 
Q 2503 -91 2169 -91 
Q 1331 -91 842 396 
Q 353 884 353 1716 
Q 353 2575 817 3079 
Q 1281 3584 2069 3584 
Q 2775 3584 3186 3129 
Q 3597 2675 3597 1894 
z
M 3022 2063 
Q 3016 2534 2758 2815 
Q 2500 3097 2075 3097 
Q 1594 3097 1305 2825 
Q 1016 2553 972 2059 
L 3022 2063 
z
" transform="scale(0.015625)"/>
       <path id="DejaVuSans-72" d="M 2631 2963 
Q 2534 3019 2420 3045 
Q 2306 3072 2169 3072 
Q 1681 3072 1420 2755 
Q 1159 2438 1159 1844 
L 1159 0 
L 581 0 
L 581 3500 
L 1159 3500 
L 1159 2956 
Q 1341 3275 1631 3429 
Q 1922 3584 2338 3584 
Q 2397 3584 2469 3576 
Q 2541 3569 2628 3553 
L 2631 2963 
z
" transform="scale(0.015625)"/>
       <path id="DejaVuSans-20" transform="scale(0.015625)"/>
       <path id="DejaVuSans-4c" d="M 628 4666 
L 1259 4666 
L 1259 531 
L 3531 531 
L 3531 0 
L 628 0 
L 628 4666 
z
" transform="scale(0.015625)"/>
       <path id="DejaVuSans-73" d="M 2834 3397 
L 2834 2853 
Q 2591 2978 2328 3040 
Q 2066 3103 1784 3103 
Q 1356 3103 1142 2972 
Q 928 2841 928 2578 
Q 928 2378 1081 2264 
Q 1234 2150 1697 2047 
L 1894 2003 
Q 2506 1872 2764 1633 
Q 3022 1394 3022 966 
Q 3022 478 2636 193 
Q 2250 -91 1575 -91 
Q 1294 -91 989 -36 
Q 684 19 347 128 
L 347 722 
Q 666 556 975 473 
Q 1284 391 1588 391 
Q 1994 391 2212 530 
Q 2431 669 2431 922 
Q 2431 1156 2273 1281 
Q 2116 1406 1581 1522 
L 1381 1569 
Q 847 1681 609 1914 
Q 372 2147 372 2553 
Q 372 3047 722 3315 
Q 1072 3584 1716 3584 
Q 2034 3584 2315 3537 
Q 2597 3491 2834 3397 
z
" transform="scale(0.015625)"/>
      </defs>
      <use xlink:href="#DejaVuSans-48"/>
      <use xlink:href="#DejaVuSans-75" x="75.195312"/>
      <use xlink:href="#DejaVuSans-62" x="138.574219"/>
      <use xlink:href="#DejaVuSans-65" x="202.050781"/>
      <use xlink:href="#DejaVuSans-72" x="263.574219"/>
      <use xlink:href="#DejaVuSans-20" x="304.6875"/>
      <use xlink:href="#DejaVuSans-4c" x="336.474609"/>
      <use xlink:href="#DejaVuSans-6f" x="390.4375"/>
      <use xlink:href="#DejaVuSans-73" x="451.619141"/>
      <use xlink:href="#DejaVuSans-73" x="503.71875"/>
     </g>
    </g>
   </g>
   <g id="line2d_12">
    <path d="M 105.149034 55.628949 
L 111.414943 144.629426 
L 117.680852 167.571481 
L 123.946761 175.408831 
L 130.21267 182.367666 
L 136.47858 189.539839 
L 142.744489 193.733848 
L 149.010398 197.2191 
L 155.276307 199.669206 
L 161.542216 203.093557 
L 167.808125 205.249001 
L 174.074034 207.274255 
L 180.339943 208.827247 
L 186.605852 210.424183 
L 192.871761 211.469358 
L 199.13767 213.0621 
L 205.40358 213.879897 
L 211.669489 214.762424 
L 217.935398 216.449801 
L 224.201307 216.401845 
L 230.467216 226.158145 
L 236.733125 227.444191 
L 242.999034 227.845339 
L 249.264943 228.28095 
L 255.530852 228.566677 
L 261.796761 228.822501 
L 268.06267 229.093276 
L 274.32858 229.326125 
L 280.594489 229.511929 
L 286.860398 229.720344 
L 293.126307 229.930036 
L 299.392216 230.16252 
L 305.658125 230.317327 
L 311.924034 230.502402 
L 318.189943 230.648274 
L 324.455852 231.877977 
L 330.721761 232.881578 
L 336.98767 233.007028 
L 343.25358 233.094004 
L 349.519489 233.148706 
L 355.785398 233.199397 
L 362.051307 233.264675 
L 368.317216 233.331776 
L 374.583125 233.352563 
L 380.849034 233.383561 
L 387.114943 233.425681 
L 393.380852 233.503723 
L 399.646761 233.535268 
L 405.91267 233.57593 
L 412.17858 233.585959 
L 418.444489 233.760641 
L 424.710398 233.778328 
L 430.976307 234.175465 
L 437.242216 234.198257 
L 443.508125 234.210839 
L 449.774034 234.22105 
L 456.039943 234.219044 
L 462.305852 234.2546 
L 468.571761 234.243842 
L 474.83767 234.263353 
L 481.10358 234.27174 
L 487.369489 234.264994 
L 493.635398 234.281404 
L 499.901307 234.293621 
L 506.167216 234.611258 
L 512.433125 234.675077 
L 518.699034 234.692582 
L 524.964943 234.689664 
L 531.230852 234.743455 
L 537.496761 234.745825 
L 543.76267 234.755307 
L 550.02858 234.778464 
L 556.294489 234.789404 
L 562.560398 234.803445 
L 568.826307 234.820038 
L 575.092216 234.834807 
L 581.358125 234.862888 
L 587.624034 234.869087 
L 593.889943 234.881122 
L 600.155852 234.892974 
L 606.421761 234.910114 
L 612.68767 234.933818 
L 618.95358 234.941294 
L 625.219489 234.941476 
L 631.485398 234.965727 
L 637.751307 234.960804 
L 644.017216 234.971927 
L 650.283125 234.981226 
L 656.549034 235.009854 
L 662.814943 235.029729 
L 669.080852 235.028453 
L 675.346761 235.046322 
L 681.61267 235.052157 
L 687.87858 235.073855 
L 694.144489 235.070391 
L 700.410398 235.089719 
L 706.676307 235.103759 
L 712.942216 235.108865 
L 719.208125 235.128922 
L 725.474034 235.124181 
L 731.739943 235.14515 
L 738.005852 235.169037 
L 744.271761 235.174507 
L 750.53767 235.174689 
L 756.80358 235.17086 
L 763.069489 235.19347 
L 769.335398 235.1973 
L 775.601307 235.205505 
L 781.867216 235.210793 
" clip-path="url(#pc7f449620f)" style="fill: none; stroke-dasharray: 4,6.6; stroke-dashoffset: 0; stroke: #1f77b4; stroke-width: 4"/>
   </g>
   <g id="line2d_13">
    <path d="M 105.149034 154.52011 
L 111.414943 210.434577 
L 117.680852 220.224609 
L 123.946761 243.599722 
L 130.21267 279.6143 
L 136.47858 288.132873 
L 142.744489 292.48096 
L 149.010398 295.099184 
L 155.276307 297.607092 
L 161.542216 300.366083 
L 167.808125 301.458849 
L 174.074034 303.160083 
L 180.339943 304.187571 
L 186.605852 305.143399 
L 192.871761 306.014256 
L 199.13767 307.251982 
L 205.40358 307.905307 
L 211.669489 308.602759 
L 217.935398 309.327014 
L 224.201307 310.003132 
L 230.467216 315.370865 
L 236.733125 316.257039 
L 242.999034 316.701038 
L 249.264943 317.004999 
L 255.530852 317.219431 
L 261.796761 317.552202 
L 268.06267 317.59797 
L 274.32858 317.846135 
L 280.594489 317.969032 
L 286.860398 317.93694 
L 293.126307 318.223397 
L 299.392216 318.295604 
L 305.658125 318.526994 
L 311.924034 318.454969 
L 318.189943 318.652079 
L 324.455852 319.206576 
L 330.721761 386.082976 
L 336.98767 386.103398 
L 343.25358 386.141507 
L 349.519489 386.111421 
L 355.785398 386.177428 
L 362.051307 386.13312 
L 368.317216 386.105769 
L 374.583125 386.150807 
L 380.849034 386.140049 
L 387.114943 386.107045 
L 393.380852 386.179981 
L 399.646761 386.180346 
L 405.91267 386.127102 
L 412.17858 386.064742 
L 418.444489 386.157736 
L 424.710398 386.115068 
L 430.976307 417.763325 
L 437.242216 417.700235 
L 443.508125 417.831338 
L 449.774034 417.711358 
L 456.039943 417.708076 
L 462.305852 417.768066 
L 468.571761 417.746002 
L 474.83767 417.725398 
L 481.10358 417.742173 
L 487.369489 417.757855 
L 493.635398 417.778277 
L 499.901307 417.684554 
L 506.167216 448.301676 
L 512.433125 448.301676 
L 518.699034 448.301676 
L 524.964943 448.301676 
L 531.230852 448.301676 
L 537.496761 448.301676 
L 543.76267 448.301676 
L 550.02858 448.301676 
L 556.294489 448.301676 
L 562.560398 448.301676 
L 568.826307 448.301676 
L 575.092216 448.301676 
L 581.358125 448.301676 
L 587.624034 448.301676 
L 593.889943 448.301676 
L 600.155852 448.301676 
L 606.421761 448.301676 
L 612.68767 448.301676 
L 618.95358 448.301676 
L 625.219489 448.301676 
L 631.485398 448.301676 
L 637.751307 448.301676 
L 644.017216 448.301676 
L 650.283125 448.301676 
L 656.549034 448.301676 
L 662.814943 448.301676 
L 669.080852 448.301676 
L 675.346761 448.301676 
L 681.61267 448.301676 
L 687.87858 448.301676 
L 694.144489 448.301676 
L 700.410398 448.301676 
L 706.676307 448.301676 
L 712.942216 448.301676 
L 719.208125 448.301676 
L 725.474034 448.301676 
L 731.739943 448.301676 
L 738.005852 448.301676 
L 744.271761 448.301676 
L 750.53767 448.301676 
L 756.80358 448.301676 
L 763.069489 448.301676 
L 769.335398 448.301676 
L 775.601307 448.301676 
L 781.867216 448.301676 
" clip-path="url(#pc7f449620f)" style="fill: none; stroke-dasharray: 25.6,6.4,4,6.4; stroke-dashoffset: 0; stroke: #ff7f0e; stroke-width: 4"/>
   </g>
   <g id="line2d_14">
    <path d="M 105.149034 131.079719 
L 111.414943 137.623547 
L 117.680852 175.803962 
L 123.946761 181.93789 
L 130.21267 190.420542 
L 136.47858 175.230137 
L 142.744489 187.729747 
L 149.010398 196.839467 
L 155.276307 197.803136 
L 161.542216 201.83158 
L 167.808125 192.349885 
L 174.074034 196.402398 
L 180.339943 202.849403 
L 186.605852 199.731567 
L 192.871761 187.720083 
L 199.13767 205.558068 
L 205.40358 203.063653 
L 211.669489 207.041042 
L 217.935398 201.566275 
L 224.201307 208.477154 
L 230.467216 212.333469 
L 236.733125 213.028914 
L 242.999034 213.564448 
L 249.264943 212.240475 
L 255.530852 211.691084 
L 261.796761 212.704531 
L 268.06267 211.819816 
L 274.32858 213.903418 
L 280.594489 212.684656 
L 286.860398 212.137088 
L 293.126307 212.898541 
L 299.392216 211.547764 
L 305.658125 211.157556 
L 311.924034 212.338939 
L 318.189943 213.651242 
L 324.455852 213.665829 
L 330.721761 216.1225 
L 336.98767 215.703117 
L 343.25358 215.925208 
L 349.519489 215.933413 
L 355.785398 215.814892 
L 362.051307 215.681783 
L 368.317216 215.917732 
L 374.583125 216.294811 
L 380.849034 215.909162 
L 387.114943 216.069439 
L 393.380852 215.355577 
L 399.646761 215.453858 
L 405.91267 215.450029 
L 412.17858 215.785717 
L 418.444489 215.686342 
L 424.710398 215.709317 
L 430.976307 216.394369 
L 437.242216 216.510155 
L 443.508125 216.563763 
L 449.774034 216.729693 
L 456.039943 216.576162 
L 462.305852 216.608437 
L 468.571761 216.497574 
L 474.83767 216.672073 
L 481.10358 216.59932 
L 487.369489 216.653292 
L 493.635398 216.575615 
L 499.901307 216.549905 
L 506.167216 217.119719 
L 512.433125 217.125918 
L 518.699034 217.207972 
L 524.964943 217.200131 
L 531.230852 217.225112 
L 537.496761 217.202866 
L 543.76267 217.167127 
L 550.02858 217.280361 
L 556.294489 217.221647 
L 562.560398 217.329775 
L 568.826307 217.291666 
L 575.092216 217.132483 
L 581.358125 217.203048 
L 587.624034 217.170956 
L 593.889943 217.182809 
L 600.155852 217.221829 
L 606.421761 217.288748 
L 612.68767 217.166033 
L 618.95358 217.167127 
L 625.219489 217.291848 
L 631.485398 217.269238 
L 637.751307 217.31537 
L 644.017216 217.260668 
L 650.283125 217.292942 
L 656.549034 217.376089 
L 662.814943 217.310629 
L 669.080852 217.24918 
L 675.346761 217.265956 
L 681.61267 217.276349 
L 687.87858 217.256292 
L 694.144489 217.298048 
L 700.410398 217.363872 
L 706.676307 217.289842 
L 712.942216 217.339257 
L 719.208125 217.24918 
L 725.474034 217.273614 
L 731.739943 217.319017 
L 738.005852 217.217818 
L 744.271761 217.245351 
L 750.53767 217.27015 
L 756.80358 217.294036 
L 763.069489 217.161657 
L 769.335398 217.288931 
L 775.601307 217.287107 
L 781.867216 217.242434 
" clip-path="url(#pc7f449620f)" style="fill: none; stroke: #e94e77; stroke-width: 4; stroke-linecap: round"/>
   </g>
   <g id="line2d_15">
    <path d="M 105.149034 147.086279 
L 111.414943 167.405186 
L 117.680852 178.59541 
L 123.946761 188.971666 
L 130.21267 190.55201 
L 136.47858 188.000157 
L 142.744489 190.151226 
L 149.010398 196.20857 
L 155.276307 189.875709 
L 161.542216 201.793471 
L 167.808125 200.715475 
L 174.074034 200.394191 
L 180.339943 205.172054 
L 186.605852 203.012233 
L 192.871761 205.293492 
L 199.13767 202.446614 
L 205.40358 206.925985 
L 211.669489 207.128747 
L 217.935398 205.36187 
L 224.201307 208.353527 
L 230.467216 212.385436 
L 236.733125 212.3858 
L 242.999034 212.386165 
L 249.264943 212.256339 
L 255.530852 211.554146 
L 261.796761 211.836956 
L 268.06267 212.005985 
L 274.32858 211.822916 
L 280.594489 211.802129 
L 286.860398 210.126786 
L 293.126307 212.18869 
L 299.392216 211.833856 
L 305.658125 210.551275 
L 311.924034 211.494886 
L 318.189943 211.322027 
L 324.455852 211.031377 
L 330.721761 211.391863 
L 336.98767 211.186001 
L 343.25358 211.216817 
L 349.519489 211.026271 
L 355.785398 210.749296 
L 362.051307 210.710822 
L 368.317216 210.666149 
" clip-path="url(#pc7f449620f)" style="fill: none; stroke-dasharray: 14.8,6.4; stroke-dashoffset: 0; stroke: #2ca02c; stroke-width: 4"/>
   </g>
   <g id="patch_3">
    <path d="M 71.313125 467.935313 
L 71.313125 35.995312 
" style="fill: none; stroke: #4b4b4b; stroke-width: 2; stroke-linejoin: miter; stroke-linecap: square"/>
   </g>
   <g id="patch_4">
    <path d="M 815.703125 467.935313 
L 815.703125 35.995312 
" style="fill: none; stroke: #cccccc; stroke-width: 1.25; stroke-linejoin: miter; stroke-linecap: square"/>
   </g>
   <g id="patch_5">
    <path d="M 71.313125 467.935313 
L 815.703125 467.935313 
" style="fill: none; stroke: #4b4b4b; stroke-width: 2; stroke-linejoin: miter; stroke-linecap: square"/>
   </g>
   <g id="patch_6">
    <path d="M 71.313125 35.995312 
L 815.703125 35.995312 
" style="fill: none; stroke: #cccccc; stroke-width: 1.25; stroke-linejoin: miter; stroke-linecap: square"/>
   </g>
   <g id="text_14">
    <!-- PEMS03 -->
    <g style="fill: #262626" transform="translate(383.433125 29.995312) scale(0.3 -0.3)">
     <defs>
      <path id="DejaVuSans-50" d="M 1259 4147 
L 1259 2394 
L 2053 2394 
Q 2494 2394 2734 2622 
Q 2975 2850 2975 3272 
Q 2975 3691 2734 3919 
Q 2494 4147 2053 4147 
L 1259 4147 
z
M 628 4666 
L 2053 4666 
Q 2838 4666 3239 4311 
Q 3641 3956 3641 3272 
Q 3641 2581 3239 2228 
Q 2838 1875 2053 1875 
L 1259 1875 
L 1259 0 
L 628 0 
L 628 4666 
z
" transform="scale(0.015625)"/>
      <path id="DejaVuSans-4d" d="M 628 4666 
L 1569 4666 
L 2759 1491 
L 3956 4666 
L 4897 4666 
L 4897 0 
L 4281 0 
L 4281 4097 
L 3078 897 
L 2444 897 
L 1241 4097 
L 1241 0 
L 628 0 
L 628 4666 
z
" transform="scale(0.015625)"/>
      <path id="DejaVuSans-53" d="M 3425 4513 
L 3425 3897 
Q 3066 4069 2747 4153 
Q 2428 4238 2131 4238 
Q 1616 4238 1336 4038 
Q 1056 3838 1056 3469 
Q 1056 3159 1242 3001 
Q 1428 2844 1947 2747 
L 2328 2669 
Q 3034 2534 3370 2195 
Q 3706 1856 3706 1288 
Q 3706 609 3251 259 
Q 2797 -91 1919 -91 
Q 1588 -91 1214 -16 
Q 841 59 441 206 
L 441 856 
Q 825 641 1194 531 
Q 1563 422 1919 422 
Q 2459 422 2753 634 
Q 3047 847 3047 1241 
Q 3047 1584 2836 1778 
Q 2625 1972 2144 2069 
L 1759 2144 
Q 1053 2284 737 2584 
Q 422 2884 422 3419 
Q 422 4038 858 4394 
Q 1294 4750 2059 4750 
Q 2388 4750 2728 4690 
Q 3069 4631 3425 4513 
z
" transform="scale(0.015625)"/>
      <path id="DejaVuSans-33" d="M 2597 2516 
Q 3050 2419 3304 2112 
Q 3559 1806 3559 1356 
Q 3559 666 3084 287 
Q 2609 -91 1734 -91 
Q 1441 -91 1130 -33 
Q 819 25 488 141 
L 488 750 
Q 750 597 1062 519 
Q 1375 441 1716 441 
Q 2309 441 2620 675 
Q 2931 909 2931 1356 
Q 2931 1769 2642 2001 
Q 2353 2234 1838 2234 
L 1294 2234 
L 1294 2753 
L 1863 2753 
Q 2328 2753 2575 2939 
Q 2822 3125 2822 3475 
Q 2822 3834 2567 4026 
Q 2313 4219 1838 4219 
Q 1578 4219 1281 4162 
Q 984 4106 628 3988 
L 628 4550 
Q 988 4650 1302 4700 
Q 1616 4750 1894 4750 
Q 2613 4750 3031 4423 
Q 3450 4097 3450 3541 
Q 3450 3153 3228 2886 
Q 3006 2619 2597 2516 
z
" transform="scale(0.015625)"/>
     </defs>
     <use xlink:href="#DejaVuSans-50"/>
     <use xlink:href="#DejaVuSans-45" x="60.302734"/>
     <use xlink:href="#DejaVuSans-4d" x="123.486328"/>
     <use xlink:href="#DejaVuSans-53" x="209.765625"/>
     <use xlink:href="#DejaVuSans-30" x="273.242188"/>
     <use xlink:href="#DejaVuSans-33" x="336.865234"/>
    </g>
   </g>
   <g id="legend_1">
    <g id="patch_7">
     <path d="M 86.713125 456.935313 
L 385.187813 456.935313 
Q 389.587813 456.935313 389.587813 452.535312 
L 389.587813 325.567812 
Q 389.587813 321.167812 385.187813 321.167812 
L 86.713125 321.167812 
Q 82.313125 321.167812 82.313125 325.567812 
L 82.313125 452.535312 
Q 82.313125 456.935313 86.713125 456.935313 
z
" style="fill: #ffffff; opacity: 0.8; stroke: #cccccc; stroke-linejoin: miter"/>
    </g>
    <g id="line2d_16">
     <path d="M 91.113125 338.984375 
L 113.113125 338.984375 
L 135.113125 338.984375 
" style="fill: none; stroke-dasharray: 4,6.6; stroke-dashoffset: 0; stroke: #1f77b4; stroke-width: 4"/>
    </g>
    <g id="text_15">
     <!-- Pred. Train Loss (M1) -->
     <g style="fill: #262626" transform="translate(152.713125 346.684375) scale(0.22 -0.22)">
      <defs>
       <path id="DejaVuSans-64" d="M 2906 2969 
L 2906 4863 
L 3481 4863 
L 3481 0 
L 2906 0 
L 2906 525 
Q 2725 213 2448 61 
Q 2172 -91 1784 -91 
Q 1150 -91 751 415 
Q 353 922 353 1747 
Q 353 2572 751 3078 
Q 1150 3584 1784 3584 
Q 2172 3584 2448 3432 
Q 2725 3281 2906 2969 
z
M 947 1747 
Q 947 1113 1208 752 
Q 1469 391 1925 391 
Q 2381 391 2643 752 
Q 2906 1113 2906 1747 
Q 2906 2381 2643 2742 
Q 2381 3103 1925 3103 
Q 1469 3103 1208 2742 
Q 947 2381 947 1747 
z
" transform="scale(0.015625)"/>
       <path id="DejaVuSans-2e" d="M 684 794 
L 1344 794 
L 1344 0 
L 684 0 
L 684 794 
z
" transform="scale(0.015625)"/>
       <path id="DejaVuSans-54" d="M -19 4666 
L 3928 4666 
L 3928 4134 
L 2272 4134 
L 2272 0 
L 1638 0 
L 1638 4134 
L -19 4134 
L -19 4666 
z
" transform="scale(0.015625)"/>
       <path id="DejaVuSans-61" d="M 2194 1759 
Q 1497 1759 1228 1600 
Q 959 1441 959 1056 
Q 959 750 1161 570 
Q 1363 391 1709 391 
Q 2188 391 2477 730 
Q 2766 1069 2766 1631 
L 2766 1759 
L 2194 1759 
z
M 3341 1997 
L 3341 0 
L 2766 0 
L 2766 531 
Q 2569 213 2275 61 
Q 1981 -91 1556 -91 
Q 1019 -91 701 211 
Q 384 513 384 1019 
Q 384 1609 779 1909 
Q 1175 2209 1959 2209 
L 2766 2209 
L 2766 2266 
Q 2766 2663 2505 2880 
Q 2244 3097 1772 3097 
Q 1472 3097 1187 3025 
Q 903 2953 641 2809 
L 641 3341 
Q 956 3463 1253 3523 
Q 1550 3584 1831 3584 
Q 2591 3584 2966 3190 
Q 3341 2797 3341 1997 
z
" transform="scale(0.015625)"/>
       <path id="DejaVuSans-69" d="M 603 3500 
L 1178 3500 
L 1178 0 
L 603 0 
L 603 3500 
z
M 603 4863 
L 1178 4863 
L 1178 4134 
L 603 4134 
L 603 4863 
z
" transform="scale(0.015625)"/>
       <path id="DejaVuSans-6e" d="M 3513 2113 
L 3513 0 
L 2938 0 
L 2938 2094 
Q 2938 2591 2744 2837 
Q 2550 3084 2163 3084 
Q 1697 3084 1428 2787 
Q 1159 2491 1159 1978 
L 1159 0 
L 581 0 
L 581 3500 
L 1159 3500 
L 1159 2956 
Q 1366 3272 1645 3428 
Q 1925 3584 2291 3584 
Q 2894 3584 3203 3211 
Q 3513 2838 3513 2113 
z
" transform="scale(0.015625)"/>
       <path id="DejaVuSans-28" d="M 1984 4856 
Q 1566 4138 1362 3434 
Q 1159 2731 1159 2009 
Q 1159 1288 1364 580 
Q 1569 -128 1984 -844 
L 1484 -844 
Q 1016 -109 783 600 
Q 550 1309 550 2009 
Q 550 2706 781 3412 
Q 1013 4119 1484 4856 
L 1984 4856 
z
" transform="scale(0.015625)"/>
       <path id="DejaVuSans-29" d="M 513 4856 
L 1013 4856 
Q 1481 4119 1714 3412 
Q 1947 2706 1947 2009 
Q 1947 1309 1714 600 
Q 1481 -109 1013 -844 
L 513 -844 
Q 928 -128 1133 580 
Q 1338 1288 1338 2009 
Q 1338 2731 1133 3434 
Q 928 4138 513 4856 
z
" transform="scale(0.015625)"/>
      </defs>
      <use xlink:href="#DejaVuSans-50"/>
      <use xlink:href="#DejaVuSans-72" x="58.552734"/>
      <use xlink:href="#DejaVuSans-65" x="97.416016"/>
      <use xlink:href="#DejaVuSans-64" x="158.939453"/>
      <use xlink:href="#DejaVuSans-2e" x="222.416016"/>
      <use xlink:href="#DejaVuSans-20" x="254.203125"/>
      <use xlink:href="#DejaVuSans-54" x="285.990234"/>
      <use xlink:href="#DejaVuSans-72" x="332.324219"/>
      <use xlink:href="#DejaVuSans-61" x="373.4375"/>
      <use xlink:href="#DejaVuSans-69" x="434.716797"/>
      <use xlink:href="#DejaVuSans-6e" x="462.5"/>
      <use xlink:href="#DejaVuSans-20" x="525.878906"/>
      <use xlink:href="#DejaVuSans-4c" x="557.666016"/>
      <use xlink:href="#DejaVuSans-6f" x="611.628906"/>
      <use xlink:href="#DejaVuSans-73" x="672.810547"/>
      <use xlink:href="#DejaVuSans-73" x="724.910156"/>
      <use xlink:href="#DejaVuSans-20" x="777.009766"/>
      <use xlink:href="#DejaVuSans-28" x="808.796875"/>
      <use xlink:href="#DejaVuSans-4d" x="847.810547"/>
      <use xlink:href="#DejaVuSans-31" x="934.089844"/>
      <use xlink:href="#DejaVuSans-29" x="997.712891"/>
     </g>
    </g>
    <g id="line2d_17">
     <path d="M 91.113125 371.27625 
L 113.113125 371.27625 
L 135.113125 371.27625 
" style="fill: none; stroke-dasharray: 25.6,6.4,4,6.4; stroke-dashoffset: 0; stroke: #ff7f0e; stroke-width: 4"/>
    </g>
    <g id="text_16">
     <!-- Rec. Train Loss (M1) -->
     <g style="fill: #262626" transform="translate(152.713125 378.97625) scale(0.22 -0.22)">
      <defs>
       <path id="DejaVuSans-52" d="M 2841 2188 
Q 3044 2119 3236 1894 
Q 3428 1669 3622 1275 
L 4263 0 
L 3584 0 
L 2988 1197 
Q 2756 1666 2539 1819 
Q 2322 1972 1947 1972 
L 1259 1972 
L 1259 0 
L 628 0 
L 628 4666 
L 2053 4666 
Q 2853 4666 3247 4331 
Q 3641 3997 3641 3322 
Q 3641 2881 3436 2590 
Q 3231 2300 2841 2188 
z
M 1259 4147 
L 1259 2491 
L 2053 2491 
Q 2509 2491 2742 2702 
Q 2975 2913 2975 3322 
Q 2975 3731 2742 3939 
Q 2509 4147 2053 4147 
L 1259 4147 
z
" transform="scale(0.015625)"/>
      </defs>
      <use xlink:href="#DejaVuSans-52"/>
      <use xlink:href="#DejaVuSans-65" x="64.982422"/>
      <use xlink:href="#DejaVuSans-63" x="126.505859"/>
      <use xlink:href="#DejaVuSans-2e" x="181.486328"/>
      <use xlink:href="#DejaVuSans-20" x="213.273438"/>
      <use xlink:href="#DejaVuSans-54" x="245.060547"/>
      <use xlink:href="#DejaVuSans-72" x="291.394531"/>
      <use xlink:href="#DejaVuSans-61" x="332.507812"/>
      <use xlink:href="#DejaVuSans-69" x="393.787109"/>
      <use xlink:href="#DejaVuSans-6e" x="421.570312"/>
      <use xlink:href="#DejaVuSans-20" x="484.949219"/>
      <use xlink:href="#DejaVuSans-4c" x="516.736328"/>
      <use xlink:href="#DejaVuSans-6f" x="570.699219"/>
      <use xlink:href="#DejaVuSans-73" x="631.880859"/>
      <use xlink:href="#DejaVuSans-73" x="683.980469"/>
      <use xlink:href="#DejaVuSans-20" x="736.080078"/>
      <use xlink:href="#DejaVuSans-28" x="767.867188"/>
      <use xlink:href="#DejaVuSans-4d" x="806.880859"/>
      <use xlink:href="#DejaVuSans-31" x="893.160156"/>
      <use xlink:href="#DejaVuSans-29" x="956.783203"/>
     </g>
    </g>
    <g id="line2d_18">
     <path d="M 91.113125 403.568125 
L 113.113125 403.568125 
L 135.113125 403.568125 
" style="fill: none; stroke: #e94e77; stroke-width: 4; stroke-linecap: round"/>
    </g>
    <g id="text_17">
     <!-- Pred. Val Loss (M1) -->
     <g style="fill: #262626" transform="translate(152.713125 411.268125) scale(0.22 -0.22)">
      <defs>
       <path id="DejaVuSans-56" d="M 1831 0 
L 50 4666 
L 709 4666 
L 2188 738 
L 3669 4666 
L 4325 4666 
L 2547 0 
L 1831 0 
z
" transform="scale(0.015625)"/>
       <path id="DejaVuSans-6c" d="M 603 4863 
L 1178 4863 
L 1178 0 
L 603 0 
L 603 4863 
z
" transform="scale(0.015625)"/>
      </defs>
      <use xlink:href="#DejaVuSans-50"/>
      <use xlink:href="#DejaVuSans-72" x="58.552734"/>
      <use xlink:href="#DejaVuSans-65" x="97.416016"/>
      <use xlink:href="#DejaVuSans-64" x="158.939453"/>
      <use xlink:href="#DejaVuSans-2e" x="222.416016"/>
      <use xlink:href="#DejaVuSans-20" x="254.203125"/>
      <use xlink:href="#DejaVuSans-56" x="285.990234"/>
      <use xlink:href="#DejaVuSans-61" x="346.648438"/>
      <use xlink:href="#DejaVuSans-6c" x="407.927734"/>
      <use xlink:href="#DejaVuSans-20" x="435.710938"/>
      <use xlink:href="#DejaVuSans-4c" x="467.498047"/>
      <use xlink:href="#DejaVuSans-6f" x="521.460938"/>
      <use xlink:href="#DejaVuSans-73" x="582.642578"/>
      <use xlink:href="#DejaVuSans-73" x="634.742188"/>
      <use xlink:href="#DejaVuSans-20" x="686.841797"/>
      <use xlink:href="#DejaVuSans-28" x="718.628906"/>
      <use xlink:href="#DejaVuSans-4d" x="757.642578"/>
      <use xlink:href="#DejaVuSans-31" x="843.921875"/>
      <use xlink:href="#DejaVuSans-29" x="907.544922"/>
     </g>
    </g>
    <g id="line2d_19">
     <path d="M 91.113125 435.86 
L 113.113125 435.86 
L 135.113125 435.86 
" style="fill: none; stroke-dasharray: 14.8,6.4; stroke-dashoffset: 0; stroke: #2ca02c; stroke-width: 4"/>
    </g>
    <g id="text_18">
     <!-- Pred. Val Loss (M4) -->
     <g style="fill: #262626" transform="translate(152.713125 443.56) scale(0.22 -0.22)">
      <use xlink:href="#DejaVuSans-50"/>
      <use xlink:href="#DejaVuSans-72" x="58.552734"/>
      <use xlink:href="#DejaVuSans-65" x="97.416016"/>
      <use xlink:href="#DejaVuSans-64" x="158.939453"/>
      <use xlink:href="#DejaVuSans-2e" x="222.416016"/>
      <use xlink:href="#DejaVuSans-20" x="254.203125"/>
      <use xlink:href="#DejaVuSans-56" x="285.990234"/>
      <use xlink:href="#DejaVuSans-61" x="346.648438"/>
      <use xlink:href="#DejaVuSans-6c" x="407.927734"/>
      <use xlink:href="#DejaVuSans-20" x="435.710938"/>
      <use xlink:href="#DejaVuSans-4c" x="467.498047"/>
      <use xlink:href="#DejaVuSans-6f" x="521.460938"/>
      <use xlink:href="#DejaVuSans-73" x="582.642578"/>
      <use xlink:href="#DejaVuSans-73" x="634.742188"/>
      <use xlink:href="#DejaVuSans-20" x="686.841797"/>
      <use xlink:href="#DejaVuSans-28" x="718.628906"/>
      <use xlink:href="#DejaVuSans-4d" x="757.642578"/>
      <use xlink:href="#DejaVuSans-34" x="843.921875"/>
      <use xlink:href="#DejaVuSans-29" x="907.544922"/>
     </g>
    </g>
   </g>
  </g>
  <g id="axes_2">
   <g id="patch_8">
    <path d="M 411.783125 173.995312 
L 757.383125 173.995312 
L 757.383125 47.275312 
L 411.783125 47.275312 
z
" style="fill: #ffffff"/>
   </g>
   <g id="matplotlib.axis_3">
    <g id="xtick_7">
     <g id="line2d_20">
      <path d="M 411.783125 173.995312 
L 411.783125 47.275312 
" clip-path="url(#p8e7bc1cd88)" style="fill: none; stroke: #cccccc; stroke-linecap: round"/>
     </g>
     <g id="text_19">
      <!-- 20 -->
      <g style="fill: #262626" transform="translate(404.784375 191.853594) scale(0.11 -0.11)">
       <use xlink:href="#DejaVuSans-32"/>
       <use xlink:href="#DejaVuSans-30" x="63.623047"/>
      </g>
     </g>
    </g>
    <g id="xtick_8">
     <g id="line2d_21">
      <path d="M 454.983125 173.995312 
L 454.983125 47.275312 
" clip-path="url(#p8e7bc1cd88)" style="fill: none; stroke: #cccccc; stroke-linecap: round"/>
     </g>
     <g id="text_20">
      <!-- 25 -->
      <g style="fill: #262626" transform="translate(447.984375 191.853594) scale(0.11 -0.11)">
       <use xlink:href="#DejaVuSans-32"/>
       <use xlink:href="#DejaVuSans-35" x="63.623047"/>
      </g>
     </g>
    </g>
    <g id="xtick_9">
     <g id="line2d_22">
      <path d="M 498.183125 173.995312 
L 498.183125 47.275312 
" clip-path="url(#p8e7bc1cd88)" style="fill: none; stroke: #cccccc; stroke-linecap: round"/>
     </g>
     <g id="text_21">
      <!-- 30 -->
      <g style="fill: #262626" transform="translate(491.184375 191.853594) scale(0.11 -0.11)">
       <use xlink:href="#DejaVuSans-33"/>
       <use xlink:href="#DejaVuSans-30" x="63.623047"/>
      </g>
     </g>
    </g>
    <g id="xtick_10">
     <g id="line2d_23">
      <path d="M 541.383125 173.995312 
L 541.383125 47.275312 
" clip-path="url(#p8e7bc1cd88)" style="fill: none; stroke: #cccccc; stroke-linecap: round"/>
     </g>
     <g id="text_22">
      <!-- 35 -->
      <g style="fill: #262626" transform="translate(534.384375 191.853594) scale(0.11 -0.11)">
       <use xlink:href="#DejaVuSans-33"/>
       <use xlink:href="#DejaVuSans-35" x="63.623047"/>
      </g>
     </g>
    </g>
    <g id="xtick_11">
     <g id="line2d_24">
      <path d="M 584.583125 173.995312 
L 584.583125 47.275312 
" clip-path="url(#p8e7bc1cd88)" style="fill: none; stroke: #cccccc; stroke-linecap: round"/>
     </g>
     <g id="text_23">
      <!-- 40 -->
      <g style="fill: #262626" transform="translate(577.584375 191.853594) scale(0.11 -0.11)">
       <use xlink:href="#DejaVuSans-34"/>
       <use xlink:href="#DejaVuSans-30" x="63.623047"/>
      </g>
     </g>
    </g>
    <g id="xtick_12">
     <g id="line2d_25">
      <path d="M 627.783125 173.995312 
L 627.783125 47.275312 
" clip-path="url(#p8e7bc1cd88)" style="fill: none; stroke: #cccccc; stroke-linecap: round"/>
     </g>
     <g id="text_24">
      <!-- 45 -->
      <g style="fill: #262626" transform="translate(620.784375 191.853594) scale(0.11 -0.11)">
       <use xlink:href="#DejaVuSans-34"/>
       <use xlink:href="#DejaVuSans-35" x="63.623047"/>
      </g>
     </g>
    </g>
    <g id="xtick_13">
     <g id="line2d_26">
      <path d="M 670.983125 173.995312 
L 670.983125 47.275312 
" clip-path="url(#p8e7bc1cd88)" style="fill: none; stroke: #cccccc; stroke-linecap: round"/>
     </g>
     <g id="text_25">
      <!-- 50 -->
      <g style="fill: #262626" transform="translate(663.984375 191.853594) scale(0.11 -0.11)">
       <use xlink:href="#DejaVuSans-35"/>
       <use xlink:href="#DejaVuSans-30" x="63.623047"/>
      </g>
     </g>
    </g>
    <g id="xtick_14">
     <g id="line2d_27">
      <path d="M 714.183125 173.995312 
L 714.183125 47.275312 
" clip-path="url(#p8e7bc1cd88)" style="fill: none; stroke: #cccccc; stroke-linecap: round"/>
     </g>
     <g id="text_26">
      <!-- 55 -->
      <g style="fill: #262626" transform="translate(707.184375 191.853594) scale(0.11 -0.11)">
       <use xlink:href="#DejaVuSans-35"/>
       <use xlink:href="#DejaVuSans-35" x="63.623047"/>
      </g>
     </g>
    </g>
    <g id="xtick_15">
     <g id="line2d_28">
      <path d="M 757.383125 173.995312 
L 757.383125 47.275312 
" clip-path="url(#p8e7bc1cd88)" style="fill: none; stroke: #cccccc; stroke-linecap: round"/>
     </g>
     <g id="text_27">
      <!-- 60 -->
      <g style="fill: #262626" transform="translate(750.384375 191.853594) scale(0.11 -0.11)">
       <use xlink:href="#DejaVuSans-36"/>
       <use xlink:href="#DejaVuSans-30" x="63.623047"/>
      </g>
     </g>
    </g>
   </g>
   <g id="matplotlib.axis_4">
    <g id="ytick_6">
     <g id="line2d_29">
      <path d="M 411.783125 161.323312 
L 757.383125 161.323312 
" clip-path="url(#p8e7bc1cd88)" style="fill: none; stroke: #cccccc; stroke-linecap: round"/>
     </g>
     <g id="text_28">
      <!-- 12.6 -->
      <g style="fill: #262626" transform="translate(377.790937 165.502453) scale(0.11 -0.11)">
       <use xlink:href="#DejaVuSans-31"/>
       <use xlink:href="#DejaVuSans-32" x="63.623047"/>
       <use xlink:href="#DejaVuSans-2e" x="127.246094"/>
       <use xlink:href="#DejaVuSans-36" x="159.033203"/>
      </g>
     </g>
    </g>
    <g id="ytick_7">
     <g id="line2d_30">
      <path d="M 411.783125 135.979312 
L 757.383125 135.979312 
" clip-path="url(#p8e7bc1cd88)" style="fill: none; stroke: #cccccc; stroke-linecap: round"/>
     </g>
     <g id="text_29">
      <!-- 12.8 -->
      <g style="fill: #262626" transform="translate(377.790937 140.158453) scale(0.11 -0.11)">
       <use xlink:href="#DejaVuSans-31"/>
       <use xlink:href="#DejaVuSans-32" x="63.623047"/>
       <use xlink:href="#DejaVuSans-2e" x="127.246094"/>
       <use xlink:href="#DejaVuSans-38" x="159.033203"/>
      </g>
     </g>
    </g>
    <g id="ytick_8">
     <g id="line2d_31">
      <path d="M 411.783125 110.635312 
L 757.383125 110.635312 
" clip-path="url(#p8e7bc1cd88)" style="fill: none; stroke: #cccccc; stroke-linecap: round"/>
     </g>
     <g id="text_30">
      <!-- 13.0 -->
      <g style="fill: #262626" transform="translate(377.790937 114.814453) scale(0.11 -0.11)">
       <use xlink:href="#DejaVuSans-31"/>
       <use xlink:href="#DejaVuSans-33" x="63.623047"/>
       <use xlink:href="#DejaVuSans-2e" x="127.246094"/>
       <use xlink:href="#DejaVuSans-30" x="159.033203"/>
      </g>
     </g>
    </g>
    <g id="ytick_9">
     <g id="line2d_32">
      <path d="M 411.783125 85.291312 
L 757.383125 85.291312 
" clip-path="url(#p8e7bc1cd88)" style="fill: none; stroke: #cccccc; stroke-linecap: round"/>
     </g>
     <g id="text_31">
      <!-- 13.2 -->
      <g style="fill: #262626" transform="translate(377.790937 89.470453) scale(0.11 -0.11)">
       <use xlink:href="#DejaVuSans-31"/>
       <use xlink:href="#DejaVuSans-33" x="63.623047"/>
       <use xlink:href="#DejaVuSans-2e" x="127.246094"/>
       <use xlink:href="#DejaVuSans-32" x="159.033203"/>
      </g>
     </g>
    </g>
    <g id="ytick_10">
     <g id="line2d_33">
      <path d="M 411.783125 59.947312 
L 757.383125 59.947312 
" clip-path="url(#p8e7bc1cd88)" style="fill: none; stroke: #cccccc; stroke-linecap: round"/>
     </g>
     <g id="text_32">
      <!-- 13.4 -->
      <g style="fill: #262626" transform="translate(377.790937 64.126453) scale(0.11 -0.11)">
       <use xlink:href="#DejaVuSans-31"/>
       <use xlink:href="#DejaVuSans-33" x="63.623047"/>
       <use xlink:href="#DejaVuSans-2e" x="127.246094"/>
       <use xlink:href="#DejaVuSans-34" x="159.033203"/>
      </g>
     </g>
    </g>
   </g>
   <g id="line2d_34">
    <path d="M 411.783125 91.300375 
L 420.423125 118.100388 
L 429.063125 122.933488 
L 437.703125 126.655255 
L 446.343125 117.454116 
L 454.983125 113.636042 
L 463.623125 120.67914 
L 472.263125 114.530685 
L 480.903125 129.01098 
L 489.543125 120.541015 
L 498.183125 116.735613 
L 506.823125 122.02744 
L 515.463125 112.640023 
L 524.103125 109.928215 
L 532.743125 118.138404 
L 541.383125 127.258442 
L 550.023125 127.359818 
L 558.663125 144.432804 
L 567.303125 141.518244 
L 575.943125 143.061693 
L 584.583125 143.118717 
L 593.223125 142.295037 
L 601.863125 141.369981 
L 610.503125 143.009738 
L 619.143125 145.630308 
L 627.783125 142.95018 
L 636.423125 144.064048 
L 645.063125 139.10296 
L 653.703125 139.785981 
L 662.343125 139.75937 
L 670.983125 142.092285 
L 679.623125 141.401661 
L 688.263125 141.561328 
L 696.903125 146.322199 
L 705.543125 147.126871 
L 714.183125 147.499428 
L 722.823125 148.65258 
L 731.463125 147.585597 
L 740.103125 147.809892 
L 748.743125 147.039434 
L 757.383125 148.252144 
" clip-path="url(#p8e7bc1cd88)" style="fill: none; stroke: #e94e77; stroke-width: 5; stroke-linecap: round"/>
   </g>
   <g id="line2d_35">
    <path d="M 411.783125 90.441213 
L 420.423125 118.46154 
L 429.063125 118.464074 
L 437.703125 118.466608 
L 446.343125 117.564362 
L 454.983125 112.684375 
L 463.623125 114.649802 
L 472.263125 115.824496 
L 480.903125 114.552228 
L 489.543125 114.407767 
L 498.183125 102.764733 
L 506.823125 117.094231 
L 515.463125 114.62826 
L 524.103125 105.714775 
L 532.743125 112.272535 
L 541.383125 111.071229 
L 550.023125 109.051312 
L 558.663125 111.556567 
L 567.303125 110.125898 
L 575.943125 110.340055 
L 584.583125 109.015831 
L 593.223125 107.090954 
L 601.863125 106.823575 
L 610.503125 106.513111 
" clip-path="url(#p8e7bc1cd88)" style="fill: none; stroke-dasharray: 18.5,8; stroke-dashoffset: 0; stroke: #2ca02c; stroke-width: 5"/>
   </g>
   <g id="patch_9">
    <path d="M 411.783125 173.995312 
L 411.783125 47.275312 
" style="fill: none; stroke: #4b4b4b; stroke-width: 2; stroke-linejoin: miter; stroke-linecap: square"/>
   </g>
   <g id="patch_10">
    <path d="M 757.383125 173.995312 
L 757.383125 47.275312 
" style="fill: none; stroke: #4b4b4b; stroke-width: 2; stroke-linejoin: miter; stroke-linecap: square"/>
   </g>
   <g id="patch_11">
    <path d="M 411.783125 173.995312 
L 757.383125 173.995312 
" style="fill: none; stroke: #4b4b4b; stroke-width: 2; stroke-linejoin: miter; stroke-linecap: square"/>
   </g>
   <g id="patch_12">
    <path d="M 411.783125 47.275312 
L 757.383125 47.275312 
" style="fill: none; stroke: #4b4b4b; stroke-width: 2; stroke-linejoin: miter; stroke-linecap: square"/>
   </g>
  </g>
 </g>
 <defs>
  <clipPath id="pc7f449620f">
   <rect x="71.313125" y="35.995312" width="744.39" height="431.94"/>
  </clipPath>
  <clipPath id="p8e7bc1cd88">
   <rect x="411.783125" y="47.275312" width="345.6" height="126.72"/>
  </clipPath>
 </defs>
</svg>
