<?xml version="1.0" encoding="utf-8" standalone="no"?>
<!DOCTYPE svg PUBLIC "-//W3C//DTD SVG 1.1//EN"
  "http://www.w3.org/Graphics/SVG/1.1/DTD/svg11.dtd">
<svg xmlns:xlink="http://www.w3.org/1999/xlink" width="822.813125pt" height="533.154688pt" viewBox="0 0 822.813125 533.154688" xmlns="http://www.w3.org/2000/svg" version="1.1">
 <metadata>
  <rdf:RDF xmlns:dc="http://purl.org/dc/elements/1.1/" xmlns:cc="http://creativecommons.org/ns#" xmlns:rdf="http://www.w3.org/1999/02/22-rdf-syntax-ns#">
   <cc:Work>
    <dc:type rdf:resource="http://purl.org/dc/dcmitype/StillImage"/>
    <dc:date>2025-02-01T16:21:59.919181</dc:date>
    <dc:format>image/svg+xml</dc:format>
    <dc:creator>
     <cc:Agent>
      <dc:title>Matplotlib v3.9.0, https://matplotlib.org/</dc:title>
     </cc:Agent>
    </dc:creator>
   </cc:Work>
  </rdf:RDF>
 </metadata>
 <defs>
  <style type="text/css">*{stroke-linejoin: round; stroke-linecap: butt}</style>
 </defs>
 <g id="figure_1">
  <g id="patch_1">
   <path d="M 0 533.154688 
L 822.813125 533.154688 
L 822.813125 0 
L 0 0 
z
" style="fill: #ffffff"/>
  </g>
  <g id="axes_1">
   <g id="patch_2">
    <path d="M 71.313125 467.935313 
L 815.613125 467.935313 
L 815.613125 35.995312 
L 71.313125 35.995312 
z
" style="fill: #ffffff"/>
   </g>
   <g id="matplotlib.axis_1">
    <g id="xtick_1">
     <g id="line2d_1">
      <path d="M 99.458923 467.935313 
L 99.458923 35.995312 
" clip-path="url(#pef10ce1946)" style="fill: none; stroke-dasharray: 3.7,1.6; stroke-dashoffset: 0; stroke: #cccccc; stroke-opacity: 0.7"/>
     </g>
     <g id="text_1">
      <!-- 0 -->
      <g style="fill: #262626" transform="translate(93.096423 492.632187) scale(0.2 -0.2)">
       <defs>
        <path id="DejaVuSans-30" d="M 2034 4250 
Q 1547 4250 1301 3770 
Q 1056 3291 1056 2328 
Q 1056 1369 1301 889 
Q 1547 409 2034 409 
Q 2525 409 2770 889 
Q 3016 1369 3016 2328 
Q 3016 3291 2770 3770 
Q 2525 4250 2034 4250 
z
M 2034 4750 
Q 2819 4750 3233 4129 
Q 3647 3509 3647 2328 
Q 3647 1150 3233 529 
Q 2819 -91 2034 -91 
Q 1250 -91 836 529 
Q 422 1150 422 2328 
Q 422 3509 836 4129 
Q 1250 4750 2034 4750 
z
" transform="scale(0.015625)"/>
       </defs>
       <use xlink:href="#DejaVuSans-30"/>
      </g>
     </g>
    </g>
    <g id="xtick_2">
     <g id="line2d_2">
      <path d="M 213.179321 467.935313 
L 213.179321 35.995312 
" clip-path="url(#pef10ce1946)" style="fill: none; stroke-dasharray: 3.7,1.6; stroke-dashoffset: 0; stroke: #cccccc; stroke-opacity: 0.7"/>
     </g>
     <g id="text_2">
      <!-- 20 -->
      <g style="fill: #262626" transform="translate(200.454321 492.632187) scale(0.2 -0.2)">
       <defs>
        <path id="DejaVuSans-32" d="M 1228 531 
L 3431 531 
L 3431 0 
L 469 0 
L 469 531 
Q 828 903 1448 1529 
Q 2069 2156 2228 2338 
Q 2531 2678 2651 2914 
Q 2772 3150 2772 3378 
Q 2772 3750 2511 3984 
Q 2250 4219 1831 4219 
Q 1534 4219 1204 4116 
Q 875 4013 500 3803 
L 500 4441 
Q 881 4594 1212 4672 
Q 1544 4750 1819 4750 
Q 2544 4750 2975 4387 
Q 3406 4025 3406 3419 
Q 3406 3131 3298 2873 
Q 3191 2616 2906 2266 
Q 2828 2175 2409 1742 
Q 1991 1309 1228 531 
z
" transform="scale(0.015625)"/>
       </defs>
       <use xlink:href="#DejaVuSans-32"/>
       <use xlink:href="#DejaVuSans-30" x="63.623047"/>
      </g>
     </g>
    </g>
    <g id="xtick_3">
     <g id="line2d_3">
      <path d="M 326.899718 467.935313 
L 326.899718 35.995312 
" clip-path="url(#pef10ce1946)" style="fill: none; stroke-dasharray: 3.7,1.6; stroke-dashoffset: 0; stroke: #cccccc; stroke-opacity: 0.7"/>
     </g>
     <g id="text_3">
      <!-- 40 -->
      <g style="fill: #262626" transform="translate(314.174718 492.632187) scale(0.2 -0.2)">
       <defs>
        <path id="DejaVuSans-34" d="M 2419 4116 
L 825 1625 
L 2419 1625 
L 2419 4116 
z
M 2253 4666 
L 3047 4666 
L 3047 1625 
L 3713 1625 
L 3713 1100 
L 3047 1100 
L 3047 0 
L 2419 0 
L 2419 1100 
L 313 1100 
L 313 1709 
L 2253 4666 
z
" transform="scale(0.015625)"/>
       </defs>
       <use xlink:href="#DejaVuSans-34"/>
       <use xlink:href="#DejaVuSans-30" x="63.623047"/>
      </g>
     </g>
    </g>
    <g id="xtick_4">
     <g id="line2d_4">
      <path d="M 440.620115 467.935313 
L 440.620115 35.995312 
" clip-path="url(#pef10ce1946)" style="fill: none; stroke-dasharray: 3.7,1.6; stroke-dashoffset: 0; stroke: #cccccc; stroke-opacity: 0.7"/>
     </g>
     <g id="text_4">
      <!-- 60 -->
      <g style="fill: #262626" transform="translate(427.895115 492.632187) scale(0.2 -0.2)">
       <defs>
        <path id="DejaVuSans-36" d="M 2113 2584 
Q 1688 2584 1439 2293 
Q 1191 2003 1191 1497 
Q 1191 994 1439 701 
Q 1688 409 2113 409 
Q 2538 409 2786 701 
Q 3034 994 3034 1497 
Q 3034 2003 2786 2293 
Q 2538 2584 2113 2584 
z
M 3366 4563 
L 3366 3988 
Q 3128 4100 2886 4159 
Q 2644 4219 2406 4219 
Q 1781 4219 1451 3797 
Q 1122 3375 1075 2522 
Q 1259 2794 1537 2939 
Q 1816 3084 2150 3084 
Q 2853 3084 3261 2657 
Q 3669 2231 3669 1497 
Q 3669 778 3244 343 
Q 2819 -91 2113 -91 
Q 1303 -91 875 529 
Q 447 1150 447 2328 
Q 447 3434 972 4092 
Q 1497 4750 2381 4750 
Q 2619 4750 2861 4703 
Q 3103 4656 3366 4563 
z
" transform="scale(0.015625)"/>
       </defs>
       <use xlink:href="#DejaVuSans-36"/>
       <use xlink:href="#DejaVuSans-30" x="63.623047"/>
      </g>
     </g>
    </g>
    <g id="xtick_5">
     <g id="line2d_5">
      <path d="M 554.340512 467.935313 
L 554.340512 35.995312 
" clip-path="url(#pef10ce1946)" style="fill: none; stroke-dasharray: 3.7,1.6; stroke-dashoffset: 0; stroke: #cccccc; stroke-opacity: 0.7"/>
     </g>
     <g id="text_5">
      <!-- 80 -->
      <g style="fill: #262626" transform="translate(541.615512 492.632187) scale(0.2 -0.2)">
       <defs>
        <path id="DejaVuSans-38" d="M 2034 2216 
Q 1584 2216 1326 1975 
Q 1069 1734 1069 1313 
Q 1069 891 1326 650 
Q 1584 409 2034 409 
Q 2484 409 2743 651 
Q 3003 894 3003 1313 
Q 3003 1734 2745 1975 
Q 2488 2216 2034 2216 
z
M 1403 2484 
Q 997 2584 770 2862 
Q 544 3141 544 3541 
Q 544 4100 942 4425 
Q 1341 4750 2034 4750 
Q 2731 4750 3128 4425 
Q 3525 4100 3525 3541 
Q 3525 3141 3298 2862 
Q 3072 2584 2669 2484 
Q 3125 2378 3379 2068 
Q 3634 1759 3634 1313 
Q 3634 634 3220 271 
Q 2806 -91 2034 -91 
Q 1263 -91 848 271 
Q 434 634 434 1313 
Q 434 1759 690 2068 
Q 947 2378 1403 2484 
z
M 1172 3481 
Q 1172 3119 1398 2916 
Q 1625 2713 2034 2713 
Q 2441 2713 2670 2916 
Q 2900 3119 2900 3481 
Q 2900 3844 2670 4047 
Q 2441 4250 2034 4250 
Q 1625 4250 1398 4047 
Q 1172 3844 1172 3481 
z
" transform="scale(0.015625)"/>
       </defs>
       <use xlink:href="#DejaVuSans-38"/>
       <use xlink:href="#DejaVuSans-30" x="63.623047"/>
      </g>
     </g>
    </g>
    <g id="xtick_6">
     <g id="line2d_6">
      <path d="M 668.06091 467.935313 
L 668.06091 35.995312 
" clip-path="url(#pef10ce1946)" style="fill: none; stroke-dasharray: 3.7,1.6; stroke-dashoffset: 0; stroke: #cccccc; stroke-opacity: 0.7"/>
     </g>
     <g id="text_6">
      <!-- 100 -->
      <g style="fill: #262626" transform="translate(648.97341 492.632187) scale(0.2 -0.2)">
       <defs>
        <path id="DejaVuSans-31" d="M 794 531 
L 1825 531 
L 1825 4091 
L 703 3866 
L 703 4441 
L 1819 4666 
L 2450 4666 
L 2450 531 
L 3481 531 
L 3481 0 
L 794 0 
L 794 531 
z
" transform="scale(0.015625)"/>
       </defs>
       <use xlink:href="#DejaVuSans-31"/>
       <use xlink:href="#DejaVuSans-30" x="63.623047"/>
       <use xlink:href="#DejaVuSans-30" x="127.246094"/>
      </g>
     </g>
    </g>
    <g id="xtick_7">
     <g id="line2d_7">
      <path d="M 781.781307 467.935313 
L 781.781307 35.995312 
" clip-path="url(#pef10ce1946)" style="fill: none; stroke-dasharray: 3.7,1.6; stroke-dashoffset: 0; stroke: #cccccc; stroke-opacity: 0.7"/>
     </g>
     <g id="text_7">
      <!-- 120 -->
      <g style="fill: #262626" transform="translate(762.693807 492.632187) scale(0.2 -0.2)">
       <use xlink:href="#DejaVuSans-31"/>
       <use xlink:href="#DejaVuSans-32" x="63.623047"/>
       <use xlink:href="#DejaVuSans-30" x="127.246094"/>
      </g>
     </g>
    </g>
    <g id="text_8">
     <!-- Epoch -->
     <g style="fill: #262626" transform="translate(403.654688 520.5475) scale(0.26 -0.26)">
      <defs>
       <path id="DejaVuSans-45" d="M 628 4666 
L 3578 4666 
L 3578 4134 
L 1259 4134 
L 1259 2753 
L 3481 2753 
L 3481 2222 
L 1259 2222 
L 1259 531 
L 3634 531 
L 3634 0 
L 628 0 
L 628 4666 
z
" transform="scale(0.015625)"/>
       <path id="DejaVuSans-70" d="M 1159 525 
L 1159 -1331 
L 581 -1331 
L 581 3500 
L 1159 3500 
L 1159 2969 
Q 1341 3281 1617 3432 
Q 1894 3584 2278 3584 
Q 2916 3584 3314 3078 
Q 3713 2572 3713 1747 
Q 3713 922 3314 415 
Q 2916 -91 2278 -91 
Q 1894 -91 1617 61 
Q 1341 213 1159 525 
z
M 3116 1747 
Q 3116 2381 2855 2742 
Q 2594 3103 2138 3103 
Q 1681 3103 1420 2742 
Q 1159 2381 1159 1747 
Q 1159 1113 1420 752 
Q 1681 391 2138 391 
Q 2594 391 2855 752 
Q 3116 1113 3116 1747 
z
" transform="scale(0.015625)"/>
       <path id="DejaVuSans-6f" d="M 1959 3097 
Q 1497 3097 1228 2736 
Q 959 2375 959 1747 
Q 959 1119 1226 758 
Q 1494 397 1959 397 
Q 2419 397 2687 759 
Q 2956 1122 2956 1747 
Q 2956 2369 2687 2733 
Q 2419 3097 1959 3097 
z
M 1959 3584 
Q 2709 3584 3137 3096 
Q 3566 2609 3566 1747 
Q 3566 888 3137 398 
Q 2709 -91 1959 -91 
Q 1206 -91 779 398 
Q 353 888 353 1747 
Q 353 2609 779 3096 
Q 1206 3584 1959 3584 
z
" transform="scale(0.015625)"/>
       <path id="DejaVuSans-63" d="M 3122 3366 
L 3122 2828 
Q 2878 2963 2633 3030 
Q 2388 3097 2138 3097 
Q 1578 3097 1268 2742 
Q 959 2388 959 1747 
Q 959 1106 1268 751 
Q 1578 397 2138 397 
Q 2388 397 2633 464 
Q 2878 531 3122 666 
L 3122 134 
Q 2881 22 2623 -34 
Q 2366 -91 2075 -91 
Q 1284 -91 818 406 
Q 353 903 353 1747 
Q 353 2603 823 3093 
Q 1294 3584 2113 3584 
Q 2378 3584 2631 3529 
Q 2884 3475 3122 3366 
z
" transform="scale(0.015625)"/>
       <path id="DejaVuSans-68" d="M 3513 2113 
L 3513 0 
L 2938 0 
L 2938 2094 
Q 2938 2591 2744 2837 
Q 2550 3084 2163 3084 
Q 1697 3084 1428 2787 
Q 1159 2491 1159 1978 
L 1159 0 
L 581 0 
L 581 4863 
L 1159 4863 
L 1159 2956 
Q 1366 3272 1645 3428 
Q 1925 3584 2291 3584 
Q 2894 3584 3203 3211 
Q 3513 2838 3513 2113 
z
" transform="scale(0.015625)"/>
      </defs>
      <use xlink:href="#DejaVuSans-45"/>
      <use xlink:href="#DejaVuSans-70" x="63.183594"/>
      <use xlink:href="#DejaVuSans-6f" x="126.660156"/>
      <use xlink:href="#DejaVuSans-63" x="187.841797"/>
      <use xlink:href="#DejaVuSans-68" x="242.822266"/>
     </g>
    </g>
   </g>
   <g id="matplotlib.axis_2">
    <g id="ytick_1">
     <g id="line2d_8">
      <path d="M 71.313125 448.301676 
L 815.613125 448.301676 
" clip-path="url(#pef10ce1946)" style="fill: none; stroke-dasharray: 3.7,1.6; stroke-dashoffset: 0; stroke: #cccccc; stroke-opacity: 0.7"/>
     </g>
     <g id="text_9">
      <!-- 0 -->
      <g style="fill: #262626" transform="translate(49.088125 455.900114) scale(0.2 -0.2)">
       <use xlink:href="#DejaVuSans-30"/>
      </g>
     </g>
    </g>
    <g id="ytick_2">
     <g id="line2d_9">
      <path d="M 71.313125 385.992551 
L 815.613125 385.992551 
" clip-path="url(#pef10ce1946)" style="fill: none; stroke-dasharray: 3.7,1.6; stroke-dashoffset: 0; stroke: #cccccc; stroke-opacity: 0.7"/>
     </g>
     <g id="text_10">
      <!-- 5 -->
      <g style="fill: #262626" transform="translate(49.088125 393.590989) scale(0.2 -0.2)">
       <defs>
        <path id="DejaVuSans-35" d="M 691 4666 
L 3169 4666 
L 3169 4134 
L 1269 4134 
L 1269 2991 
Q 1406 3038 1543 3061 
Q 1681 3084 1819 3084 
Q 2600 3084 3056 2656 
Q 3513 2228 3513 1497 
Q 3513 744 3044 326 
Q 2575 -91 1722 -91 
Q 1428 -91 1123 -41 
Q 819 9 494 109 
L 494 744 
Q 775 591 1075 516 
Q 1375 441 1709 441 
Q 2250 441 2565 725 
Q 2881 1009 2881 1497 
Q 2881 1984 2565 2268 
Q 2250 2553 1709 2553 
Q 1456 2553 1204 2497 
Q 953 2441 691 2322 
L 691 4666 
z
" transform="scale(0.015625)"/>
       </defs>
       <use xlink:href="#DejaVuSans-35"/>
      </g>
     </g>
    </g>
    <g id="ytick_3">
     <g id="line2d_10">
      <path d="M 71.313125 323.683427 
L 815.613125 323.683427 
" clip-path="url(#pef10ce1946)" style="fill: none; stroke-dasharray: 3.7,1.6; stroke-dashoffset: 0; stroke: #cccccc; stroke-opacity: 0.7"/>
     </g>
     <g id="text_11">
      <!-- 10 -->
      <g style="fill: #262626" transform="translate(36.363125 331.281864) scale(0.2 -0.2)">
       <use xlink:href="#DejaVuSans-31"/>
       <use xlink:href="#DejaVuSans-30" x="63.623047"/>
      </g>
     </g>
    </g>
    <g id="ytick_4">
     <g id="line2d_11">
      <path d="M 71.313125 261.374302 
L 815.613125 261.374302 
" clip-path="url(#pef10ce1946)" style="fill: none; stroke-dasharray: 3.7,1.6; stroke-dashoffset: 0; stroke: #cccccc; stroke-opacity: 0.7"/>
     </g>
     <g id="text_12">
      <!-- 15 -->
      <g style="fill: #262626" transform="translate(36.363125 268.972739) scale(0.2 -0.2)">
       <use xlink:href="#DejaVuSans-31"/>
       <use xlink:href="#DejaVuSans-35" x="63.623047"/>
      </g>
     </g>
    </g>
    <g id="ytick_5">
     <g id="line2d_12">
      <path d="M 71.313125 199.065177 
L 815.613125 199.065177 
" clip-path="url(#pef10ce1946)" style="fill: none; stroke-dasharray: 3.7,1.6; stroke-dashoffset: 0; stroke: #cccccc; stroke-opacity: 0.7"/>
     </g>
     <g id="text_13">
      <!-- 20 -->
      <g style="fill: #262626" transform="translate(36.363125 206.663615) scale(0.2 -0.2)">
       <use xlink:href="#DejaVuSans-32"/>
       <use xlink:href="#DejaVuSans-30" x="63.623047"/>
      </g>
     </g>
    </g>
    <g id="ytick_6">
     <g id="line2d_13">
      <path d="M 71.313125 136.756052 
L 815.613125 136.756052 
" clip-path="url(#pef10ce1946)" style="fill: none; stroke-dasharray: 3.7,1.6; stroke-dashoffset: 0; stroke: #cccccc; stroke-opacity: 0.7"/>
     </g>
     <g id="text_14">
      <!-- 25 -->
      <g style="fill: #262626" transform="translate(36.363125 144.35449) scale(0.2 -0.2)">
       <use xlink:href="#DejaVuSans-32"/>
       <use xlink:href="#DejaVuSans-35" x="63.623047"/>
      </g>
     </g>
    </g>
    <g id="ytick_7">
     <g id="line2d_14">
      <path d="M 71.313125 74.446928 
L 815.613125 74.446928 
" clip-path="url(#pef10ce1946)" style="fill: none; stroke-dasharray: 3.7,1.6; stroke-dashoffset: 0; stroke: #cccccc; stroke-opacity: 0.7"/>
     </g>
     <g id="text_15">
      <!-- 30 -->
      <g style="fill: #262626" transform="translate(36.363125 82.045365) scale(0.2 -0.2)">
       <defs>
        <path id="DejaVuSans-33" d="M 2597 2516 
Q 3050 2419 3304 2112 
Q 3559 1806 3559 1356 
Q 3559 666 3084 287 
Q 2609 -91 1734 -91 
Q 1441 -91 1130 -33 
Q 819 25 488 141 
L 488 750 
Q 750 597 1062 519 
Q 1375 441 1716 441 
Q 2309 441 2620 675 
Q 2931 909 2931 1356 
Q 2931 1769 2642 2001 
Q 2353 2234 1838 2234 
L 1294 2234 
L 1294 2753 
L 1863 2753 
Q 2328 2753 2575 2939 
Q 2822 3125 2822 3475 
Q 2822 3834 2567 4026 
Q 2313 4219 1838 4219 
Q 1578 4219 1281 4162 
Q 984 4106 628 3988 
L 628 4550 
Q 988 4650 1302 4700 
Q 1616 4750 1894 4750 
Q 2613 4750 3031 4423 
Q 3450 4097 3450 3541 
Q 3450 3153 3228 2886 
Q 3006 2619 2597 2516 
z
" transform="scale(0.015625)"/>
       </defs>
       <use xlink:href="#DejaVuSans-33"/>
       <use xlink:href="#DejaVuSans-30" x="63.623047"/>
      </g>
     </g>
    </g>
    <g id="text_16">
     <!-- Huber Loss -->
     <g style="fill: #262626" transform="translate(26.955938 324.222969) rotate(-90) scale(0.26 -0.26)">
      <defs>
       <path id="DejaVuSans-48" d="M 628 4666 
L 1259 4666 
L 1259 2753 
L 3553 2753 
L 3553 4666 
L 4184 4666 
L 4184 0 
L 3553 0 
L 3553 2222 
L 1259 2222 
L 1259 0 
L 628 0 
L 628 4666 
z
" transform="scale(0.015625)"/>
       <path id="DejaVuSans-75" d="M 544 1381 
L 544 3500 
L 1119 3500 
L 1119 1403 
Q 1119 906 1312 657 
Q 1506 409 1894 409 
Q 2359 409 2629 706 
Q 2900 1003 2900 1516 
L 2900 3500 
L 3475 3500 
L 3475 0 
L 2900 0 
L 2900 538 
Q 2691 219 2414 64 
Q 2138 -91 1772 -91 
Q 1169 -91 856 284 
Q 544 659 544 1381 
z
M 1991 3584 
L 1991 3584 
z
" transform="scale(0.015625)"/>
       <path id="DejaVuSans-62" d="M 3116 1747 
Q 3116 2381 2855 2742 
Q 2594 3103 2138 3103 
Q 1681 3103 1420 2742 
Q 1159 2381 1159 1747 
Q 1159 1113 1420 752 
Q 1681 391 2138 391 
Q 2594 391 2855 752 
Q 3116 1113 3116 1747 
z
M 1159 2969 
Q 1341 3281 1617 3432 
Q 1894 3584 2278 3584 
Q 2916 3584 3314 3078 
Q 3713 2572 3713 1747 
Q 3713 922 3314 415 
Q 2916 -91 2278 -91 
Q 1894 -91 1617 61 
Q 1341 213 1159 525 
L 1159 0 
L 581 0 
L 581 4863 
L 1159 4863 
L 1159 2969 
z
" transform="scale(0.015625)"/>
       <path id="DejaVuSans-65" d="M 3597 1894 
L 3597 1613 
L 953 1613 
Q 991 1019 1311 708 
Q 1631 397 2203 397 
Q 2534 397 2845 478 
Q 3156 559 3463 722 
L 3463 178 
Q 3153 47 2828 -22 
Q 2503 -91 2169 -91 
Q 1331 -91 842 396 
Q 353 884 353 1716 
Q 353 2575 817 3079 
Q 1281 3584 2069 3584 
Q 2775 3584 3186 3129 
Q 3597 2675 3597 1894 
z
M 3022 2063 
Q 3016 2534 2758 2815 
Q 2500 3097 2075 3097 
Q 1594 3097 1305 2825 
Q 1016 2553 972 2059 
L 3022 2063 
z
" transform="scale(0.015625)"/>
       <path id="DejaVuSans-72" d="M 2631 2963 
Q 2534 3019 2420 3045 
Q 2306 3072 2169 3072 
Q 1681 3072 1420 2755 
Q 1159 2438 1159 1844 
L 1159 0 
L 581 0 
L 581 3500 
L 1159 3500 
L 1159 2956 
Q 1341 3275 1631 3429 
Q 1922 3584 2338 3584 
Q 2397 3584 2469 3576 
Q 2541 3569 2628 3553 
L 2631 2963 
z
" transform="scale(0.015625)"/>
       <path id="DejaVuSans-20" transform="scale(0.015625)"/>
       <path id="DejaVuSans-4c" d="M 628 4666 
L 1259 4666 
L 1259 531 
L 3531 531 
L 3531 0 
L 628 0 
L 628 4666 
z
" transform="scale(0.015625)"/>
       <path id="DejaVuSans-73" d="M 2834 3397 
L 2834 2853 
Q 2591 2978 2328 3040 
Q 2066 3103 1784 3103 
Q 1356 3103 1142 2972 
Q 928 2841 928 2578 
Q 928 2378 1081 2264 
Q 1234 2150 1697 2047 
L 1894 2003 
Q 2506 1872 2764 1633 
Q 3022 1394 3022 966 
Q 3022 478 2636 193 
Q 2250 -91 1575 -91 
Q 1294 -91 989 -36 
Q 684 19 347 128 
L 347 722 
Q 666 556 975 473 
Q 1284 391 1588 391 
Q 1994 391 2212 530 
Q 2431 669 2431 922 
Q 2431 1156 2273 1281 
Q 2116 1406 1581 1522 
L 1381 1569 
Q 847 1681 609 1914 
Q 372 2147 372 2553 
Q 372 3047 722 3315 
Q 1072 3584 1716 3584 
Q 2034 3584 2315 3537 
Q 2597 3491 2834 3397 
z
" transform="scale(0.015625)"/>
      </defs>
      <use xlink:href="#DejaVuSans-48"/>
      <use xlink:href="#DejaVuSans-75" x="75.195312"/>
      <use xlink:href="#DejaVuSans-62" x="138.574219"/>
      <use xlink:href="#DejaVuSans-65" x="202.050781"/>
      <use xlink:href="#DejaVuSans-72" x="263.574219"/>
      <use xlink:href="#DejaVuSans-20" x="304.6875"/>
      <use xlink:href="#DejaVuSans-4c" x="336.474609"/>
      <use xlink:href="#DejaVuSans-6f" x="390.4375"/>
      <use xlink:href="#DejaVuSans-73" x="451.619141"/>
      <use xlink:href="#DejaVuSans-73" x="503.71875"/>
     </g>
    </g>
   </g>
   <g id="line2d_15">
    <path d="M 105.144943 55.628949 
L 110.830963 143.066471 
L 116.516983 162.410962 
L 122.203003 175.204147 
L 127.889023 180.477493 
L 133.575042 186.479855 
L 139.261062 192.025741 
L 144.947082 196.03334 
L 150.633102 199.091098 
L 156.319122 202.265125 
L 162.005142 204.128292 
L 167.691162 206.594736 
L 173.377182 209.476907 
L 179.063201 210.243185 
L 184.749221 211.840915 
L 190.435241 213.544073 
L 196.121261 214.032577 
L 201.807281 215.732743 
L 207.493301 216.568184 
L 213.179321 217.893125 
L 218.86534 227.240616 
L 224.55136 228.503746 
L 230.23738 229.034745 
L 235.9234 229.47689 
L 241.60942 229.85573 
L 247.29544 230.218119 
L 252.98146 230.511595 
L 258.667479 230.744258 
L 264.353499 231.052314 
L 270.039519 231.219926 
L 275.725539 231.515645 
L 281.411559 231.687742 
L 287.097579 231.878159 
L 292.783599 232.122162 
L 298.469619 232.27133 
L 304.155638 232.463616 
L 309.841658 232.676339 
L 315.527678 232.816908 
L 321.213698 232.955609 
L 326.899718 233.174314 
L 332.585738 234.355196 
L 338.271758 234.502495 
L 343.957777 234.55795 
L 349.643797 234.599573 
L 355.329817 234.643189 
L 361.015837 234.676213 
L 366.701857 234.710234 
L 372.387877 235.822701 
L 378.073897 235.959407 
L 383.759916 236.055612 
L 389.445936 236.117672 
L 395.131956 236.153562 
L 400.817976 236.222974 
L 406.503996 236.302979 
L 412.190016 236.348465 
L 417.876036 236.847935 
L 423.562055 236.962459 
L 429.248075 236.98352 
L 434.934095 237.031996 
L 440.620115 237.036233 
L 446.306135 237.062403 
L 451.992155 237.07985 
L 457.678175 237.10577 
L 463.364195 235.619074 
L 469.050214 236.572155 
L 474.736234 236.832233 
L 480.422254 236.991994 
L 486.108274 237.082716 
L 491.794294 237.181663 
L 497.480314 237.252944 
L 503.166334 237.327341 
L 508.852353 237.372827 
L 514.538373 237.438501 
L 520.224393 237.456695 
L 525.910413 237.485856 
L 531.596433 237.548165 
L 537.282453 237.554894 
L 542.968473 237.601003 
L 548.654492 237.630911 
L 554.340512 237.664932 
L 560.026532 237.670789 
L 565.712552 237.712661 
L 571.398572 237.73584 
L 577.084592 237.746433 
L 582.770612 237.784316 
L 588.456631 237.799769 
L 594.142651 237.825565 
L 599.828671 237.826313 
L 605.514691 237.877905 
L 611.200711 237.873419 
L 616.886731 237.894728 
L 622.572751 237.911302 
L 628.258771 237.925384 
L 633.94479 237.949685 
L 639.63081 237.975232 
L 645.31683 237.995794 
L 651.00285 237.994049 
L 656.68887 238.023708 
L 662.37489 238.04265 
L 668.06091 238.065954 
L 673.746929 238.075051 
L 679.432949 238.084646 
L 685.118969 238.090005 
L 690.804989 238.11119 
L 696.491009 238.127391 
L 702.177029 238.137609 
L 707.863049 238.184092 
L 713.549068 238.190572 
L 719.235088 238.199669 
L 724.921108 238.223471 
L 730.607128 238.218985 
L 736.293148 238.221477 
L 741.979168 238.249267 
L 747.665188 238.255498 
L 753.351208 238.270203 
L 759.037227 238.309582 
L 764.723247 238.302604 
L 770.409267 238.337995 
L 776.095287 238.327652 
L 781.781307 238.340862 
" clip-path="url(#pef10ce1946)" style="fill: none; stroke-dasharray: 4,6.6; stroke-dashoffset: 0; stroke: #1f77b4; stroke-width: 4"/>
   </g>
   <g id="line2d_16">
    <path d="M 105.144943 168.74942 
L 110.830963 225.696097 
L 116.516983 233.647364 
L 122.203003 238.557199 
L 127.889023 249.872661 
L 133.575042 288.766016 
L 139.261062 299.354206 
L 144.947082 300.716906 
L 150.633102 304.465423 
L 156.319122 306.561378 
L 162.005142 307.169515 
L 167.691162 308.750422 
L 173.377182 310.466789 
L 179.063201 310.868558 
L 184.749221 312.45445 
L 190.435241 313.732036 
L 196.121261 313.70462 
L 201.807281 314.860953 
L 207.493301 315.405909 
L 213.179321 316.225024 
L 218.86534 321.177104 
L 224.55136 321.742996 
L 230.23738 321.974786 
L 235.9234 322.109997 
L 241.60942 322.221904 
L 247.29544 322.380792 
L 252.98146 322.49569 
L 258.667479 322.625418 
L 264.353499 322.68 
L 270.039519 322.698942 
L 275.725539 322.812968 
L 281.411559 322.972729 
L 287.097579 322.927991 
L 292.783599 323.001017 
L 298.469619 323.0556 
L 304.155638 323.108313 
L 309.841658 323.225579 
L 315.527678 323.225081 
L 321.213698 323.322158 
L 326.899718 323.403534 
L 332.585738 323.906119 
L 338.271758 323.901758 
L 343.957777 323.971918 
L 349.643797 323.922943 
L 355.329817 324.005191 
L 361.015837 324.028245 
L 366.701857 323.976404 
L 372.387877 388.120034 
L 378.073897 388.128259 
L 383.759916 388.153183 
L 389.445936 388.141718 
L 395.131956 388.133742 
L 400.817976 388.109068 
L 406.503996 388.091621 
L 412.190016 388.087384 
L 417.876036 418.595676 
L 423.562055 418.607764 
L 429.248075 418.612998 
L 434.934095 418.605023 
L 440.620115 418.633685 
L 446.306135 418.611004 
L 451.992155 418.611378 
L 457.678175 418.616238 
L 463.364195 448.301676 
L 469.050214 448.301676 
L 474.736234 448.301676 
L 480.422254 448.301676 
L 486.108274 448.301676 
L 491.794294 448.301676 
L 497.480314 448.301676 
L 503.166334 448.301676 
L 508.852353 448.301676 
L 514.538373 448.301676 
L 520.224393 448.301676 
L 525.910413 448.301676 
L 531.596433 448.301676 
L 537.282453 448.301676 
L 542.968473 448.301676 
L 548.654492 448.301676 
L 554.340512 448.301676 
L 560.026532 448.301676 
L 565.712552 448.301676 
L 571.398572 448.301676 
L 577.084592 448.301676 
L 582.770612 448.301676 
L 588.456631 448.301676 
L 594.142651 448.301676 
L 599.828671 448.301676 
L 605.514691 448.301676 
L 611.200711 448.301676 
L 616.886731 448.301676 
L 622.572751 448.301676 
L 628.258771 448.301676 
L 633.94479 448.301676 
L 639.63081 448.301676 
L 645.31683 448.301676 
L 651.00285 448.301676 
L 656.68887 448.301676 
L 662.37489 448.301676 
L 668.06091 448.301676 
L 673.746929 448.301676 
L 679.432949 448.301676 
L 685.118969 448.301676 
L 690.804989 448.301676 
L 696.491009 448.301676 
L 702.177029 448.301676 
L 707.863049 448.301676 
L 713.549068 448.301676 
L 719.235088 448.301676 
L 724.921108 448.301676 
L 730.607128 448.301676 
L 736.293148 448.301676 
L 741.979168 448.301676 
L 747.665188 448.301676 
L 753.351208 448.301676 
L 759.037227 448.301676 
L 764.723247 448.301676 
L 770.409267 448.301676 
L 776.095287 448.301676 
L 781.781307 448.301676 
" clip-path="url(#pef10ce1946)" style="fill: none; stroke-dasharray: 25.6,6.4,4,6.4; stroke-dashoffset: 0; stroke: #ff7f0e; stroke-width: 4"/>
   </g>
   <g id="line2d_17">
    <path d="M 105.144943 124.702228 
L 110.830963 153.985772 
L 116.516983 173.718199 
L 122.203003 176.18726 
L 127.889023 184.462411 
L 133.575042 180.405713 
L 139.261062 191.585216 
L 144.947082 188.73096 
L 150.633102 196.303512 
L 156.319122 196.069354 
L 162.005142 198.980063 
L 167.691162 201.363262 
L 173.377182 201.732382 
L 179.063201 202.113215 
L 184.749221 205.941861 
L 190.435241 198.755501 
L 196.121261 202.589755 
L 201.807281 209.754307 
L 207.493301 210.294528 
L 213.179321 208.463013 
L 218.86534 215.554789 
L 224.55136 215.673051 
L 230.23738 215.850632 
L 235.9234 214.737916 
L 241.60942 215.471045 
L 247.29544 215.559649 
L 252.98146 214.432227 
L 258.667479 215.153019 
L 264.353499 215.92478 
L 270.039519 215.840414 
L 275.725539 215.112643 
L 281.411559 215.922412 
L 287.097579 214.477215 
L 292.783599 215.94285 
L 298.469619 215.093327 
L 304.155638 215.564758 
L 309.841658 215.81711 
L 315.527678 215.972384 
L 321.213698 215.668939 
L 326.899718 216.121552 
L 332.585738 216.435964 
L 338.271758 216.252526 
L 343.957777 216.432101 
L 349.643797 216.01139 
L 355.329817 216.307857 
L 361.015837 216.349604 
L 366.701857 216.140619 
L 372.387877 218.062606 
L 378.073897 218.111332 
L 383.759916 217.874682 
L 389.445936 217.779847 
L 395.131956 217.591923 
L 400.817976 217.701338 
L 406.503996 217.857111 
L 412.190016 217.913563 
L 417.876036 219.122235 
L 423.562055 219.145788 
L 429.248075 218.969702 
L 434.934095 218.954873 
L 440.620115 219.022914 
L 446.306135 218.886707 
L 451.992155 218.951508 
L 457.678175 218.978426 
L 463.364195 222.382498 
L 469.050214 222.690429 
L 474.736234 222.930195 
L 480.422254 222.926083 
L 486.108274 222.971444 
L 491.794294 223.149149 
L 497.480314 223.242488 
L 503.166334 223.318132 
L 508.852353 223.312524 
L 514.538373 223.293333 
L 520.224393 223.32835 
L 525.910413 223.44761 
L 531.596433 223.371468 
L 537.282453 223.425926 
L 542.968473 223.455336 
L 548.654492 223.403495 
L 554.340512 223.468297 
L 560.026532 223.390784 
L 565.712552 223.575842 
L 571.398572 223.520512 
L 577.084592 223.450476 
L 582.770612 223.420942 
L 588.456631 223.525372 
L 594.142651 223.587556 
L 599.828671 223.590547 
L 605.514691 223.550295 
L 611.200711 223.559517 
L 616.886731 223.532724 
L 622.572751 223.597526 
L 628.258771 223.638151 
L 633.94479 223.51129 
L 639.63081 223.628556 
L 645.31683 223.632294 
L 651.00285 223.653105 
L 656.68887 223.656969 
L 662.37489 223.634911 
L 668.06091 223.67616 
L 673.746929 223.682266 
L 679.432949 223.634039 
L 685.118969 223.672795 
L 690.804989 223.655972 
L 696.491009 223.685132 
L 702.177029 223.748563 
L 707.863049 223.715913 
L 713.549068 223.739715 
L 719.235088 223.761149 
L 724.921108 223.720275 
L 730.607128 223.770994 
L 736.293148 223.711178 
L 741.979168 223.687999 
L 747.665188 223.722767 
L 753.351208 223.81162 
L 759.037227 223.738718 
L 764.723247 223.718156 
L 770.409267 223.695974 
L 776.095287 223.730493 
L 781.781307 223.653604 
" clip-path="url(#pef10ce1946)" style="fill: none; stroke: #e94e77; stroke-width: 4; stroke-linecap: round"/>
   </g>
   <g id="line2d_18">
    <path d="M 105.144943 155.434459 
L 110.830963 169.673714 
L 116.516983 180.859946 
L 122.203003 185.725043 
L 127.889023 189.931656 
L 133.575042 194.512499 
L 139.261062 200.285938 
L 144.947082 202.245435 
L 150.633102 194.429877 
L 156.319122 201.775998 
L 162.005142 207.86846 
L 167.691162 209.974633 
L 173.377182 209.444008 
L 179.063201 209.134207 
L 184.749221 212.896058 
L 190.435241 211.965284 
L 196.121261 213.380948 
L 201.807281 213.489116 
L 207.493301 212.945407 
L 213.179321 212.997996 
L 218.86534 220.939543 
L 224.55136 220.796107 
L 230.23738 220.996244 
L 235.9234 220.818165 
L 241.60942 221.203235 
L 247.29544 220.883589 
L 252.98146 220.817666 
L 258.667479 220.71361 
L 264.353499 220.63373 
L 270.039519 220.972567 
L 275.725539 220.363807 
L 281.411559 220.661271 
L 287.097579 220.264486 
L 292.783599 220.222988 
L 298.469619 220.31533 
L 304.155638 220.257383 
L 309.841658 220.182861 
L 315.527678 219.129089 
L 321.213698 219.984593 
L 326.899718 220.369539 
L 332.585738 220.539145 
L 338.271758 220.499391 
L 343.957777 220.596843 
L 349.643797 220.391223 
L 355.329817 220.505996 
L 361.015837 220.264611 
L 366.701857 220.127531 
L 372.387877 220.248784 
L 378.073897 220.255264 
L 383.759916 220.050392 
" clip-path="url(#pef10ce1946)" style="fill: none; stroke-dasharray: 14.8,6.4; stroke-dashoffset: 0; stroke: #2ca02c; stroke-width: 4"/>
   </g>
   <g id="patch_3">
    <path d="M 71.313125 467.935313 
L 71.313125 35.995312 
" style="fill: none; stroke: #4b4b4b; stroke-width: 2; stroke-linejoin: miter; stroke-linecap: square"/>
   </g>
   <g id="patch_4">
    <path d="M 815.613125 467.935313 
L 815.613125 35.995312 
" style="fill: none; stroke: #cccccc; stroke-width: 1.25; stroke-linejoin: miter; stroke-linecap: square"/>
   </g>
   <g id="patch_5">
    <path d="M 71.313125 467.935313 
L 815.613125 467.935313 
" style="fill: none; stroke: #4b4b4b; stroke-width: 2; stroke-linejoin: miter; stroke-linecap: square"/>
   </g>
   <g id="patch_6">
    <path d="M 71.313125 35.995312 
L 815.613125 35.995312 
" style="fill: none; stroke: #cccccc; stroke-width: 1.25; stroke-linejoin: miter; stroke-linecap: square"/>
   </g>
   <g id="text_17">
    <!-- PEMS07 -->
    <g style="fill: #262626" transform="translate(383.388125 29.995312) scale(0.3 -0.3)">
     <defs>
      <path id="DejaVuSans-50" d="M 1259 4147 
L 1259 2394 
L 2053 2394 
Q 2494 2394 2734 2622 
Q 2975 2850 2975 3272 
Q 2975 3691 2734 3919 
Q 2494 4147 2053 4147 
L 1259 4147 
z
M 628 4666 
L 2053 4666 
Q 2838 4666 3239 4311 
Q 3641 3956 3641 3272 
Q 3641 2581 3239 2228 
Q 2838 1875 2053 1875 
L 1259 1875 
L 1259 0 
L 628 0 
L 628 4666 
z
" transform="scale(0.015625)"/>
      <path id="DejaVuSans-4d" d="M 628 4666 
L 1569 4666 
L 2759 1491 
L 3956 4666 
L 4897 4666 
L 4897 0 
L 4281 0 
L 4281 4097 
L 3078 897 
L 2444 897 
L 1241 4097 
L 1241 0 
L 628 0 
L 628 4666 
z
" transform="scale(0.015625)"/>
      <path id="DejaVuSans-53" d="M 3425 4513 
L 3425 3897 
Q 3066 4069 2747 4153 
Q 2428 4238 2131 4238 
Q 1616 4238 1336 4038 
Q 1056 3838 1056 3469 
Q 1056 3159 1242 3001 
Q 1428 2844 1947 2747 
L 2328 2669 
Q 3034 2534 3370 2195 
Q 3706 1856 3706 1288 
Q 3706 609 3251 259 
Q 2797 -91 1919 -91 
Q 1588 -91 1214 -16 
Q 841 59 441 206 
L 441 856 
Q 825 641 1194 531 
Q 1563 422 1919 422 
Q 2459 422 2753 634 
Q 3047 847 3047 1241 
Q 3047 1584 2836 1778 
Q 2625 1972 2144 2069 
L 1759 2144 
Q 1053 2284 737 2584 
Q 422 2884 422 3419 
Q 422 4038 858 4394 
Q 1294 4750 2059 4750 
Q 2388 4750 2728 4690 
Q 3069 4631 3425 4513 
z
" transform="scale(0.015625)"/>
      <path id="DejaVuSans-37" d="M 525 4666 
L 3525 4666 
L 3525 4397 
L 1831 0 
L 1172 0 
L 2766 4134 
L 525 4134 
L 525 4666 
z
" transform="scale(0.015625)"/>
     </defs>
     <use xlink:href="#DejaVuSans-50"/>
     <use xlink:href="#DejaVuSans-45" x="60.302734"/>
     <use xlink:href="#DejaVuSans-4d" x="123.486328"/>
     <use xlink:href="#DejaVuSans-53" x="209.765625"/>
     <use xlink:href="#DejaVuSans-30" x="273.242188"/>
     <use xlink:href="#DejaVuSans-37" x="336.865234"/>
    </g>
   </g>
   <g id="legend_1">
    <g id="patch_7">
     <path d="M 86.713125 456.935313 
L 385.187813 456.935313 
Q 389.587813 456.935313 389.587813 452.535312 
L 389.587813 325.567812 
Q 389.587813 321.167812 385.187813 321.167812 
L 86.713125 321.167812 
Q 82.313125 321.167812 82.313125 325.567812 
L 82.313125 452.535312 
Q 82.313125 456.935313 86.713125 456.935313 
z
" style="fill: #ffffff; opacity: 0.8; stroke: #cccccc; stroke-linejoin: miter"/>
    </g>
    <g id="line2d_19">
     <path d="M 91.113125 338.984375 
L 113.113125 338.984375 
L 135.113125 338.984375 
" style="fill: none; stroke-dasharray: 4,6.6; stroke-dashoffset: 0; stroke: #1f77b4; stroke-width: 4"/>
    </g>
    <g id="text_18">
     <!-- Pred. Train Loss (M1) -->
     <g style="fill: #262626" transform="translate(152.713125 346.684375) scale(0.22 -0.22)">
      <defs>
       <path id="DejaVuSans-64" d="M 2906 2969 
L 2906 4863 
L 3481 4863 
L 3481 0 
L 2906 0 
L 2906 525 
Q 2725 213 2448 61 
Q 2172 -91 1784 -91 
Q 1150 -91 751 415 
Q 353 922 353 1747 
Q 353 2572 751 3078 
Q 1150 3584 1784 3584 
Q 2172 3584 2448 3432 
Q 2725 3281 2906 2969 
z
M 947 1747 
Q 947 1113 1208 752 
Q 1469 391 1925 391 
Q 2381 391 2643 752 
Q 2906 1113 2906 1747 
Q 2906 2381 2643 2742 
Q 2381 3103 1925 3103 
Q 1469 3103 1208 2742 
Q 947 2381 947 1747 
z
" transform="scale(0.015625)"/>
       <path id="DejaVuSans-2e" d="M 684 794 
L 1344 794 
L 1344 0 
L 684 0 
L 684 794 
z
" transform="scale(0.015625)"/>
       <path id="DejaVuSans-54" d="M -19 4666 
L 3928 4666 
L 3928 4134 
L 2272 4134 
L 2272 0 
L 1638 0 
L 1638 4134 
L -19 4134 
L -19 4666 
z
" transform="scale(0.015625)"/>
       <path id="DejaVuSans-61" d="M 2194 1759 
Q 1497 1759 1228 1600 
Q 959 1441 959 1056 
Q 959 750 1161 570 
Q 1363 391 1709 391 
Q 2188 391 2477 730 
Q 2766 1069 2766 1631 
L 2766 1759 
L 2194 1759 
z
M 3341 1997 
L 3341 0 
L 2766 0 
L 2766 531 
Q 2569 213 2275 61 
Q 1981 -91 1556 -91 
Q 1019 -91 701 211 
Q 384 513 384 1019 
Q 384 1609 779 1909 
Q 1175 2209 1959 2209 
L 2766 2209 
L 2766 2266 
Q 2766 2663 2505 2880 
Q 2244 3097 1772 3097 
Q 1472 3097 1187 3025 
Q 903 2953 641 2809 
L 641 3341 
Q 956 3463 1253 3523 
Q 1550 3584 1831 3584 
Q 2591 3584 2966 3190 
Q 3341 2797 3341 1997 
z
" transform="scale(0.015625)"/>
       <path id="DejaVuSans-69" d="M 603 3500 
L 1178 3500 
L 1178 0 
L 603 0 
L 603 3500 
z
M 603 4863 
L 1178 4863 
L 1178 4134 
L 603 4134 
L 603 4863 
z
" transform="scale(0.015625)"/>
       <path id="DejaVuSans-6e" d="M 3513 2113 
L 3513 0 
L 2938 0 
L 2938 2094 
Q 2938 2591 2744 2837 
Q 2550 3084 2163 3084 
Q 1697 3084 1428 2787 
Q 1159 2491 1159 1978 
L 1159 0 
L 581 0 
L 581 3500 
L 1159 3500 
L 1159 2956 
Q 1366 3272 1645 3428 
Q 1925 3584 2291 3584 
Q 2894 3584 3203 3211 
Q 3513 2838 3513 2113 
z
" transform="scale(0.015625)"/>
       <path id="DejaVuSans-28" d="M 1984 4856 
Q 1566 4138 1362 3434 
Q 1159 2731 1159 2009 
Q 1159 1288 1364 580 
Q 1569 -128 1984 -844 
L 1484 -844 
Q 1016 -109 783 600 
Q 550 1309 550 2009 
Q 550 2706 781 3412 
Q 1013 4119 1484 4856 
L 1984 4856 
z
" transform="scale(0.015625)"/>
       <path id="DejaVuSans-29" d="M 513 4856 
L 1013 4856 
Q 1481 4119 1714 3412 
Q 1947 2706 1947 2009 
Q 1947 1309 1714 600 
Q 1481 -109 1013 -844 
L 513 -844 
Q 928 -128 1133 580 
Q 1338 1288 1338 2009 
Q 1338 2731 1133 3434 
Q 928 4138 513 4856 
z
" transform="scale(0.015625)"/>
      </defs>
      <use xlink:href="#DejaVuSans-50"/>
      <use xlink:href="#DejaVuSans-72" x="58.552734"/>
      <use xlink:href="#DejaVuSans-65" x="97.416016"/>
      <use xlink:href="#DejaVuSans-64" x="158.939453"/>
      <use xlink:href="#DejaVuSans-2e" x="222.416016"/>
      <use xlink:href="#DejaVuSans-20" x="254.203125"/>
      <use xlink:href="#DejaVuSans-54" x="285.990234"/>
      <use xlink:href="#DejaVuSans-72" x="332.324219"/>
      <use xlink:href="#DejaVuSans-61" x="373.4375"/>
      <use xlink:href="#DejaVuSans-69" x="434.716797"/>
      <use xlink:href="#DejaVuSans-6e" x="462.5"/>
      <use xlink:href="#DejaVuSans-20" x="525.878906"/>
      <use xlink:href="#DejaVuSans-4c" x="557.666016"/>
      <use xlink:href="#DejaVuSans-6f" x="611.628906"/>
      <use xlink:href="#DejaVuSans-73" x="672.810547"/>
      <use xlink:href="#DejaVuSans-73" x="724.910156"/>
      <use xlink:href="#DejaVuSans-20" x="777.009766"/>
      <use xlink:href="#DejaVuSans-28" x="808.796875"/>
      <use xlink:href="#DejaVuSans-4d" x="847.810547"/>
      <use xlink:href="#DejaVuSans-31" x="934.089844"/>
      <use xlink:href="#DejaVuSans-29" x="997.712891"/>
     </g>
    </g>
    <g id="line2d_20">
     <path d="M 91.113125 371.27625 
L 113.113125 371.27625 
L 135.113125 371.27625 
" style="fill: none; stroke-dasharray: 25.6,6.4,4,6.4; stroke-dashoffset: 0; stroke: #ff7f0e; stroke-width: 4"/>
    </g>
    <g id="text_19">
     <!-- Rec. Train Loss (M1) -->
     <g style="fill: #262626" transform="translate(152.713125 378.97625) scale(0.22 -0.22)">
      <defs>
       <path id="DejaVuSans-52" d="M 2841 2188 
Q 3044 2119 3236 1894 
Q 3428 1669 3622 1275 
L 4263 0 
L 3584 0 
L 2988 1197 
Q 2756 1666 2539 1819 
Q 2322 1972 1947 1972 
L 1259 1972 
L 1259 0 
L 628 0 
L 628 4666 
L 2053 4666 
Q 2853 4666 3247 4331 
Q 3641 3997 3641 3322 
Q 3641 2881 3436 2590 
Q 3231 2300 2841 2188 
z
M 1259 4147 
L 1259 2491 
L 2053 2491 
Q 2509 2491 2742 2702 
Q 2975 2913 2975 3322 
Q 2975 3731 2742 3939 
Q 2509 4147 2053 4147 
L 1259 4147 
z
" transform="scale(0.015625)"/>
      </defs>
      <use xlink:href="#DejaVuSans-52"/>
      <use xlink:href="#DejaVuSans-65" x="64.982422"/>
      <use xlink:href="#DejaVuSans-63" x="126.505859"/>
      <use xlink:href="#DejaVuSans-2e" x="181.486328"/>
      <use xlink:href="#DejaVuSans-20" x="213.273438"/>
      <use xlink:href="#DejaVuSans-54" x="245.060547"/>
      <use xlink:href="#DejaVuSans-72" x="291.394531"/>
      <use xlink:href="#DejaVuSans-61" x="332.507812"/>
      <use xlink:href="#DejaVuSans-69" x="393.787109"/>
      <use xlink:href="#DejaVuSans-6e" x="421.570312"/>
      <use xlink:href="#DejaVuSans-20" x="484.949219"/>
      <use xlink:href="#DejaVuSans-4c" x="516.736328"/>
      <use xlink:href="#DejaVuSans-6f" x="570.699219"/>
      <use xlink:href="#DejaVuSans-73" x="631.880859"/>
      <use xlink:href="#DejaVuSans-73" x="683.980469"/>
      <use xlink:href="#DejaVuSans-20" x="736.080078"/>
      <use xlink:href="#DejaVuSans-28" x="767.867188"/>
      <use xlink:href="#DejaVuSans-4d" x="806.880859"/>
      <use xlink:href="#DejaVuSans-31" x="893.160156"/>
      <use xlink:href="#DejaVuSans-29" x="956.783203"/>
     </g>
    </g>
    <g id="line2d_21">
     <path d="M 91.113125 403.568125 
L 113.113125 403.568125 
L 135.113125 403.568125 
" style="fill: none; stroke: #e94e77; stroke-width: 4; stroke-linecap: round"/>
    </g>
    <g id="text_20">
     <!-- Pred. Val Loss (M1) -->
     <g style="fill: #262626" transform="translate(152.713125 411.268125) scale(0.22 -0.22)">
      <defs>
       <path id="DejaVuSans-56" d="M 1831 0 
L 50 4666 
L 709 4666 
L 2188 738 
L 3669 4666 
L 4325 4666 
L 2547 0 
L 1831 0 
z
" transform="scale(0.015625)"/>
       <path id="DejaVuSans-6c" d="M 603 4863 
L 1178 4863 
L 1178 0 
L 603 0 
L 603 4863 
z
" transform="scale(0.015625)"/>
      </defs>
      <use xlink:href="#DejaVuSans-50"/>
      <use xlink:href="#DejaVuSans-72" x="58.552734"/>
      <use xlink:href="#DejaVuSans-65" x="97.416016"/>
      <use xlink:href="#DejaVuSans-64" x="158.939453"/>
      <use xlink:href="#DejaVuSans-2e" x="222.416016"/>
      <use xlink:href="#DejaVuSans-20" x="254.203125"/>
      <use xlink:href="#DejaVuSans-56" x="285.990234"/>
      <use xlink:href="#DejaVuSans-61" x="346.648438"/>
      <use xlink:href="#DejaVuSans-6c" x="407.927734"/>
      <use xlink:href="#DejaVuSans-20" x="435.710938"/>
      <use xlink:href="#DejaVuSans-4c" x="467.498047"/>
      <use xlink:href="#DejaVuSans-6f" x="521.460938"/>
      <use xlink:href="#DejaVuSans-73" x="582.642578"/>
      <use xlink:href="#DejaVuSans-73" x="634.742188"/>
      <use xlink:href="#DejaVuSans-20" x="686.841797"/>
      <use xlink:href="#DejaVuSans-28" x="718.628906"/>
      <use xlink:href="#DejaVuSans-4d" x="757.642578"/>
      <use xlink:href="#DejaVuSans-31" x="843.921875"/>
      <use xlink:href="#DejaVuSans-29" x="907.544922"/>
     </g>
    </g>
    <g id="line2d_22">
     <path d="M 91.113125 435.86 
L 113.113125 435.86 
L 135.113125 435.86 
" style="fill: none; stroke-dasharray: 14.8,6.4; stroke-dashoffset: 0; stroke: #2ca02c; stroke-width: 4"/>
    </g>
    <g id="text_21">
     <!-- Pred. Val Loss (M4) -->
     <g style="fill: #262626" transform="translate(152.713125 443.56) scale(0.22 -0.22)">
      <use xlink:href="#DejaVuSans-50"/>
      <use xlink:href="#DejaVuSans-72" x="58.552734"/>
      <use xlink:href="#DejaVuSans-65" x="97.416016"/>
      <use xlink:href="#DejaVuSans-64" x="158.939453"/>
      <use xlink:href="#DejaVuSans-2e" x="222.416016"/>
      <use xlink:href="#DejaVuSans-20" x="254.203125"/>
      <use xlink:href="#DejaVuSans-56" x="285.990234"/>
      <use xlink:href="#DejaVuSans-61" x="346.648438"/>
      <use xlink:href="#DejaVuSans-6c" x="407.927734"/>
      <use xlink:href="#DejaVuSans-20" x="435.710938"/>
      <use xlink:href="#DejaVuSans-4c" x="467.498047"/>
      <use xlink:href="#DejaVuSans-6f" x="521.460938"/>
      <use xlink:href="#DejaVuSans-73" x="582.642578"/>
      <use xlink:href="#DejaVuSans-73" x="634.742188"/>
      <use xlink:href="#DejaVuSans-20" x="686.841797"/>
      <use xlink:href="#DejaVuSans-28" x="718.628906"/>
      <use xlink:href="#DejaVuSans-4d" x="757.642578"/>
      <use xlink:href="#DejaVuSans-34" x="843.921875"/>
      <use xlink:href="#DejaVuSans-29" x="907.544922"/>
     </g>
    </g>
   </g>
  </g>
  <g id="axes_2">
   <g id="patch_8">
    <path d="M 411.693125 173.995312 
L 757.293125 173.995312 
L 757.293125 47.275312 
L 411.693125 47.275312 
z
" style="fill: #ffffff"/>
   </g>
   <g id="matplotlib.axis_3">
    <g id="xtick_8">
     <g id="line2d_23">
      <path d="M 411.693125 173.995312 
L 411.693125 47.275312 
" clip-path="url(#p6ad6840f05)" style="fill: none; stroke: #cccccc; stroke-linecap: round"/>
     </g>
     <g id="text_22">
      <!-- 40 -->
      <g style="fill: #262626" transform="translate(404.694375 191.853594) scale(0.11 -0.11)">
       <use xlink:href="#DejaVuSans-34"/>
       <use xlink:href="#DejaVuSans-30" x="63.623047"/>
      </g>
     </g>
    </g>
    <g id="xtick_9">
     <g id="line2d_24">
      <path d="M 454.893125 173.995312 
L 454.893125 47.275312 
" clip-path="url(#p6ad6840f05)" style="fill: none; stroke: #cccccc; stroke-linecap: round"/>
     </g>
     <g id="text_23">
      <!-- 45 -->
      <g style="fill: #262626" transform="translate(447.894375 191.853594) scale(0.11 -0.11)">
       <use xlink:href="#DejaVuSans-34"/>
       <use xlink:href="#DejaVuSans-35" x="63.623047"/>
      </g>
     </g>
    </g>
    <g id="xtick_10">
     <g id="line2d_25">
      <path d="M 498.093125 173.995312 
L 498.093125 47.275312 
" clip-path="url(#p6ad6840f05)" style="fill: none; stroke: #cccccc; stroke-linecap: round"/>
     </g>
     <g id="text_24">
      <!-- 50 -->
      <g style="fill: #262626" transform="translate(491.094375 191.853594) scale(0.11 -0.11)">
       <use xlink:href="#DejaVuSans-35"/>
       <use xlink:href="#DejaVuSans-30" x="63.623047"/>
      </g>
     </g>
    </g>
    <g id="xtick_11">
     <g id="line2d_26">
      <path d="M 541.293125 173.995312 
L 541.293125 47.275312 
" clip-path="url(#p6ad6840f05)" style="fill: none; stroke: #cccccc; stroke-linecap: round"/>
     </g>
     <g id="text_25">
      <!-- 55 -->
      <g style="fill: #262626" transform="translate(534.294375 191.853594) scale(0.11 -0.11)">
       <use xlink:href="#DejaVuSans-35"/>
       <use xlink:href="#DejaVuSans-35" x="63.623047"/>
      </g>
     </g>
    </g>
    <g id="xtick_12">
     <g id="line2d_27">
      <path d="M 584.493125 173.995312 
L 584.493125 47.275312 
" clip-path="url(#p6ad6840f05)" style="fill: none; stroke: #cccccc; stroke-linecap: round"/>
     </g>
     <g id="text_26">
      <!-- 60 -->
      <g style="fill: #262626" transform="translate(577.494375 191.853594) scale(0.11 -0.11)">
       <use xlink:href="#DejaVuSans-36"/>
       <use xlink:href="#DejaVuSans-30" x="63.623047"/>
      </g>
     </g>
    </g>
    <g id="xtick_13">
     <g id="line2d_28">
      <path d="M 627.693125 173.995312 
L 627.693125 47.275312 
" clip-path="url(#p6ad6840f05)" style="fill: none; stroke: #cccccc; stroke-linecap: round"/>
     </g>
     <g id="text_27">
      <!-- 65 -->
      <g style="fill: #262626" transform="translate(620.694375 191.853594) scale(0.11 -0.11)">
       <use xlink:href="#DejaVuSans-36"/>
       <use xlink:href="#DejaVuSans-35" x="63.623047"/>
      </g>
     </g>
    </g>
    <g id="xtick_14">
     <g id="line2d_29">
      <path d="M 670.893125 173.995312 
L 670.893125 47.275312 
" clip-path="url(#p6ad6840f05)" style="fill: none; stroke: #cccccc; stroke-linecap: round"/>
     </g>
     <g id="text_28">
      <!-- 70 -->
      <g style="fill: #262626" transform="translate(663.894375 191.853594) scale(0.11 -0.11)">
       <use xlink:href="#DejaVuSans-37"/>
       <use xlink:href="#DejaVuSans-30" x="63.623047"/>
      </g>
     </g>
    </g>
    <g id="xtick_15">
     <g id="line2d_30">
      <path d="M 714.093125 173.995312 
L 714.093125 47.275312 
" clip-path="url(#p6ad6840f05)" style="fill: none; stroke: #cccccc; stroke-linecap: round"/>
     </g>
     <g id="text_29">
      <!-- 75 -->
      <g style="fill: #262626" transform="translate(707.094375 191.853594) scale(0.11 -0.11)">
       <use xlink:href="#DejaVuSans-37"/>
       <use xlink:href="#DejaVuSans-35" x="63.623047"/>
      </g>
     </g>
    </g>
    <g id="xtick_16">
     <g id="line2d_31">
      <path d="M 757.293125 173.995312 
L 757.293125 47.275312 
" clip-path="url(#p6ad6840f05)" style="fill: none; stroke: #cccccc; stroke-linecap: round"/>
     </g>
     <g id="text_30">
      <!-- 80 -->
      <g style="fill: #262626" transform="translate(750.294375 191.853594) scale(0.11 -0.11)">
       <use xlink:href="#DejaVuSans-38"/>
       <use xlink:href="#DejaVuSans-30" x="63.623047"/>
      </g>
     </g>
    </g>
   </g>
   <g id="matplotlib.axis_4">
    <g id="ytick_8">
     <g id="line2d_32">
      <path d="M 411.693125 173.995312 
L 757.293125 173.995312 
" clip-path="url(#p6ad6840f05)" style="fill: none; stroke: #cccccc; stroke-linecap: round"/>
     </g>
     <g id="text_31">
      <!-- 17.5 -->
      <g style="fill: #262626" transform="translate(377.700938 178.174453) scale(0.11 -0.11)">
       <use xlink:href="#DejaVuSans-31"/>
       <use xlink:href="#DejaVuSans-37" x="63.623047"/>
       <use xlink:href="#DejaVuSans-2e" x="127.246094"/>
       <use xlink:href="#DejaVuSans-35" x="159.033203"/>
      </g>
     </g>
    </g>
    <g id="ytick_9">
     <g id="line2d_33">
      <path d="M 411.693125 131.755312 
L 757.293125 131.755312 
" clip-path="url(#p6ad6840f05)" style="fill: none; stroke: #cccccc; stroke-linecap: round"/>
     </g>
     <g id="text_32">
      <!-- 18.0 -->
      <g style="fill: #262626" transform="translate(377.700938 135.934453) scale(0.11 -0.11)">
       <use xlink:href="#DejaVuSans-31"/>
       <use xlink:href="#DejaVuSans-38" x="63.623047"/>
       <use xlink:href="#DejaVuSans-2e" x="127.246094"/>
       <use xlink:href="#DejaVuSans-30" x="159.033203"/>
      </g>
     </g>
    </g>
    <g id="ytick_10">
     <g id="line2d_34">
      <path d="M 411.693125 89.515312 
L 757.293125 89.515312 
" clip-path="url(#p6ad6840f05)" style="fill: none; stroke: #cccccc; stroke-linecap: round"/>
     </g>
     <g id="text_33">
      <!-- 18.5 -->
      <g style="fill: #262626" transform="translate(377.700938 93.694453) scale(0.11 -0.11)">
       <use xlink:href="#DejaVuSans-31"/>
       <use xlink:href="#DejaVuSans-38" x="63.623047"/>
       <use xlink:href="#DejaVuSans-2e" x="127.246094"/>
       <use xlink:href="#DejaVuSans-35" x="159.033203"/>
      </g>
     </g>
    </g>
    <g id="ytick_11">
     <g id="line2d_35">
      <path d="M 411.693125 47.275312 
L 757.293125 47.275312 
" clip-path="url(#p6ad6840f05)" style="fill: none; stroke: #cccccc; stroke-linecap: round"/>
     </g>
     <g id="text_34">
      <!-- 19.0 -->
      <g style="fill: #262626" transform="translate(377.700938 51.454453) scale(0.11 -0.11)">
       <defs>
        <path id="DejaVuSans-39" d="M 703 97 
L 703 672 
Q 941 559 1184 500 
Q 1428 441 1663 441 
Q 2288 441 2617 861 
Q 2947 1281 2994 2138 
Q 2813 1869 2534 1725 
Q 2256 1581 1919 1581 
Q 1219 1581 811 2004 
Q 403 2428 403 3163 
Q 403 3881 828 4315 
Q 1253 4750 1959 4750 
Q 2769 4750 3195 4129 
Q 3622 3509 3622 2328 
Q 3622 1225 3098 567 
Q 2575 -91 1691 -91 
Q 1453 -91 1209 -44 
Q 966 3 703 97 
z
M 1959 2075 
Q 2384 2075 2632 2365 
Q 2881 2656 2881 3163 
Q 2881 3666 2632 3958 
Q 2384 4250 1959 4250 
Q 1534 4250 1286 3958 
Q 1038 3666 1038 3163 
Q 1038 2656 1286 2365 
Q 1534 2075 1959 2075 
z
" transform="scale(0.015625)"/>
       </defs>
       <use xlink:href="#DejaVuSans-31"/>
       <use xlink:href="#DejaVuSans-39" x="63.623047"/>
       <use xlink:href="#DejaVuSans-2e" x="127.246094"/>
       <use xlink:href="#DejaVuSans-30" x="159.033203"/>
      </g>
     </g>
    </g>
   </g>
   <g id="line2d_36">
    <path d="M 411.693125 78.422244 
L 420.333125 80.553674 
L 428.973125 79.310128 
L 437.613125 80.527485 
L 446.253125 77.67544 
L 454.893125 79.68522 
L 463.533125 79.968228 
L 472.173125 78.551498 
L 480.813125 91.580849 
L 489.453125 91.911165 
L 498.093125 90.30689 
L 506.733125 89.663997 
L 515.373125 88.390039 
L 524.013125 89.131773 
L 532.653125 90.187773 
L 541.293125 90.570468 
L 549.933125 98.764183 
L 558.573125 98.92385 
L 567.213125 97.730148 
L 575.853125 97.629616 
L 584.493125 98.090877 
L 593.133125 97.167511 
L 601.773125 97.606807 
L 610.413125 97.789284 
L 619.053125 120.86584 
L 627.693125 122.953341 
L 636.333125 124.578736 
L 644.973125 124.550858 
L 653.613125 124.858365 
L 662.253125 126.06305 
L 670.893125 126.695805 
L 679.533125 127.208599 
L 688.173125 127.170583 
L 696.813125 127.040484 
L 705.453125 127.277872 
L 714.093125 128.086346 
L 722.733125 127.570173 
L 731.373125 127.939351 
L 740.013125 128.138724 
L 748.653125 127.787287 
L 757.293125 128.226583 
" clip-path="url(#p6ad6840f05)" style="fill: none; stroke: #e94e77; stroke-width: 5; stroke-linecap: round"/>
   </g>
   <g id="line2d_37">
    <path d="M 411.693125 107.219786 
L 420.333125 108.369559 
L 428.973125 108.100068 
L 437.613125 108.760701 
L 446.253125 107.366781 
L 454.893125 108.144842 
L 463.533125 106.508464 
L 472.173125 105.579184 
L 480.813125 106.401175 
L 489.453125 106.445104 
L 498.093125 105.056253 
" clip-path="url(#p6ad6840f05)" style="fill: none; stroke-dasharray: 18.5,8; stroke-dashoffset: 0; stroke: #2ca02c; stroke-width: 5"/>
   </g>
   <g id="patch_9">
    <path d="M 411.693125 173.995312 
L 411.693125 47.275312 
" style="fill: none; stroke: #4b4b4b; stroke-width: 2; stroke-linejoin: miter; stroke-linecap: square"/>
   </g>
   <g id="patch_10">
    <path d="M 757.293125 173.995312 
L 757.293125 47.275312 
" style="fill: none; stroke: #4b4b4b; stroke-width: 2; stroke-linejoin: miter; stroke-linecap: square"/>
   </g>
   <g id="patch_11">
    <path d="M 411.693125 173.995312 
L 757.293125 173.995312 
" style="fill: none; stroke: #4b4b4b; stroke-width: 2; stroke-linejoin: miter; stroke-linecap: square"/>
   </g>
   <g id="patch_12">
    <path d="M 411.693125 47.275312 
L 757.293125 47.275312 
" style="fill: none; stroke: #4b4b4b; stroke-width: 2; stroke-linejoin: miter; stroke-linecap: square"/>
   </g>
  </g>
 </g>
 <defs>
  <clipPath id="pef10ce1946">
   <rect x="71.313125" y="35.995312" width="744.3" height="431.94"/>
  </clipPath>
  <clipPath id="p6ad6840f05">
   <rect x="411.693125" y="47.275312" width="345.6" height="126.72"/>
  </clipPath>
 </defs>
</svg>
